<svg width="107" height="28" viewBox="0 0 107 28" fill="none" xmlns="http://www.w3.org/2000/svg">
<path d="M40.34 21V6H43.04V21H40.34ZM45.1511 16.04C45.1244 14.6267 45.6378 13.4067 46.6911 12.38C47.7444 11.3533 48.9978 10.8533 50.4511 10.88C51.9044 10.8533 53.1578 11.3533 54.2111 12.38C55.2778 13.4067 55.7978 14.6267 55.7711 16.04C55.7978 17.4533 55.2778 18.68 54.2111 19.72C53.1444 20.7467 51.8844 21.2467 50.4311 21.22C48.9778 21.2467 47.7244 20.7467 46.6711 19.72C45.6311 18.68 45.1244 17.4533 45.1511 16.04ZM52.2711 17.98C52.7644 17.4733 53.0111 16.8333 53.0111 16.06C53.0111 15.2867 52.7644 14.64 52.2711 14.12C51.7911 13.6 51.1844 13.34 50.4511 13.34C49.7044 13.34 49.0911 13.6 48.6111 14.12C48.1311 14.6267 47.8911 15.2733 47.8911 16.06C47.8911 16.8333 48.1311 17.4733 48.6111 17.98C49.0911 18.4867 49.7044 18.74 50.4511 18.74C51.1844 18.74 51.7911 18.4867 52.2711 17.98ZM64.4438 11.1H67.2838L62.5438 21.86C62.0904 22.8867 61.5504 23.64 60.9238 24.12C60.2971 24.6 59.5238 24.84 58.6038 24.84C58.0438 24.84 57.4638 24.76 56.8638 24.6V22.34C57.4104 22.3933 57.7971 22.42 58.0238 22.42C58.5304 22.42 58.9438 22.32 59.2638 22.12C59.5838 21.92 59.8571 21.5733 60.0838 21.08L60.3838 20.4L56.5838 11.1H59.4438L61.8638 17.6L64.4438 11.1ZM74.0811 14.4C74.0544 12.5067 74.7144 10.8933 76.0611 9.56C77.4211 8.21333 79.0478 7.55333 80.9411 7.58C82.0478 7.58 83.0678 7.82 84.0011 8.3C84.9344 8.76667 85.7078 9.42667 86.3211 10.28L85.1411 11.2C84.0611 9.74667 82.6611 9.02 80.9411 9.02C79.4478 8.99333 78.1944 9.50667 77.1811 10.56C76.1678 11.6133 75.6744 12.8867 75.7011 14.38C75.6744 15.9 76.1744 17.1933 77.2011 18.26C78.2411 19.3267 79.5144 19.8467 81.0211 19.82C81.9678 19.82 82.8211 19.6133 83.5811 19.2C84.3544 18.7733 84.9678 18.1933 85.4211 17.46V15.68H80.9211V14.28H86.9811V17.8C86.3944 18.84 85.5611 19.6733 84.4811 20.3C83.4278 20.9133 82.2478 21.22 80.9411 21.22C79.0478 21.2467 77.4211 20.5933 76.0611 19.26C74.7144 17.9133 74.0544 16.2933 74.0811 14.4ZM89.743 21V11.26H91.283V21H89.743ZM89.363 7.54C89.363 7.23333 89.4763 6.97333 89.703 6.76C89.9296 6.53333 90.203 6.42 90.523 6.42C90.8296 6.42 91.0963 6.53333 91.323 6.76C91.5496 6.97333 91.663 7.23333 91.663 7.54C91.663 7.86 91.5496 8.12667 91.323 8.34C91.1096 8.55333 90.843 8.66 90.523 8.66C90.203 8.66 89.9296 8.55333 89.703 8.34C89.4763 8.12667 89.363 7.86 89.363 7.54ZM96.4448 9.04V11.26H98.8848V12.64H96.4448V21H94.9048V12.64H93.5048V11.26H94.9048V8.94C94.9048 7.9 95.1848 7.11333 95.7448 6.58C96.3182 6.04667 97.1115 5.78 98.1248 5.78C98.5382 5.78 98.9448 5.83333 99.3448 5.94V7.24C99.0248 7.2 98.7382 7.18 98.4848 7.18C97.8048 7.18 97.2915 7.32667 96.9448 7.62C96.6115 7.9 96.4448 8.37333 96.4448 9.04ZM105.532 19.7V21C104.878 21.1467 104.338 21.22 103.912 21.22C102.872 21.22 102.065 20.9533 101.492 20.42C100.918 19.8867 100.632 19.1 100.632 18.06V12.64H98.9917V11.26H100.632V8.6H102.172V11.26H105.212V12.64H102.172V17.96C102.172 18.6267 102.338 19.1067 102.672 19.4C103.018 19.68 103.538 19.82 104.232 19.82C104.605 19.82 105.038 19.78 105.532 19.7Z" fill="white"/>
<rect x="6" width="3" height="28" rx="1.5" fill="#FFB4B4"/>
<rect x="1.5" y="26.5981" width="3" height="28" rx="1.5" transform="rotate(-120 1.5 26.5981)" fill="#9FB4FF"/>
<rect y="5.59814" width="3" height="28" rx="1.5" transform="rotate(-60 0 5.59814)" fill="white"/>
</svg>
