<svg width="92" height="92" viewBox="0 0 92 92" fill="none" xmlns="http://www.w3.org/2000/svg">
<path d="M79.2296 33.1729L90.2031 44.1457L56.9736 62.3924L46 51.4189L79.2296 33.1729Z" fill="white"/>
<path d="M12.7704 33.1729L1.79688 44.1457L35.0264 62.3924L46 51.4189L12.7704 33.1729Z" fill="white"/>
<path d="M79.2296 33.1727L90.2031 22.1998L56.9736 3.95312L46 14.9267L79.2296 33.1727Z" fill="white"/>
<path d="M12.7704 33.1727L1.79688 22.1998L35.0264 3.95312L46 14.9267L12.7704 33.1727Z" fill="white"/>
<path d="M81.4174 32.8192L81.0639 33.1728L81.4174 33.5263L91.1199 43.2288L91.1202 43.2291C91.4086 43.5169 91.5444 43.9245 91.4866 44.3282L91.4866 44.3288C91.4294 44.732 91.1848 45.0858 90.8269 45.2825L80.7856 50.7959L80.5263 50.9383V51.2342V69.6648C80.5263 70.1385 80.2684 70.5742 79.8535 70.8023C79.8535 70.8023 79.8534 70.8023 79.8534 70.8023L46.6239 89.0483L46.6238 89.0484C46.4294 89.1552 46.2148 89.2084 45.9999 89.2084C45.7849 89.2084 45.5703 89.1552 45.3759 89.0484L45.3758 89.0483L12.1463 70.8023C12.1463 70.8023 12.1462 70.8023 12.1462 70.8023C11.7313 70.5742 11.4734 70.1385 11.4734 69.6648V51.2342V50.9383L11.2141 50.7959L1.17265 45.2817L1.17232 45.2816C0.81488 45.0856 0.570328 44.7321 0.51315 44.3288L0.513075 44.3283C0.455315 43.924 0.591031 43.5169 0.87982 43.2281L10.5822 33.5263L10.9358 33.1728L10.5823 32.8192L0.879833 23.1168L0.879522 23.1165C0.591134 22.8286 0.455319 22.421 0.513063 22.0173L0.513162 22.0166C0.570315 21.613 0.81465 21.2599 1.17264 21.0631C1.17269 21.0631 1.17274 21.063 1.1728 21.063L34.402 2.81648C34.9072 2.53933 35.5355 2.62861 35.9432 3.03631L45.6463 12.7394L45.9999 13.093L46.3534 12.7394L56.0565 3.03631L56.0567 3.03609C56.4638 2.62856 57.0918 2.53874 57.5975 2.81639C57.5975 2.81639 57.5975 2.8164 57.5975 2.8164L67.196 8.08769L67.1963 8.08783C67.8243 8.43223 68.0538 9.22086 67.7089 9.84841L67.7086 9.84883C67.3644 10.4765 66.5759 10.7059 65.9479 10.3613C65.9479 10.3613 65.9478 10.3613 65.9478 10.3612L57.5314 5.73927L57.2025 5.55865L56.9371 5.82398L48.6111 14.15L48.14 14.6211L48.724 14.9418L78.6722 31.3867L79.0011 31.5673L79.2664 31.302L87.5931 22.976L88.0643 22.5049L87.4802 22.1842L77.9146 16.9318L77.9144 16.9317C77.2867 16.5875 77.0572 15.7995 77.4021 15.1707C77.7473 14.5431 78.5355 14.3139 79.1629 14.6583L90.8269 21.063C91.1848 21.2597 91.4294 21.6135 91.4866 22.0167L91.4866 22.0173C91.5444 22.421 91.4086 22.8286 91.1202 23.1165L91.1199 23.1168L81.4174 32.8192ZM45.7592 49.8068L45.9999 49.9389L46.2405 49.8068L75.7366 33.6103L76.5348 33.1721L75.7366 32.7338L46.2405 16.5367L45.9999 16.4045L45.7592 16.5367L16.2631 32.7338L15.4649 33.1721L16.2631 33.6103L45.7592 49.8068ZM35.0633 5.824L34.798 5.55866L34.4691 5.73926L4.52021 22.1842L3.93618 22.5049L4.40731 22.976L12.7333 31.302L12.9986 31.5673L13.3275 31.3867L43.2757 14.9418L43.8597 14.6211L43.3886 14.15L35.0633 5.824ZM13.3289 34.9581L13 34.7775L12.7347 35.0428L4.40733 43.3695L3.93615 43.8407L4.52021 44.1614L34.4691 60.6063L34.798 60.7869L35.0633 60.5216L43.39 52.1949L43.8611 51.7237L43.2771 51.4031L13.3289 34.9581ZM77.6732 69.0404L77.9325 68.898V68.6021V53.2079V52.363L77.1919 52.7697L57.5979 63.5289C57.4012 63.6367 57.1864 63.6892 56.9741 63.6892C56.6374 63.6892 56.3056 63.5588 56.0569 63.3096L56.0565 63.3092L46.3534 53.6061L45.9999 53.2526L45.6463 53.6061L35.9432 63.3092C35.694 63.5584 35.3618 63.6892 35.0256 63.6892C34.8133 63.6892 34.5985 63.6367 34.4018 63.5289L14.8078 52.7697L14.0672 52.363V53.2079V68.6021V68.898L14.3265 69.0404L43.9623 85.3133L44.703 85.72V84.875V66.5069C44.703 65.7906 45.2835 65.21 45.9999 65.21C46.7162 65.21 47.2967 65.7906 47.2967 66.5069V84.875V85.72L48.0374 85.3133L77.6732 69.0404ZM56.9371 60.5216L57.2024 60.7869L57.5313 60.6063L87.4802 44.1607L88.0643 43.8399L87.5931 43.3688L79.2657 35.0428L79.0004 34.7776L78.6715 34.9581L48.7233 51.4023L48.1393 51.723L48.6104 52.1942L56.9371 60.5216Z" fill="#616CF5" stroke="white"/>
<path d="M72.7383 14.4067C73.2107 14.4067 73.6725 14.2144 74.0087 13.8796C74.3428 13.5455 74.5352 13.0822 74.5352 12.6099C74.5352 12.1368 74.3428 11.6735 74.0087 11.3394C73.6746 11.0046 73.2107 10.813 72.7383 10.813C72.2638 10.813 71.8019 11.0046 71.4678 11.3394C71.1316 11.6735 70.9414 12.1368 70.9414 12.6099C70.9414 13.0822 71.1316 13.5455 71.4678 13.8796C71.8019 14.2144 72.2659 14.4067 72.7383 14.4067Z" fill="#616CF5"/>
<path d="M46 58.7446C45.5276 58.7446 45.0637 58.9362 44.7296 59.2711C44.3954 59.6066 44.2031 60.0684 44.2031 60.5415C44.2031 61.0153 44.3954 61.4771 44.7296 61.8134C45.0637 62.1475 45.5276 62.3384 46 62.3384C46.4724 62.3384 46.9363 62.1475 47.2704 61.8134C47.6046 61.4771 47.7969 61.0153 47.7969 60.5415C47.7969 60.0684 47.6046 59.6066 47.2704 59.2711C46.9363 58.9362 46.4724 58.7446 46 58.7446Z" fill="#616CF5"/>
</svg>
