<svg width="18" height="17" viewBox="0 0 18 17" fill="none" xmlns="http://www.w3.org/2000/svg">
<path fill-rule="evenodd" clip-rule="evenodd" d="M1.39771 0.0922659L1.31317 0.0834244C1.00551 0.0721776 0.729235 0.289744 0.675274 0.601522L0.666432 0.686061C0.655185 0.993713 0.872752 1.26999 1.18453 1.32395L2.44203 1.54144L3.20414 10.6212L3.21991 10.7577C3.37325 11.7931 4.26379 12.5714 5.32445 12.5714H14.4178L14.5547 12.5671C15.5517 12.5034 16.3783 11.7495 16.5238 10.748L17.3147 5.28262L17.3283 5.15708C17.4011 4.15785 16.6095 3.29061 15.5903 3.29061H3.84287L3.64726 0.955834L3.63252 0.863454C3.57548 0.623187 3.38016 0.435384 3.13104 0.392266L1.39771 0.0922659ZM5.22789 11.3163C4.81516 11.2711 4.48509 10.9397 4.44984 10.5171L3.94792 4.54073H15.5903L15.6638 4.54613C15.9269 4.58525 16.117 4.83131 16.0776 5.10377L15.2868 10.5687L15.2669 10.6664C15.1666 11.0486 14.8204 11.3216 14.4178 11.3216H5.3245L5.22789 11.3163ZM3.9235 15.1542C3.9235 14.4575 4.48823 13.8917 5.18517 13.8917C5.88201 13.8917 6.44767 14.4574 6.44767 15.1542C6.44767 15.8512 5.88192 16.4159 5.18517 16.4159C4.48832 16.4159 3.9235 15.8511 3.9235 15.1542ZM13.3001 15.1542C13.3001 14.4574 13.8658 13.8917 14.5626 13.8917C15.2595 13.8917 15.8251 14.4574 15.8251 15.1542C15.8251 15.8512 15.2594 16.4159 14.5626 16.4159C13.8659 16.4159 13.3001 15.8512 13.3001 15.1542ZM13.7067 6.99577C13.7067 6.65059 13.4268 6.37077 13.0817 6.37077H10.7708L10.686 6.37647C10.381 6.41786 10.1458 6.67936 10.1458 6.99577C10.1458 7.34095 10.4257 7.62077 10.7708 7.62077H13.0817L13.1665 7.61506C13.4715 7.57368 13.7067 7.31218 13.7067 6.99577Z" fill="#222222"/>
</svg>
