<svg width="18" height="18" viewBox="0 0 18 18" fill="none" xmlns="http://www.w3.org/2000/svg">
<path fill-rule="evenodd" clip-rule="evenodd" d="M1.49259 3.06049C1.75619 2.62403 3.20857 1.03651 4.245 1.08444C4.55481 1.11011 4.82869 1.29753 5.05121 1.51491C5.56215 2.01384 7.02479 3.90089 7.10781 4.29798C7.30979 5.27188 6.14926 5.83329 6.50443 6.8149C7.40992 9.03057 8.97013 10.5907 11.1868 11.4953C12.1676 11.8504 12.729 10.69 13.703 10.8928C14.0992 10.9758 15.9872 12.4384 16.4862 12.9493C16.7027 13.171 16.891 13.4457 16.9167 13.7555C16.9552 14.8466 15.2692 16.3195 14.9405 16.5077C14.1651 17.0623 13.1535 17.0529 11.9202 16.4795C8.47887 15.0477 2.9792 9.65189 1.52084 6.08062C0.962825 4.85425 0.924312 3.83585 1.49259 3.06049Z" stroke="#616CF5" stroke-width="1.2" stroke-linecap="round" stroke-linejoin="round"/>
</svg>
