<svg width="16" height="16" viewBox="0 0 16 16" fill="none" xmlns="http://www.w3.org/2000/svg">
<path d="M2.5956 4.29193C2.5956 3.35518 3.35535 2.59543 4.29135 2.59543H5.0631C5.5101 2.59543 5.93985 2.41843 6.25785 2.10268L6.7971 1.56268C7.45785 0.898932 8.53185 0.895932 9.1956 1.55668L9.20235 1.56268L9.74235 2.10268C10.0596 2.41843 10.4894 2.59543 10.9371 2.59543H11.7081C12.6449 2.59543 13.4046 3.35518 13.4046 4.29193V5.06218C13.4046 5.51068 13.5816 5.93968 13.8974 6.25768L14.4374 6.79768C15.1011 7.45843 15.1049 8.53168 14.4441 9.19618L14.4374 9.20293L13.8974 9.74293C13.5816 10.0594 13.4046 10.4899 13.4046 10.9369V11.7087C13.4046 12.6454 12.6449 13.4044 11.7081 13.4044H10.9371C10.4894 13.4044 10.0596 13.5822 9.74235 13.8979L9.20235 14.4372C8.54235 15.1017 7.46835 15.1047 6.80385 14.4439C6.8016 14.4417 6.79935 14.4394 6.7971 14.4372L6.25785 13.8979C5.93985 13.5822 5.5101 13.4044 5.0631 13.4044H4.29135C3.35535 13.4044 2.5956 12.6454 2.5956 11.7087V10.9369C2.5956 10.4899 2.41785 10.0594 2.1021 9.74293L1.56285 9.20293C0.898351 8.54218 0.895351 7.46818 1.5561 6.80443L1.56285 6.79768L2.1021 6.25768C2.41785 5.93968 2.5956 5.51068 2.5956 5.06218V4.29193" stroke="#616CF5" stroke-width="1.3" stroke-linecap="round" stroke-linejoin="round"/>
<path d="M6.07227 9.92739L9.92726 6.07239" stroke="#616CF5" stroke-width="1.3" stroke-linecap="round" stroke-linejoin="round"/>
<path d="M9.9248 10.4919C9.7748 10.4919 9.6323 10.4319 9.5273 10.3269C9.4748 10.2744 9.4373 10.2069 9.4073 10.1394C9.3773 10.0719 9.3623 10.0051 9.3623 9.92939C9.3623 9.85439 9.3773 9.77939 9.4073 9.71189C9.4373 9.64439 9.4748 9.58439 9.5273 9.53189C9.7373 9.32189 10.1123 9.32189 10.3223 9.53189C10.3748 9.58439 10.4198 9.64439 10.4498 9.71189C10.4723 9.77939 10.4873 9.85439 10.4873 9.92939C10.4873 10.0051 10.4723 10.0719 10.4498 10.1394C10.4198 10.2069 10.3748 10.2744 10.3223 10.3269C10.2173 10.4319 10.0748 10.4919 9.9248 10.4919Z" fill="#616CF5"/>
<path d="M6.07031 6.6371C5.99531 6.6371 5.92781 6.62135 5.86031 6.59135C5.79281 6.56135 5.72531 6.52461 5.67281 6.47211C5.62031 6.41211 5.58281 6.35211 5.55281 6.28461C5.52281 6.21636 5.50781 6.14961 5.50781 6.07461C5.50781 5.99886 5.52281 5.92461 5.55281 5.85711C5.58281 5.78961 5.62031 5.72211 5.67281 5.67711C5.89031 5.46636 6.25781 5.46636 6.46781 5.67711C6.57281 5.78136 6.63281 5.92461 6.63281 6.07461C6.63281 6.14961 6.62531 6.21636 6.59531 6.28461C6.56531 6.35211 6.52031 6.41211 6.46781 6.47211C6.41531 6.52461 6.35531 6.56135 6.28781 6.59135C6.22031 6.62135 6.14531 6.6371 6.07031 6.6371Z" fill="#616CF5"/>
</svg>
