<svg width="28" height="28" viewBox="0 0 28 28" fill="none" xmlns="http://www.w3.org/2000/svg">
<path d="M5.59381 8.23203C5.59381 6.77486 6.77564 5.59303 8.23164 5.59303H9.43214C10.1275 5.59303 10.796 5.3177 11.2906 4.82653L12.1295 3.98653C13.1573 2.95403 14.828 2.94936 15.8605 3.9772L15.871 3.98653L16.711 4.82653C17.2045 5.3177 17.873 5.59303 18.5695 5.59303H19.7688C21.226 5.59303 22.4078 6.77486 22.4078 8.23203V9.4302C22.4078 10.1279 22.6831 10.7952 23.1743 11.2899L24.0143 12.1299C25.0468 13.1577 25.0526 14.8272 24.0248 15.8609L24.0143 15.8714L23.1743 16.7114C22.6831 17.2037 22.4078 17.8734 22.4078 18.5687V19.7692C22.4078 21.2264 21.226 22.407 19.7688 22.407H18.5695C17.873 22.407 17.2045 22.6835 16.711 23.1747L15.871 24.0135C14.8443 25.0472 13.1736 25.0519 12.14 24.024C12.1365 24.0205 12.133 24.017 12.1295 24.0135L11.2906 23.1747C10.796 22.6835 10.1275 22.407 9.43214 22.407H8.23164C6.77564 22.407 5.59381 21.2264 5.59381 19.7692V18.5687C5.59381 17.8734 5.31731 17.2037 4.82614 16.7114L3.98731 15.8714C2.95364 14.8435 2.94897 13.1729 3.97681 12.1404L3.98731 12.1299L4.82614 11.2899C5.31731 10.7952 5.59381 10.1279 5.59381 9.4302V8.23203" stroke="#222222" stroke-width="2" stroke-linecap="round" stroke-linejoin="round"/>
<path d="M11.002 16.9981L16.9986 11.0015" stroke="#222222" stroke-width="2" stroke-linecap="round" stroke-linejoin="round"/>
<path d="M16.9951 17.8765C16.7618 17.8765 16.5401 17.7832 16.3768 17.6198C16.2951 17.5382 16.2368 17.4332 16.1901 17.3282C16.1435 17.2232 16.1201 17.1193 16.1201 17.0015C16.1201 16.8849 16.1435 16.7682 16.1901 16.6632C16.2368 16.5582 16.2951 16.4649 16.3768 16.3832C16.7035 16.0565 17.2868 16.0565 17.6135 16.3832C17.6951 16.4649 17.7651 16.5582 17.8118 16.6632C17.8468 16.7682 17.8701 16.8849 17.8701 17.0015C17.8701 17.1193 17.8468 17.2232 17.8118 17.3282C17.7651 17.4332 17.6951 17.5382 17.6135 17.6198C17.4501 17.7832 17.2285 17.8765 16.9951 17.8765Z" fill="#222222"/>
<path d="M10.998 11.8801C10.8814 11.8801 10.7764 11.8556 10.6714 11.8089C10.5664 11.7622 10.4614 11.7051 10.3797 11.6234C10.298 11.5301 10.2397 11.4367 10.193 11.3317C10.1464 11.2256 10.123 11.1217 10.123 11.0051C10.123 10.8872 10.1464 10.7717 10.193 10.6667C10.2397 10.5617 10.298 10.4567 10.3797 10.3867C10.718 10.0589 11.2897 10.0589 11.6164 10.3867C11.7797 10.5489 11.873 10.7717 11.873 11.0051C11.873 11.1217 11.8614 11.2256 11.8147 11.3317C11.768 11.4367 11.698 11.5301 11.6164 11.6234C11.5347 11.7051 11.4414 11.7622 11.3364 11.8089C11.2314 11.8556 11.1147 11.8801 10.998 11.8801Z" fill="#222222"/>
</svg>
