<svg width="20" height="22" viewBox="0 0 20 22" fill="none" xmlns="http://www.w3.org/2000/svg">
<path d="M14.6354 1.4675L12.321 1.4635C9.72086 1.4635 8.04054 3.31812 8.04054 6.18863V8.36723H5.71352C5.51244 8.36723 5.34961 8.5426 5.34961 8.75892V11.9155C5.34961 12.1318 5.51263 12.307 5.71352 12.307H8.04054V20.2719C8.04054 20.4883 8.20337 20.6634 8.40445 20.6634H11.4405C11.6416 20.6634 11.8045 20.4881 11.8045 20.2719V12.307H14.5253C14.7264 12.307 14.8892 12.1318 14.8892 11.9155L14.8903 8.75892C14.8903 8.65506 14.8519 8.55559 14.7837 8.48208C14.7156 8.40858 14.6227 8.36723 14.5262 8.36723H11.8045V6.5204C11.8045 5.63274 12.0011 5.18212 13.0759 5.18212L14.635 5.18152C14.8359 5.18152 14.9987 5.00615 14.9987 4.79003V1.85899C14.9987 1.64307 14.8361 1.4679 14.6354 1.4675Z" stroke="#8C94A5" stroke-width="1.48363"/>
</svg>
