<svg width="20" height="20" viewBox="0 0 20 20" fill="none" xmlns="http://www.w3.org/2000/svg">
<mask id="path-1-inside-1" fill="white">
<path fill-rule="evenodd" clip-rule="evenodd" d="M10.0007 2.49992C5.85851 2.49992 2.50065 5.85778 2.50065 9.99992C2.50065 14.1421 5.85851 17.4999 10.0007 17.4999C14.1428 17.4999 17.5006 14.1421 17.5006 9.99992C17.5006 5.85778 14.1428 2.49992 10.0007 2.49992ZM0.833984 9.99992C0.833984 4.93731 4.93804 0.833252 10.0007 0.833252C15.0633 0.833252 19.1673 4.93731 19.1673 9.99992C19.1673 15.0625 15.0633 19.1666 10.0007 19.1666C4.93804 19.1666 0.833984 15.0625 0.833984 9.99992Z"/>
<path fill-rule="evenodd" clip-rule="evenodd" d="M10.0007 9.16658C10.4609 9.16658 10.834 9.53968 10.834 9.99992V13.3333C10.834 13.7935 10.4609 14.1666 10.0007 14.1666C9.54041 14.1666 9.16732 13.7935 9.16732 13.3333V9.99992C9.16732 9.53968 9.54041 9.16658 10.0007 9.16658Z"/>
<path d="M10.834 6.66658C10.834 7.12682 10.4609 7.49992 10.0007 7.49992C9.54041 7.49992 9.16732 7.12682 9.16732 6.66658C9.16732 6.20635 9.54041 5.83325 10.0007 5.83325C10.4609 5.83325 10.834 6.20635 10.834 6.66658Z"/>
</mask>
<path fill-rule="evenodd" clip-rule="evenodd" d="M10.0007 2.49992C5.85851 2.49992 2.50065 5.85778 2.50065 9.99992C2.50065 14.1421 5.85851 17.4999 10.0007 17.4999C14.1428 17.4999 17.5006 14.1421 17.5006 9.99992C17.5006 5.85778 14.1428 2.49992 10.0007 2.49992ZM0.833984 9.99992C0.833984 4.93731 4.93804 0.833252 10.0007 0.833252C15.0633 0.833252 19.1673 4.93731 19.1673 9.99992C19.1673 15.0625 15.0633 19.1666 10.0007 19.1666C4.93804 19.1666 0.833984 15.0625 0.833984 9.99992Z" fill="#222222"/>
<path fill-rule="evenodd" clip-rule="evenodd" d="M10.0007 9.16658C10.4609 9.16658 10.834 9.53968 10.834 9.99992V13.3333C10.834 13.7935 10.4609 14.1666 10.0007 14.1666C9.54041 14.1666 9.16732 13.7935 9.16732 13.3333V9.99992C9.16732 9.53968 9.54041 9.16658 10.0007 9.16658Z" fill="#222222"/>
<path d="M10.834 6.66658C10.834 7.12682 10.4609 7.49992 10.0007 7.49992C9.54041 7.49992 9.16732 7.12682 9.16732 6.66658C9.16732 6.20635 9.54041 5.83325 10.0007 5.83325C10.4609 5.83325 10.834 6.20635 10.834 6.66658Z" fill="#222222"/>
<path d="M2.70065 9.99992C2.70065 5.96824 5.96897 2.69992 10.0007 2.69992V2.29992C5.74806 2.29992 2.30065 5.74733 2.30065 9.99992H2.70065ZM10.0007 17.2999C5.96897 17.2999 2.70065 14.0316 2.70065 9.99992H2.30065C2.30065 14.2525 5.74806 17.6999 10.0007 17.6999V17.2999ZM17.3006 9.99992C17.3006 14.0316 14.0323 17.2999 10.0007 17.2999V17.6999C14.2532 17.6999 17.7006 14.2525 17.7006 9.99992H17.3006ZM10.0007 2.69992C14.0323 2.69992 17.3006 5.96824 17.3006 9.99992H17.7006C17.7006 5.74733 14.2532 2.29992 10.0007 2.29992V2.69992ZM10.0007 0.633252C4.82758 0.633252 0.633984 4.82685 0.633984 9.99992H1.03398C1.03398 5.04776 5.0485 1.03325 10.0007 1.03325V0.633252ZM19.3673 9.99992C19.3673 4.82685 15.1737 0.633252 10.0007 0.633252V1.03325C14.9528 1.03325 18.9673 5.04776 18.9673 9.99992H19.3673ZM10.0007 19.3666C15.1737 19.3666 19.3673 15.173 19.3673 9.99992H18.9673C18.9673 14.9521 14.9528 18.9666 10.0007 18.9666V19.3666ZM0.633984 9.99992C0.633984 15.173 4.82758 19.3666 10.0007 19.3666V18.9666C5.0485 18.9666 1.03398 14.9521 1.03398 9.99992H0.633984ZM10.0007 9.36658C10.3504 9.36658 10.634 9.65014 10.634 9.99992H11.034C11.034 9.42922 10.5713 8.96658 10.0007 8.96658V9.36658ZM10.634 9.99992V13.3333H11.034V9.99992H10.634ZM10.634 13.3333C10.634 13.683 10.3504 13.9666 10.0007 13.9666V14.3666C10.5713 14.3666 11.034 13.9039 11.034 13.3333H10.634ZM10.0007 13.9666C9.65087 13.9666 9.36732 13.683 9.36732 13.3333H8.96732C8.96732 13.9039 9.42996 14.3666 10.0007 14.3666V13.9666ZM9.36732 13.3333V9.99992H8.96732V13.3333H9.36732ZM9.36732 9.99992C9.36732 9.65014 9.65087 9.36658 10.0007 9.36658V8.96658C9.42996 8.96658 8.96732 9.42922 8.96732 9.99992H9.36732ZM10.634 6.66658C10.634 7.01637 10.3504 7.29992 10.0007 7.29992V7.69992C10.5713 7.69992 11.034 7.23728 11.034 6.66658H10.634ZM10.0007 7.29992C9.65087 7.29992 9.36732 7.01637 9.36732 6.66658H8.96732C8.96732 7.23728 9.42996 7.69992 10.0007 7.69992V7.29992ZM9.36732 6.66658C9.36732 6.3168 9.65087 6.03325 10.0007 6.03325V5.63325C9.42996 5.63325 8.96732 6.09589 8.96732 6.66658H9.36732ZM10.0007 6.03325C10.3504 6.03325 10.634 6.3168 10.634 6.66658H11.034C11.034 6.09589 10.5713 5.63325 10.0007 5.63325V6.03325Z" fill="white" mask="url(#path-1-inside-1)"/>
</svg>
