<svg width="31" height="31" viewBox="0 0 31 31" fill="none" xmlns="http://www.w3.org/2000/svg">
<path d="M15.5007 1.29183C23.3798 1.29183 29.709 7.62099 29.709 15.5002C29.709 23.3793 23.3798 29.7085 15.5007 29.7085C7.62148 29.7085 1.29232 23.3793 1.29232 15.5002C1.29232 7.62099 7.62148 1.29183 15.5007 1.29183ZM15.5007 27.1252C21.959 27.1252 27.1257 21.9585 27.1257 15.5002C27.1257 9.04183 21.959 3.87516 15.5007 3.87516C9.04232 3.87516 3.87565 9.04183 3.87565 15.5002C3.87565 21.9585 9.04232 27.1252 15.5007 27.1252Z" fill="#616CF5"/>
<path d="M15.5007 14.2085C16.2757 14.2085 16.7923 14.7252 16.7923 15.5002V20.6668C16.7923 21.4418 16.2757 21.9585 15.5007 21.9585C14.7256 21.9585 14.209 21.4418 14.209 20.6668V15.5002C14.209 14.7252 14.7256 14.2085 15.5007 14.2085Z" fill="#616CF5"/>
<path d="M15.5007 9.04183C15.8882 9.04183 16.1465 9.17099 16.4048 9.42933C16.6631 9.68766 16.7923 9.946 16.7923 10.3335C16.7923 10.4627 16.7923 10.721 16.6631 10.8502C16.534 10.9793 16.534 11.1085 16.4048 11.2377C16.0173 11.6252 15.5007 11.7543 14.984 11.496C14.8548 11.496 14.8548 11.496 14.7256 11.3668C14.7256 11.3668 14.5965 11.2377 14.4673 11.2377C14.3382 11.1085 14.209 10.9793 14.209 10.8502C14.209 10.721 14.209 10.4627 14.209 10.3335C14.209 10.2043 14.209 9.946 14.3382 9.81683C14.4673 9.68766 14.4673 9.55849 14.5965 9.42933C14.8548 9.17099 15.1132 9.04183 15.5007 9.04183Z" fill="#616CF5"/>
</svg>
