<svg width="21" height="21" viewBox="0 0 21 21" fill="none" xmlns="http://www.w3.org/2000/svg">
<path d="M18.8437 7.03005C18.8047 6.14449 18.6615 5.53567 18.4563 5.00812C18.2447 4.44814 17.9191 3.94679 17.4925 3.53002C17.0758 3.10676 16.5711 2.77787 16.0176 2.56954C15.487 2.3644 14.8814 2.22119 13.9958 2.18215C13.1036 2.1398 12.8204 2.13 10.5576 2.13C8.2948 2.13 8.01156 2.1398 7.12269 2.17884C6.23713 2.21789 5.62832 2.36122 5.10089 2.56624C4.54079 2.77787 4.03944 3.10345 3.62267 3.53002C3.19941 3.94679 2.87064 4.45145 2.66219 5.00494C2.45705 5.53567 2.31385 6.14118 2.2748 7.02674C2.23245 7.91892 2.22266 8.20215 2.22266 10.465C2.22266 12.7278 2.23245 13.011 2.27149 13.8999C2.31054 14.7854 2.45387 15.3943 2.65902 15.9218C2.87064 16.4818 3.19941 16.9831 3.62267 17.3999C4.03944 17.8232 4.5441 18.1521 5.09759 18.3604C5.62832 18.5655 6.23383 18.7087 7.11952 18.7478C8.00826 18.787 8.29162 18.7966 10.5544 18.7966C12.8172 18.7966 13.1005 18.787 13.9893 18.7478C14.8749 18.7087 15.4837 18.5655 16.0111 18.3604C17.1312 17.9273 18.0168 17.0418 18.4498 15.9218C18.6549 15.3911 18.7982 14.7854 18.8372 13.8999C18.8763 13.011 18.8861 12.7278 18.8861 10.465C18.8861 8.20215 18.8828 7.91892 18.8437 7.03005ZM17.3429 13.8348C17.307 14.6487 17.1703 15.0883 17.0563 15.3813C16.7763 16.1074 16.2 16.6836 15.4739 16.9637C15.1809 17.0776 14.7382 17.2144 13.9274 17.2501C13.0483 17.2893 12.7847 17.2989 10.5609 17.2989C8.33715 17.2989 8.07019 17.2893 7.1943 17.2501C6.38034 17.2144 5.9408 17.0776 5.64777 16.9637C5.28645 16.8301 4.95756 16.6185 4.69061 16.3418C4.41386 16.0715 4.20223 15.7459 4.06869 15.3846C3.95474 15.0916 3.81802 14.6487 3.78228 13.8381C3.74311 12.959 3.73344 12.6952 3.73344 10.4715C3.73344 8.24768 3.74311 7.98073 3.78228 7.10496C3.81802 6.291 3.95474 5.85146 4.06869 5.55843C4.20223 5.19698 4.41386 4.86822 4.69391 4.60114C4.96405 4.32439 5.28963 4.11276 5.65108 3.97935C5.94411 3.8654 6.38695 3.72868 7.1976 3.69281C8.07668 3.65377 8.34046 3.64397 10.5641 3.64397C12.7912 3.64397 13.0548 3.65377 13.9307 3.69281C14.7447 3.72868 15.1842 3.8654 15.4772 3.97935C15.8386 4.11276 16.1674 4.32439 16.4344 4.60114C16.7111 4.8714 16.9228 5.19698 17.0563 5.55843C17.1703 5.85146 17.307 6.29418 17.3429 7.10496C17.3819 7.98404 17.3917 8.24768 17.3917 10.4715C17.3917 12.6952 17.3819 12.9557 17.3429 13.8348Z" fill="#8C94A5"/>
<path d="M10.5576 6.18353C8.19394 6.18353 6.27617 8.10117 6.27617 10.465C6.27617 12.8288 8.19394 14.7464 10.5576 14.7464C12.9214 14.7464 14.839 12.8288 14.839 10.465C14.839 8.10117 12.9214 6.18353 10.5576 6.18353ZM10.5576 13.2422C9.02418 13.2422 7.78034 11.9985 7.78034 10.465C7.78034 8.93142 9.02418 7.68771 10.5576 7.68771C12.0912 7.68771 13.3349 8.93142 13.3349 10.465C13.3349 11.9985 12.0912 13.2422 10.5576 13.2422Z" fill="#8C94A5"/>
<path d="M16.008 6.01425C16.008 6.56622 15.5604 7.01378 15.0083 7.01378C14.4564 7.01378 14.0088 6.56622 14.0088 6.01425C14.0088 5.46216 14.4564 5.01473 15.0083 5.01473C15.5604 5.01473 16.008 5.46216 16.008 6.01425Z" fill="#8C94A5"/>
</svg>
