<svg width="21" height="21" viewBox="0 0 21 21" fill="none" xmlns="http://www.w3.org/2000/svg">
<g clip-path="url(#clip0)">
<path d="M0.0546875 10.2828V10.2536C0.305734 6.8649 1.47728 4.32342 3.51354 2.71673C5.52191 1.08083 7.69764 0.292089 10.0686 0.292089C12.5512 0.262876 14.8664 1.13925 16.9306 2.892C19.0226 4.61554 20.0547 7.18624 20.0547 10.5165V10.721C20.0547 14.0804 19.0226 16.5927 16.9306 18.3162C14.8385 20.069 12.5233 20.9453 10.0407 20.9453H9.92916C7.50239 20.9161 5.27087 20.0397 3.20671 18.287C1.14255 16.5635 0.0825815 13.9051 0.0546875 10.2828ZM9.45497 5.6964V1.08083H8.78551C8.64604 1.2561 8.53446 1.46059 8.42289 1.63586C8.31131 1.81114 8.19974 1.98641 8.08816 2.1909C7.97658 2.36618 7.83711 2.59988 7.75343 2.77515C7.64186 2.95043 7.55817 3.1257 7.47449 3.33019C7.30713 3.62232 7.16766 3.91444 7.05608 4.17735C6.91661 4.44027 6.80504 4.70318 6.72135 4.93688C6.88872 5.05373 7.08398 5.19979 7.30713 5.28743C7.55817 5.37507 7.80922 5.4627 8.06027 5.52113C8.33921 5.57955 8.59025 5.60877 8.8134 5.63798C9.06445 5.66719 9.2876 5.6964 9.45497 5.6964ZM10.6265 1.08083V5.66719C10.766 5.66719 10.9333 5.6964 11.1007 5.66719C11.2681 5.66719 11.4633 5.63798 11.6307 5.60877C11.9375 5.55034 12.3002 5.4627 12.5791 5.37507C12.8859 5.25822 13.1649 5.11215 13.3601 4.93688C13.0254 4.08972 12.6628 3.41783 12.3002 2.77515C11.9375 2.13248 11.5191 1.57744 11.0728 1.11004V1.08083H10.6265ZM7.61396 1.34374V1.31453C7.4187 1.40216 7.22345 1.54823 7.00029 1.63586C6.80504 1.7235 6.55399 1.84035 6.35873 1.9572C5.96822 2.16169 5.5777 2.39539 5.18718 2.6583C4.82456 2.92122 4.46194 3.21334 4.15511 3.50547C4.26668 3.62232 4.40615 3.73917 4.51773 3.8268C4.6293 3.91444 4.76877 4.03129 4.90824 4.14814C5.01982 4.20657 5.15929 4.2942 5.29876 4.41105C5.43823 4.49869 5.60559 4.61554 5.77296 4.73239C5.99611 4.20657 6.21926 3.65153 6.4982 3.15492C6.77714 2.62909 7.08398 2.13248 7.39081 1.69429C7.4187 1.63586 7.4466 1.57744 7.50239 1.51901C7.53028 1.4898 7.55817 1.40216 7.61396 1.34374ZM16.1495 3.50547V3.47625C15.4522 2.92122 14.8385 2.45381 14.2248 2.16169C13.6112 1.86956 12.9975 1.57744 12.4396 1.34374C12.8859 1.81114 13.2764 2.39539 13.5275 2.95043C13.8064 3.53468 14.0854 4.14814 14.3085 4.73239C14.4201 4.67397 14.5596 4.61554 14.7269 4.49869C14.8664 4.41105 15.0617 4.32342 15.229 4.23578C15.3964 4.11893 15.5359 4.00208 15.7032 3.88523C15.8706 3.73917 16.038 3.62232 16.1495 3.50547ZM15.6753 10.0199H18.8831C18.8831 8.93899 18.66 7.91655 18.2416 6.8649C17.8511 5.84247 17.2932 4.9953 16.5958 4.26499V4.23578C16.4564 4.46948 16.2611 4.67397 16.0658 4.82003C15.8427 4.96609 15.6474 5.08294 15.4243 5.19979C15.2848 5.28743 15.1453 5.40428 15.0059 5.4627C14.8664 5.55034 14.6711 5.60877 14.5317 5.6964C14.6433 5.9301 14.7548 6.19302 14.8664 6.42672C14.9501 6.68963 15.0896 6.98175 15.1453 7.24467C15.3127 7.71207 15.4243 8.20868 15.5359 8.70529C15.6195 9.14348 15.6753 9.61088 15.6753 10.0199ZM5.5777 5.6964V5.66719C5.35455 5.55034 5.1035 5.4627 4.90824 5.34585C4.71299 5.19979 4.51773 5.05373 4.35036 4.93688C4.183 4.84924 4.01564 4.73239 3.87617 4.61554C3.7367 4.49869 3.62512 4.38184 3.51354 4.26499C2.7883 4.9953 2.25831 5.81325 1.92359 6.77727C1.56096 7.74128 1.30992 8.82214 1.19834 9.99064H4.6293C4.6293 9.17269 4.74088 8.38396 4.93614 7.59522C5.1035 6.77727 5.35455 6.1638 5.5777 5.6964ZM9.45497 9.99064V6.6312C9.23181 6.66042 8.95287 6.66042 8.70183 6.6312C8.42289 6.60199 8.14395 6.51435 7.8929 6.42672C7.66975 6.36829 7.39081 6.30987 7.16766 6.22223C6.91661 6.1638 6.66557 6.04695 6.47031 5.9301C6.30294 6.22223 6.16347 6.57278 6.0519 6.95254C5.91243 7.30309 5.82875 7.68285 5.74506 8.0334C5.68928 8.38396 5.66138 8.76372 5.63349 9.08506C5.60559 9.40639 5.5777 9.72773 5.5777 9.99064H9.45497ZM10.6265 6.68963V9.99064H14.7548C14.7548 9.81537 14.7548 9.61088 14.7269 9.37718C14.6711 9.17269 14.6433 8.90978 14.6154 8.67608C14.5317 8.32553 14.448 7.94577 14.3364 7.59522C14.2248 7.27388 14.1133 6.95254 13.9738 6.68963C13.918 6.54357 13.8622 6.36829 13.8064 6.25144C13.7227 6.10538 13.6391 6.01774 13.5833 5.9301C13.2764 6.1638 12.858 6.30987 12.3559 6.42672C11.8817 6.54357 11.3239 6.66042 10.8218 6.68963H10.6265ZM4.6293 10.9547H1.19834C1.19834 11.4513 1.28202 12.0063 1.42149 12.6782C1.56096 13.3793 1.8399 14.022 2.14674 14.7231C2.28621 15.0736 2.45357 15.4242 2.62094 15.7747C2.81619 16.0961 3.03935 16.4466 3.2625 16.7679C3.42986 16.6511 3.59723 16.5635 3.7367 16.4758C3.90406 16.3882 4.09932 16.2713 4.26668 16.1837C4.46194 16.0961 4.6572 16.0084 4.88035 15.8916C5.07561 15.8039 5.32665 15.6871 5.5777 15.5702C5.35455 14.8399 5.1035 14.1388 4.93614 13.3501C4.74088 12.5906 4.6293 11.831 4.6293 10.9839V10.9547ZM9.45497 14.3725V10.9547H5.5777C5.5777 11.1884 5.60559 11.5389 5.66138 11.8895C5.68928 12.24 5.77296 12.6198 5.82875 12.9995C5.94032 13.4085 6.024 13.8175 6.13558 14.168C6.24716 14.5186 6.35873 14.8107 6.47031 15.0736C6.9724 14.8691 7.47449 14.7231 7.80922 14.6354C8.17184 14.5186 8.50657 14.4309 8.8413 14.4017H9.14813C9.25971 14.3725 9.37128 14.3725 9.45497 14.3725ZM10.6265 10.9547V14.3433C10.8218 14.3725 11.0449 14.4017 11.2681 14.4309C11.5191 14.4602 11.826 14.5186 12.077 14.577L12.4954 14.6646C12.6349 14.7231 12.8022 14.7523 12.9417 14.7815C13.1091 14.8399 13.2764 14.8691 13.4438 14.9276C13.5833 14.986 13.7227 15.0152 13.8343 15.0736C14.1969 14.1096 14.4201 13.3209 14.5596 12.649C14.699 12.0063 14.7548 11.4513 14.7548 10.9839V10.9547H10.6265ZM18.8831 10.9839V10.9547H15.6753V11.1299C15.6474 11.685 15.5638 12.3276 15.4522 12.9995C15.3406 13.6422 15.0896 14.4017 14.7548 15.3365C15.2011 15.5702 15.6195 15.8039 15.9543 16.0376C16.289 16.2713 16.5958 16.5342 16.819 16.7679C17.2932 16.2713 17.7116 15.5994 18.0742 14.7231C18.4368 13.8759 18.6879 12.9995 18.8274 12.0647C18.8552 11.8895 18.8552 11.7142 18.8831 11.5389V10.9839ZM9.45497 19.8645V15.3073C8.75762 15.4242 8.17184 15.5702 7.72554 15.6871C7.27923 15.8039 6.94451 15.9208 6.72135 16.0376C6.88872 16.4758 7.05608 16.8556 7.22345 17.2061C7.39081 17.5275 7.58607 17.878 7.75343 18.1701C7.80922 18.287 7.9208 18.4038 8.00448 18.5499C8.08816 18.6668 8.14395 18.8128 8.22763 18.9297C8.31131 19.0757 8.39499 19.251 8.47868 19.4263C8.59025 19.5723 8.67393 19.7476 8.78551 19.8645H9.45497ZM10.6265 19.8645H11.2681C11.5191 19.66 11.7702 19.3679 11.9654 19.0465C12.1886 18.7252 12.4396 18.3454 12.607 18.0241C12.8022 17.6443 12.9975 17.2938 13.1649 16.9432C13.3322 16.5927 13.4717 16.2713 13.5833 16.0376C13.2764 15.9208 12.858 15.8039 12.4396 15.6871C12.0212 15.5702 11.4354 15.4534 10.6265 15.3365V19.8645ZM16.1495 17.469V17.4398C16.0937 17.3522 15.9822 17.2353 15.8985 17.1477C15.8148 17.0601 15.6753 16.9432 15.5359 16.8556C15.4243 16.7679 15.2848 16.6803 15.1174 16.5927C14.9501 16.505 14.7269 16.3882 14.5317 16.2713C14.4201 16.505 14.2248 16.914 13.9459 17.469C13.6949 18.0241 13.2486 18.696 12.6907 19.4263C13.388 19.3094 14.0017 19.0465 14.5596 18.696C15.1732 18.3746 15.7032 17.9364 16.1495 17.469ZM5.77296 16.5342V16.505C5.5777 16.6219 5.27087 16.7679 4.96403 16.914C4.6293 17.0601 4.26668 17.2353 3.93195 17.469C4.12721 17.6443 4.32247 17.8196 4.48983 17.9364C4.6572 18.0825 4.85246 18.1994 5.01982 18.3162C5.32665 18.5207 5.68928 18.7252 6.0519 18.9005C6.41452 19.0757 6.86082 19.251 7.4187 19.4263C7.22345 19.1926 7.08398 18.9005 6.94451 18.6668C6.80504 18.4331 6.63767 18.1994 6.4982 17.9657C6.35873 17.732 6.24716 17.469 6.13558 17.2353C5.99611 17.0016 5.88453 16.7679 5.77296 16.5342Z" fill="#8C94A5"/>
</g>
<defs>
<clipPath id="clip0">
<rect width="20" height="20.6532" fill="white" transform="translate(0.0546875 0.292969)"/>
</clipPath>
</defs>
</svg>
