<svg width="14" height="18" viewBox="0 0 14 18" fill="none" xmlns="http://www.w3.org/2000/svg">
<path fill-rule="evenodd" clip-rule="evenodd" d="M7.00425 0.666748C4.55923 0.666748 2.57714 2.65728 2.57714 5.11273C2.57714 7.56817 4.55923 9.55871 7.00425 9.55871C9.44927 9.55871 11.4313 7.56817 11.4313 5.11273C11.4313 2.65728 9.44927 0.666748 7.00425 0.666748ZM7.00422 1.87314C8.7858 1.87314 10.2301 3.32355 10.2301 5.11273C10.2301 6.9019 8.7858 8.35232 7.00422 8.35232C5.22264 8.35232 3.77839 6.9019 3.77839 5.11273C3.77839 3.32355 5.22264 1.87314 7.00422 1.87314ZM5.19236 11.3508C4.54426 11.3958 3.88916 11.4883 3.24298 11.6268C1.9958 11.8837 0.998028 12.397 0.57335 13.25C0.413174 13.5836 0.332642 13.9407 0.334001 14.3023C0.333521 14.6613 0.4134 15.019 0.567833 15.3461C0.975604 16.1893 1.85715 16.6665 3.04752 16.931L3.26076 16.9755C3.88939 17.1173 4.54469 17.2128 5.20437 17.2576C5.26056 17.2741 5.39446 17.2894 5.54062 17.2969L5.66083 17.3014C5.72265 17.3028 5.7928 17.3032 5.89732 17.3032C6.84552 17.3553 7.8285 17.3401 8.80691 17.2568C9.32832 17.2212 9.85323 17.153 10.3738 17.0531L10.7632 16.9722C12.0486 16.7186 13.0111 16.2364 13.4328 15.3471C13.7454 14.6868 13.7454 13.9207 13.433 13.2607C13.0123 12.3736 12.0621 11.8954 10.7535 11.6258C10.24 11.5162 9.71832 11.4351 9.19288 11.3833L8.80874 11.3508C7.60559 11.2447 6.3955 11.2447 5.19236 11.3508ZM8.70359 12.5526L8.71416 12.5534C9.31719 12.5959 9.91655 12.6805 10.5078 12.8067C11.4799 13.007 12.1395 13.339 12.3482 13.7791C12.5053 14.1109 12.5053 14.4966 12.3481 14.8287C12.1531 15.24 11.5606 15.5577 10.7044 15.7518L10.5169 15.7915C9.91395 15.9261 9.31658 16.0128 8.71525 16.054C7.78224 16.1333 6.85475 16.1477 5.9296 16.0976L5.60159 16.092C5.51054 16.0874 5.4338 16.0786 5.36268 16.0643C4.79956 16.0218 4.29284 15.9546 3.80085 15.857L3.50708 15.7948C2.53205 15.6037 1.86658 15.2703 1.65082 14.8242C1.57532 14.6642 1.535 14.4837 1.53524 14.3009C1.53456 14.1191 1.57436 13.9426 1.65161 13.7816C1.8614 13.3604 2.56662 12.9976 3.489 12.8076C4.08457 12.68 4.68364 12.5954 5.2864 12.5535C6.43065 12.4526 7.57039 12.4526 8.70359 12.5526Z" fill="#200E32"/>
</svg>
