<svg width="28" height="28" viewBox="0 0 28 28" fill="none" xmlns="http://www.w3.org/2000/svg">
<path fill-rule="evenodd" clip-rule="evenodd" d="M8.4509 22.332C8.94324 22.332 9.3434 22.7322 9.3434 23.2245C9.3434 23.7169 8.94324 24.1159 8.4509 24.1159C7.95857 24.1159 7.55957 23.7169 7.55957 23.2245C7.55957 22.7322 7.95857 22.332 8.4509 22.332Z" stroke="#222222" stroke-width="2" stroke-linecap="round" stroke-linejoin="round"/>
<path fill-rule="evenodd" clip-rule="evenodd" d="M21.579 22.332C22.0714 22.332 22.4715 22.7322 22.4715 23.2245C22.4715 23.7169 22.0714 24.1159 21.579 24.1159C21.0867 24.1159 20.6865 23.7169 20.6865 23.2245C20.6865 22.7322 21.0867 22.332 21.579 22.332Z" stroke="#222222" stroke-width="2" stroke-linecap="round" stroke-linejoin="round"/>
<path d="M3 3L5.42667 3.42L6.55017 16.8052C6.64117 17.896 7.55233 18.7337 8.64667 18.7337H21.3773C22.4227 18.7337 23.3093 17.966 23.4598 16.93L24.567 9.279C24.7035 8.33517 23.972 7.4905 23.0188 7.4905H5.81633" stroke="#222222" stroke-width="2" stroke-linecap="round" stroke-linejoin="round"/>
<path d="M16.2715 11.8024H19.5066" stroke="#222222" stroke-width="2" stroke-linecap="round" stroke-linejoin="round"/>
</svg>
