<svg width="18" height="18" viewBox="0 0 18 18" fill="none" xmlns="http://www.w3.org/2000/svg">
<path d="M8.25 0.40725C8.4975 0.3855 8.74725 0.375 9 0.375C13.7633 0.375 17.625 4.23675 17.625 9C17.625 9.25275 17.6145 9.5025 17.5928 9.75H16.4633C16.0868 13.5398 12.8888 16.5 9 16.5C4.85775 16.5 1.5 13.1423 1.5 9C1.5 5.11125 4.46025 1.91325 8.25 1.5375V0.4065V0.40725ZM8.25 9.75V3.0465C6.73703 3.23901 5.35414 4.0004 4.38239 5.17591C3.41064 6.35143 2.92296 7.85285 3.01847 9.37502C3.11397 10.8972 3.7855 12.3259 4.89656 13.3707C6.00762 14.4155 7.47484 14.9981 9 15C10.4615 15 11.8727 14.4666 12.9688 13.5C14.0649 12.5334 14.7707 11.2 14.9535 9.75H8.25ZM16.086 8.25C15.9141 6.62843 15.1913 5.11485 14.0382 3.96179C12.8852 2.80874 11.3716 2.08594 9.75 1.914V8.25H16.086Z" fill="#222222"/>
</svg>
