<svg width="18" height="18" viewBox="0 0 18 18" fill="none" xmlns="http://www.w3.org/2000/svg">
<path d="M8.24987 11.9505C6.83682 11.7589 5.54923 11.0379 4.6475 9.93324C3.74578 8.82856 3.29719 7.42268 3.39246 5.99988C3.48773 4.57709 4.11975 3.24356 5.16071 2.26898C6.20167 1.29439 7.57389 0.751466 8.99987 0.750003C10.4276 0.748626 11.8024 1.29021 12.8456 2.26495C13.8888 3.23969 14.5223 4.57465 14.6177 5.99918C14.7131 7.42372 14.2632 8.83122 13.3593 9.93635C12.4554 11.0415 11.165 11.7615 9.74987 11.9505V13.5H13.4999V15H9.74987V18H8.24987V15H4.49987V13.5H8.24987V11.9505ZM8.99987 10.5C10.0939 10.5 11.1431 10.0654 11.9167 9.29182C12.6903 8.51823 13.1249 7.46902 13.1249 6.375C13.1249 5.28098 12.6903 4.23177 11.9167 3.45819C11.1431 2.6846 10.0939 2.25 8.99987 2.25C7.90585 2.25 6.85664 2.6846 6.08305 3.45819C5.30947 4.23177 4.87487 5.28098 4.87487 6.375C4.87487 7.46902 5.30947 8.51823 6.08305 9.29182C6.85664 10.0654 7.90585 10.5 8.99987 10.5Z" fill="#222222"/>
</svg>
