<svg width="40" height="40" viewBox="0 0 40 40" fill="none" xmlns="http://www.w3.org/2000/svg">
<path d="M14.7463 20.5233V26.765" stroke="#222222" stroke-width="1.5" stroke-linecap="round" stroke-linejoin="round"/>
<path d="M17.931 23.6445H11.5625" stroke="#222222" stroke-width="1.5" stroke-linecap="round" stroke-linejoin="round"/>
<path d="M25.6099 20.7134H25.4316" stroke="#222222" stroke-width="1.5" stroke-linecap="round" stroke-linejoin="round"/>
<path d="M28.6324 26.671H28.454" stroke="#222222" stroke-width="1.5" stroke-linecap="round" stroke-linejoin="round"/>
<path d="M13.4531 3.33333C13.4531 4.56747 14.4739 5.56793 15.7332 5.56793H17.494C19.4367 5.57486 21.0103 7.11709 21.0191 9.02109V10.1462" stroke="#222222" stroke-width="1.5" stroke-linecap="round" stroke-linejoin="round"/>
<path fill-rule="evenodd" clip-rule="evenodd" d="M27.3802 36.6044C22.3715 36.6892 17.4547 36.6857 12.6209 36.6044C7.25551 36.6044 3.33301 32.7773 3.33301 27.5188V19.7695C3.33301 14.511 7.25551 10.684 12.6209 10.684C17.4812 10.6009 22.4016 10.6026 27.3802 10.684C32.7456 10.684 36.6663 14.5128 36.6663 19.7695V27.5188C36.6663 32.7773 32.7456 36.6044 27.3802 36.6044Z" stroke="#222222" stroke-width="1.5" stroke-linecap="round" stroke-linejoin="round"/>
</svg>
