<svg width="18" height="18" viewBox="0 0 18 18" fill="none" xmlns="http://www.w3.org/2000/svg">
<path fill-rule="evenodd" clip-rule="evenodd" d="M9 0.28125C6.67005 0.28125 4.78125 2.17005 4.78125 4.5V6.75234C3.74679 6.76189 3.14377 6.81038 2.66065 7.05654C2.13145 7.32619 1.70119 7.75645 1.43154 8.28565C1.125 8.88728 1.125 9.67485 1.125 11.25V12.9375C1.125 14.5126 1.125 15.3002 1.43154 15.9018C1.70119 16.4311 2.13145 16.8613 2.66065 17.131C3.26228 17.4375 4.04985 17.4375 5.625 17.4375H12.375C13.9501 17.4375 14.7377 17.4375 15.3393 17.131C15.8686 16.8613 16.2988 16.4311 16.5685 15.9018C16.875 15.3002 16.875 14.5126 16.875 12.9375V11.25C16.875 9.67485 16.875 8.88728 16.5685 8.28565C16.2988 7.75645 15.8686 7.32619 15.3393 7.05654C14.8562 6.81038 14.2532 6.76189 13.2188 6.75234V4.5C13.2188 2.17005 11.33 0.28125 9 0.28125ZM11.5312 6.75V4.5C11.5312 3.10203 10.398 1.96875 9 1.96875C7.60203 1.96875 6.46875 3.10203 6.46875 4.5V6.75H11.5312ZM9.84375 12.7117C10.3481 12.42 10.6875 11.8746 10.6875 11.25C10.6875 10.318 9.93198 9.5625 9 9.5625C8.06802 9.5625 7.3125 10.318 7.3125 11.25C7.3125 11.8746 7.65185 12.42 8.15625 12.7117V14.0625C8.15625 14.5285 8.53401 14.9062 9 14.9062C9.46599 14.9062 9.84375 14.5285 9.84375 14.0625V12.7117Z" fill="#606877"/>
</svg>
