<svg width="40" height="40" viewBox="0 0 40 40" fill="none" xmlns="http://www.w3.org/2000/svg">
<path fill-rule="evenodd" clip-rule="evenodd" d="M27.225 4.58366H12.7766C7.74163 4.58366 4.58496 8.14866 4.58496 13.1937V26.807C4.58496 31.852 7.72496 35.417 12.7766 35.417H27.2233C32.275 35.417 35.4183 31.852 35.4183 26.807V13.1937C35.4183 8.14866 32.275 4.58366 27.225 4.58366Z" stroke="#222222" stroke-width="1.5" stroke-linecap="round" stroke-linejoin="round"/>
<path d="M12.5348 21.9957C11.4331 21.9957 10.5381 21.1007 10.5381 20.0007C10.5381 18.9007 11.4331 18.004 12.5348 18.004C13.6364 18.004 14.5314 18.9007 14.5314 20.0007C14.5314 21.1007 13.6364 21.9957 12.5348 21.9957Z" fill="#222222"/>
<path d="M20.0006 21.9957C18.8989 21.9957 18.0039 21.1007 18.0039 20.0007C18.0039 18.9007 18.8989 18.004 20.0006 18.004C21.1022 18.004 21.9972 18.9007 21.9972 20.0007C21.9972 21.1007 21.1022 21.9957 20.0006 21.9957Z" fill="#222222"/>
<path d="M27.4654 21.9957C26.3637 21.9957 25.4688 21.1007 25.4688 20.0007C25.4688 18.9007 26.3637 18.004 27.4654 18.004C28.5671 18.004 29.4621 18.9007 29.4621 20.0007C29.4621 21.1007 28.5671 21.9957 27.4654 21.9957Z" fill="#222222"/>
</svg>
