<svg width="32" height="34" viewBox="0 0 32 34" fill="none" xmlns="http://www.w3.org/2000/svg">
<path fill-rule="evenodd" clip-rule="evenodd" d="M30.6774 9.70595L29.64 7.9058C28.7624 6.3826 26.8174 5.85713 25.2922 6.73112V6.73112C24.5661 7.15884 23.6997 7.28018 22.8841 7.06841C22.0685 6.85663 21.3706 6.32912 20.9443 5.60221C20.6701 5.14018 20.5228 4.61392 20.5172 4.07666V4.07666C20.5419 3.2153 20.2169 2.3806 19.6163 1.76271C19.0157 1.14482 18.1905 0.796368 17.3288 0.796723H15.2388C14.3945 0.796713 13.5851 1.13312 12.9896 1.7315C12.3941 2.32989 12.0616 3.14092 12.0656 3.98513V3.98513C12.0406 5.72814 10.6204 7.12795 8.8772 7.12777C8.33995 7.12219 7.81369 6.97484 7.35165 6.70061V6.70061C5.82636 5.82662 3.88145 6.35209 3.00382 7.87529L1.89017 9.70595C1.01361 11.2273 1.53193 13.1709 3.04959 14.0538V14.0538C4.0361 14.6233 4.64381 15.6759 4.64381 16.815C4.64381 17.9541 4.0361 19.0067 3.04959 19.5763V19.5763C1.53385 20.4532 1.01497 22.3921 1.89017 23.9088V23.9088L2.9428 25.7243C3.354 26.4662 4.04393 27.0138 4.85991 27.2457C5.6759 27.4776 6.55066 27.3748 7.29063 26.96V26.96C8.01806 26.5355 8.88491 26.4192 9.69849 26.6369C10.5121 26.8546 11.205 27.3883 11.6232 28.1194C11.8974 28.5814 12.0448 29.1077 12.0504 29.6449V29.6449C12.0504 31.4058 13.4779 32.8333 15.2388 32.8333H17.3288C19.0837 32.8334 20.5088 31.4151 20.5172 29.6602V29.6602C20.5131 28.8133 20.8477 28 21.4465 27.4011C22.0454 26.8023 22.8587 26.4677 23.7056 26.4718C24.2415 26.4861 24.7656 26.6329 25.2311 26.8989V26.8989C26.7524 27.7755 28.6961 27.2572 29.579 25.7395V25.7395L30.6774 23.9088C31.1025 23.1791 31.2192 22.3099 31.0016 21.4939C30.784 20.6778 30.25 19.9822 29.5179 19.561V19.561C28.7859 19.1399 28.2519 18.4442 28.0343 17.6282C27.8167 16.8121 27.9334 15.943 28.3585 15.2132C28.635 14.7305 29.0352 14.3303 29.5179 14.0538V14.0538C31.0265 13.1714 31.5436 11.2391 30.6774 9.72121V9.72121V9.70595Z" stroke="#222222" stroke-width="1.5" stroke-linecap="round" stroke-linejoin="round"/>
<circle cx="16.292" cy="16.815" r="4.39359" stroke="#222222" stroke-width="1.5" stroke-linecap="round" stroke-linejoin="round"/>
</svg>
