<svg width="18" height="18" viewBox="0 0 18 18" fill="none" xmlns="http://www.w3.org/2000/svg">
<path fill-rule="evenodd" clip-rule="evenodd" d="M9.49122 1C11.8429 1 13.7494 2.90645 13.7494 5.25816V7.62468C14.717 7.62959 15.2605 7.6624 15.6908 7.88165C16.1359 8.10846 16.4978 8.47035 16.7246 8.91548C16.9824 9.42152 16.9824 10.084 16.9824 11.4088V14.0899C16.9824 15.4148 16.9824 16.0772 16.7246 16.5833C16.4978 17.0284 16.1359 17.3903 15.6908 17.6171C15.1847 17.875 14.5223 17.875 13.1974 17.875H5.78504C4.46015 17.875 3.79771 17.875 3.29167 17.6171C2.84654 17.3903 2.48464 17.0284 2.25784 16.5833C2 16.0772 2 15.4148 2 14.0899V11.4089C2 10.084 2 9.42152 2.25784 8.91548C2.48464 8.47035 2.84654 8.10846 3.29167 7.88165C3.79771 7.62381 4.46015 7.62381 5.78504 7.62381H12.33V5.25816C12.33 3.69035 11.059 2.41939 9.49122 2.41939C7.9234 2.41939 6.65244 3.69035 6.65244 5.25816V5.33702C6.65244 5.72897 6.3347 6.04671 5.94275 6.04671C5.55079 6.04671 5.23305 5.72897 5.23305 5.33702V5.25816C5.23305 2.90644 7.1395 1 9.49122 1ZM10.2798 13.327C10.7512 13.0543 11.0683 12.5446 11.0683 11.9609C11.0683 11.0899 10.3622 10.3838 9.49121 10.3838C8.6202 10.3838 7.91411 11.0899 7.91411 11.9609C7.91411 12.5446 8.23127 13.0543 8.70266 13.327V14.7208C8.70266 15.1563 9.05571 15.5094 9.49121 15.5094C9.92671 15.5094 10.2798 15.1563 10.2798 14.7208V13.327Z" fill="#606877"/>
</svg>
