<svg width="40" height="40" viewBox="0 0 40 40" fill="none" xmlns="http://www.w3.org/2000/svg">
<g id="Iconly/Light/Volume Up">
<g id="Volume Up">
<path id="Stroke 1" fill-rule="evenodd" clip-rule="evenodd" d="M20.785 28.5698C20.6658 29.5462 20.6308 30.507 20.3643 31.5009C19.9401 32.9175 18.8304 33.7839 17.633 33.749C17.065 33.763 16.2656 33.4171 15.7274 32.9647L9.44967 27.8658H5.9523C4.26584 27.8658 3.12985 26.7164 2.9002 24.8229C2.57238 22.4927 2.60393 18.283 2.9002 15.9056C3.12985 14.2636 4.26584 12.9693 5.9523 12.9693H9.44967L15.5977 7.95775C16.1359 7.50184 17.065 7.07213 17.633 7.08436C18.8304 7.04942 19.9401 7.91757 20.3643 9.33247C20.601 10.2373 20.6658 11.2889 20.785 12.2653C21.0708 14.5484 21.0708 26.2867 20.785 28.5698Z" stroke="#222222" stroke-width="1.5" stroke-linecap="round" stroke-linejoin="round"/>
<path id="Stroke 3" d="M27.4053 11.7675C28.9186 13.9442 29.8269 16.8642 29.8269 20.1142C29.8269 23.3642 28.9186 26.2825 27.4053 28.4592" stroke="#222222" stroke-width="1.5" stroke-linecap="round" stroke-linejoin="round"/>
<path id="Stroke 5" d="M33.123 6.66667C35.5614 10.1733 37.0247 14.8767 37.0247 20.1133C37.0247 25.35 35.5614 30.055 33.123 33.5617" stroke="#222222" stroke-width="1.5" stroke-linecap="round" stroke-linejoin="round"/>
</g>
</g>
</svg>
