<svg width="20" height="20" viewBox="0 0 20 20" fill="none" xmlns="http://www.w3.org/2000/svg">
<path fill-rule="evenodd" clip-rule="evenodd" d="M5.3304 0.000488281H14.6694C18.0704 0.000488281 19.9904 1.92949 20.0004 5.33049V14.6705C20.0004 18.0705 18.0704 20.0005 14.6694 20.0005H5.3304C1.9294 20.0005 0.000396729 18.0705 0.000396729 14.6705V5.33049C0.000396729 1.92949 1.9294 0.000488281 5.3304 0.000488281ZM10.0494 15.8605C10.4804 15.8605 10.8394 15.5405 10.8794 15.1105V4.92049C10.9194 4.61049 10.7704 4.29949 10.5004 4.13049C10.2194 3.96049 9.8794 3.96049 9.6104 4.13049C9.3394 4.29949 9.1904 4.61049 9.2194 4.92049V15.1105C9.2704 15.5405 9.6294 15.8605 10.0494 15.8605ZM14.6504 15.8605C15.0704 15.8605 15.4294 15.5405 15.4804 15.1105V11.8305C15.5094 11.5095 15.3604 11.2105 15.0894 11.0405C14.8204 10.8705 14.4804 10.8705 14.2004 11.0405C13.9294 11.2105 13.7804 11.5095 13.8204 11.8305V15.1105C13.8604 15.5405 14.2194 15.8605 14.6504 15.8605ZM6.2194 15.1105C6.1794 15.5405 5.8204 15.8605 5.3894 15.8605C4.9594 15.8605 4.5994 15.5405 4.5604 15.1105V8.20049C4.5304 7.88949 4.6794 7.58049 4.9504 7.41049C5.2194 7.24049 5.5604 7.24049 5.8304 7.41049C6.0994 7.58049 6.2504 7.88949 6.2194 8.20049V15.1105Z" fill="white"/>
</svg>
