<svg width="16" height="16" viewBox="0 0 16 16" fill="none" xmlns="http://www.w3.org/2000/svg">
<path d="M2.59609 4.29193C2.59609 3.35518 3.35584 2.59543 4.29184 2.59543H5.06359C5.51059 2.59543 5.94034 2.41843 6.25834 2.10268L6.79759 1.56268C7.45834 0.898932 8.53234 0.895932 9.19609 1.55668L9.20284 1.56268L9.74284 2.10268C10.0601 2.41843 10.4898 2.59543 10.9376 2.59543H11.7086C12.6453 2.59543 13.4051 3.35518 13.4051 4.29193V5.06218C13.4051 5.51068 13.5821 5.93968 13.8978 6.25768L14.4378 6.79768C15.1016 7.45843 15.1053 8.53168 14.4446 9.19618L14.4378 9.20293L13.8978 9.74293C13.5821 10.0594 13.4051 10.4899 13.4051 10.9369V11.7087C13.4051 12.6454 12.6453 13.4044 11.7086 13.4044H10.9376C10.4898 13.4044 10.0601 13.5822 9.74284 13.8979L9.20284 14.4372C8.54284 15.1017 7.46884 15.1047 6.80434 14.4439C6.80209 14.4417 6.79984 14.4394 6.79759 14.4372L6.25834 13.8979C5.94034 13.5822 5.51059 13.4044 5.06359 13.4044H4.29184C3.35584 13.4044 2.59609 12.6454 2.59609 11.7087V10.9369C2.59609 10.4899 2.41834 10.0594 2.10259 9.74293L1.56334 9.20293C0.898839 8.54218 0.895839 7.46818 1.55659 6.80443L1.56334 6.79768L2.10259 6.25768C2.41834 5.93968 2.59609 5.51068 2.59609 5.06218V4.29193" stroke="#8C94A5" stroke-width="1.2" stroke-linecap="round" stroke-linejoin="round"/>
<path d="M6.07324 9.92733L9.92824 6.07233" stroke="#8C94A5" stroke-width="1.2" stroke-linecap="round" stroke-linejoin="round"/>
<path d="M9.92529 10.4919C9.77529 10.4919 9.63279 10.4319 9.52779 10.3269C9.47529 10.2744 9.43779 10.2069 9.40779 10.1394C9.37779 10.0719 9.36279 10.0051 9.36279 9.92939C9.36279 9.85439 9.37779 9.77939 9.40779 9.71189C9.43779 9.64439 9.47529 9.58439 9.52779 9.53189C9.73779 9.32189 10.1128 9.32189 10.3228 9.53189C10.3753 9.58439 10.4203 9.64439 10.4503 9.71189C10.4728 9.77939 10.4878 9.85439 10.4878 9.92939C10.4878 10.0051 10.4728 10.0719 10.4503 10.1394C10.4203 10.2069 10.3753 10.2744 10.3228 10.3269C10.2178 10.4319 10.0753 10.4919 9.92529 10.4919Z" fill="#8C94A5"/>
<path d="M6.07031 6.6371C5.99531 6.6371 5.92781 6.62135 5.86031 6.59135C5.79281 6.56135 5.72531 6.52461 5.67281 6.47211C5.62031 6.41211 5.58281 6.35211 5.55281 6.28461C5.52281 6.21636 5.50781 6.14961 5.50781 6.07461C5.50781 5.99886 5.52281 5.92461 5.55281 5.85711C5.58281 5.78961 5.62031 5.72211 5.67281 5.67711C5.89031 5.46636 6.25781 5.46636 6.46781 5.67711C6.57281 5.78136 6.63281 5.92461 6.63281 6.07461C6.63281 6.14961 6.62531 6.21636 6.59531 6.28461C6.56531 6.35211 6.52031 6.41211 6.46781 6.47211C6.41531 6.52461 6.35531 6.56135 6.28781 6.59135C6.22031 6.62135 6.14531 6.6371 6.07031 6.6371Z" fill="#8C94A5"/>
</svg>
