<svg width="13" height="13" viewBox="0 0 13 13" fill="none" xmlns="http://www.w3.org/2000/svg">
<path fill-rule="evenodd" clip-rule="evenodd" d="M1.58012 0.25H11.4199C12.1548 0.25 12.75 0.863158 12.75 1.62016V2.57735C12.75 2.94458 12.6065 3.29723 12.3517 3.55442L8.28604 7.66689C8.21589 7.73848 8.12066 7.77825 8.0222 7.77759L4.61808 7.76698C4.51448 7.76698 4.41602 7.72257 4.34524 7.64501L0.609073 3.53586C0.378057 3.28198 0.25 2.94657 0.25 2.59856V1.62082C0.25 0.863821 0.845238 0.25 1.58012 0.25ZM4.80005 8.89014L7.83416 8.89942C8.02335 8.90008 8.1765 9.05851 8.1765 9.25273V10.9596C8.1765 11.1545 8.06582 11.3308 7.89336 11.4124L5.13918 12.7056C5.07483 12.7355 5.00662 12.75 4.93841 12.75C4.84767 12.75 4.75694 12.7235 4.67779 12.6712C4.53943 12.5797 4.45578 12.4219 4.45578 12.2529V9.24345C4.45578 9.0479 4.61022 8.88948 4.80005 8.89014Z" fill="#30303A"/>
</svg>
