<svg width="24" height="24" viewBox="0 0 24 24" fill="none" xmlns="http://www.w3.org/2000/svg">
<path d="M12.0001 1.71436C6.31528 1.71436 1.71436 6.31468 1.71436 12.0001C1.71436 17.6849 6.31468 22.2858 12.0001 22.2858C17.6849 22.2858 22.2858 17.6855 22.2858 12.0001C22.2858 6.31528 17.6855 1.71436 12.0001 1.71436ZM12.0001 20.9144C7.08474 20.9144 3.08577 16.9154 3.08577 12.0001C3.08577 7.0847 7.08474 3.08577 12.0001 3.08577C16.9154 3.08577 20.9144 7.08474 20.9144 12.0001C20.9144 16.9154 16.9154 20.9144 12.0001 20.9144Z" fill="white" stroke="white" stroke-width="0.5"/>
<path d="M11.7387 14.2478C11.2517 14.2478 10.8574 14.6536 10.8574 15.1407C10.8574 15.6162 11.2401 16.0337 11.7387 16.0337C12.2374 16.0337 12.6317 15.6162 12.6317 15.1407C12.6317 14.6536 12.2258 14.2478 11.7387 14.2478Z" fill="white"/>
<path d="M11.8895 7.48706C10.324 7.48706 9.60498 8.41482 9.60498 9.04101C9.60498 9.4933 9.98772 9.70203 10.3008 9.70203C10.927 9.70203 10.6719 8.8091 11.8548 8.8091C12.4346 8.8091 12.8985 9.06419 12.8985 9.59768C12.8985 10.2239 12.2491 10.5834 11.8664 10.9081C11.5301 11.198 11.0894 11.6735 11.0894 12.6708C11.0894 13.2738 11.2517 13.4478 11.7272 13.4478C12.2955 13.4478 12.4114 13.1927 12.4114 12.9723C12.4114 12.3694 12.423 12.0214 13.0608 11.5228C13.3739 11.2792 14.3596 10.4907 14.3596 9.40057C14.3596 8.31048 13.3739 7.48706 11.8895 7.48706Z" fill="white"/>
</svg>
