<svg width="20" height="20" viewBox="0 0 20 20" fill="none" xmlns="http://www.w3.org/2000/svg">
<g id="Iconly/Light/Call">
<g id="Call">
<path id="Call_2" fill-rule="evenodd" clip-rule="evenodd" d="M2.49259 4.06061C2.75619 3.62415 4.20857 2.03663 5.245 2.08456C5.55481 2.11023 5.82869 2.29765 6.05121 2.51503C6.56215 3.01396 8.02479 4.90101 8.10781 5.2981C8.30979 6.27201 7.14926 6.83341 7.50443 7.81502C8.40992 10.0307 9.97013 11.5908 12.1868 12.4954C13.1676 12.8506 13.729 11.6901 14.703 11.8929C15.0992 11.9759 16.9872 13.4385 17.4862 13.9494C17.7027 14.1711 17.891 14.4458 17.9167 14.7556C17.9552 15.8467 16.2692 17.3196 15.9405 17.5079C15.1651 18.0624 14.1535 18.053 12.9202 17.4796C9.47887 16.0479 3.9792 10.652 2.52084 7.08074C1.96282 5.85437 1.92431 4.83597 2.49259 4.06061Z" stroke="#484848" stroke-width="1.2" stroke-linecap="round" stroke-linejoin="round"/>
</g>
</g>
</svg>
