<svg width="62" height="62" viewBox="0 0 62 62" fill="none" xmlns="http://www.w3.org/2000/svg">
<circle cx="31" cy="31" r="31" fill="#F4F4F4"/>
<path fill-rule="evenodd" clip-rule="evenodd" d="M31.0059 16.1595C26.6517 16.1595 23.1219 19.7044 23.1219 24.0772C23.1219 28.45 26.6517 31.9948 31.0059 31.9948C35.3601 31.9948 38.8899 28.45 38.8899 24.0772C38.8899 19.7044 35.3601 16.1595 31.0059 16.1595ZM31.0058 18.3079C34.1785 18.3079 36.7505 20.8908 36.7505 24.0771C36.7505 27.2634 34.1785 29.8463 31.0058 29.8463C27.8331 29.8463 25.2611 27.2634 25.2611 24.0771C25.2611 20.8908 27.8331 18.3079 31.0058 18.3079ZM27.78 35.1863C26.6258 35.2664 25.4592 35.4312 24.3084 35.6778C22.0874 36.1353 20.3105 37.0494 19.5542 38.5684C19.269 39.1625 19.1255 39.7986 19.128 40.4425C19.1271 41.0819 19.2694 41.7187 19.5444 42.3014C20.2706 43.8029 21.8405 44.6527 23.9603 45.1237L24.3401 45.203C25.4596 45.4555 26.6266 45.6256 27.8014 45.7054C27.9014 45.7347 28.1399 45.762 28.4002 45.7753L28.6143 45.7833C28.7243 45.7859 28.8493 45.7865 29.0354 45.7865C30.724 45.8794 32.4746 45.8524 34.217 45.704C35.1455 45.6405 36.0803 45.5191 37.0073 45.3412L37.7008 45.1972C39.99 44.7456 41.704 43.8868 42.455 42.3031C43.0117 41.1272 43.0117 39.7628 42.4552 38.5875C41.7062 37.0078 40.0139 36.1561 37.6835 35.676C36.7691 35.4808 35.84 35.3364 34.9043 35.2442L34.2202 35.1863C32.0776 34.9973 29.9226 34.9973 27.78 35.1863ZM34.0329 37.3265L34.0517 37.328C35.1256 37.4036 36.193 37.5543 37.246 37.7791C38.977 38.1357 40.1518 38.7269 40.5234 39.5107C40.8033 40.1017 40.8033 40.7884 40.5232 41.38C40.1759 42.1123 39.1209 42.6781 37.596 43.0239L37.2621 43.0946C36.1884 43.3342 35.1245 43.4886 34.0537 43.562C32.3921 43.7033 30.7404 43.7288 29.0928 43.6397L28.5087 43.6297C28.3466 43.6214 28.2099 43.6058 28.0832 43.5804C27.0804 43.5047 26.178 43.3849 25.3018 43.2112L24.7787 43.1005C23.0423 42.7601 21.8572 42.1664 21.473 41.372C21.3385 41.087 21.2667 40.7655 21.2671 40.4399C21.2659 40.1162 21.3368 39.8019 21.4744 39.5153C21.848 38.7651 23.1039 38.1191 24.7465 37.7807C25.8071 37.5534 26.874 37.4027 27.9474 37.328C29.9851 37.1485 32.0148 37.1485 34.0329 37.3265Z" fill="#D3D3D3"/>
</svg>
