<svg width="22" height="22" viewBox="0 0 22 22" fill="none" xmlns="http://www.w3.org/2000/svg">
<path d="M0.1 11C0.1 4.98965 4.98965 0.1 11 0.1C17.0104 0.1 21.9 4.98965 21.9 11C21.9 17.0104 17.0104 21.9 11 21.9C4.98965 21.9 0.1 17.0104 0.1 11ZM20.2667 11C20.2667 5.87102 16.129 1.73333 11 1.73333C5.87102 1.73333 1.73333 5.87102 1.73333 11C1.73333 16.129 5.87102 20.2667 11 20.2667C16.129 20.2667 20.2667 16.129 20.2667 11ZM5.97344 7.80677C6.21255 7.56766 6.53685 7.43333 6.875 7.43333C7.21315 7.43333 7.53745 7.56766 7.77656 7.80677C8.01567 8.04588 8.15 8.37018 8.15 8.70833C8.15 9.04648 8.01567 9.37079 7.77656 9.60989C7.53745 9.849 7.21315 9.98333 6.875 9.98333C6.53685 9.98333 6.21255 9.849 5.97344 9.6099C5.73433 9.37079 5.6 9.04648 5.6 8.70833C5.6 8.37018 5.73433 8.04588 5.97344 7.80677ZM14.2234 7.80677C14.4625 7.56766 14.7868 7.43333 15.125 7.43333C15.4632 7.43333 15.7875 7.56766 16.0266 7.80677C16.2657 8.04588 16.4 8.37018 16.4 8.70833C16.4 9.04648 16.2657 9.37079 16.0266 9.60989C15.7875 9.849 15.4632 9.98333 15.125 9.98333C14.7868 9.98333 14.4625 9.849 14.2234 9.6099C13.9843 9.37079 13.85 9.04648 13.85 8.70833C13.85 8.37018 13.9843 8.04588 14.2234 7.80677ZM4.80665 14.7025L6.2085 13.8866C6.69519 14.6996 7.38129 15.3758 8.20254 15.8507C9.05281 16.3423 10.0178 16.6008 11 16.6C11.9822 16.6008 12.9472 16.3423 13.7975 15.8507C14.6187 15.3758 15.3048 14.6996 15.7915 13.8866L17.1934 14.7025C15.9311 16.814 13.6338 18.2333 11 18.2333C8.36618 18.2333 6.06887 16.814 4.80665 14.7025Z" fill="#8C94A5" stroke="white" stroke-width="0.2"/>
</svg>
