<svg width="71" height="71" viewBox="0 0 71 71" fill="none" xmlns="http://www.w3.org/2000/svg">
<path d="M65.5802 31.0625H62.126C61.9292 30.3502 61.5059 29.7214 60.92 29.2711C60.3342 28.8207 59.6176 28.5734 58.8787 28.5664H55.1914V19.5494C55.1956 19.3807 55.1548 19.214 55.0733 19.0663C54.9917 18.9185 54.8724 18.7952 54.7274 18.7088L28.7158 3.68479C28.5692 3.59957 28.4026 3.55469 28.233 3.55469C28.0635 3.55469 27.8969 3.59957 27.7503 3.68479L1.73063 18.7088C1.5834 18.7941 1.46128 18.9168 1.37655 19.0643C1.29183 19.2119 1.24751 19.3792 1.24805 19.5494V49.5975C1.24806 49.7679 1.29291 49.9353 1.37811 50.0829C1.4633 50.2304 1.58584 50.353 1.7334 50.4381L27.7557 65.4621C27.9033 65.5473 28.0707 65.5922 28.2411 65.5922C28.4159 65.5923 28.5878 65.5475 28.7403 65.4621L42.4336 57.5638V63.2735C42.4322 63.8171 42.5386 64.3556 42.7467 64.8578C42.9548 65.36 43.2605 65.8159 43.646 66.1992C44.0315 66.5824 44.4892 66.8854 44.9926 67.0906C45.496 67.2958 46.035 67.3991 46.5786 67.3945H65.5802C66.1251 67.3996 66.6658 67.2968 67.1709 67.0922C67.676 66.8875 68.1357 66.5849 68.5234 66.2019C68.9111 65.8189 69.2193 65.363 69.4301 64.8604C69.641 64.3578 69.7504 63.8185 69.752 63.2735V35.2479C69.7513 34.1404 69.312 33.0783 68.5302 32.2939C67.7483 31.5095 66.6876 31.0668 65.5802 31.0625ZM58.9132 30.5078C59.2869 30.5078 59.6453 30.6563 59.9096 30.9205C60.1738 31.1848 60.3223 31.5432 60.3223 31.9169V32.0109C60.3223 32.3846 60.1738 32.743 59.9096 33.0072C59.6453 33.2715 59.2869 33.4199 58.9132 33.4199H53.2723C52.8986 33.4199 52.5402 33.2715 52.276 33.0072C52.0117 32.743 51.8633 32.3846 51.8633 32.0109V31.9169C51.8633 31.5432 52.0117 31.1848 52.276 30.9205C52.5402 30.6563 52.8986 30.5078 53.2723 30.5078H58.9132ZM28.2411 5.6463L39.0539 11.889L14.9746 25.7912L4.16196 19.5484L28.2411 5.6463ZM27.3184 62.9401L3.18946 49.037V21.2286L27.3184 35.1317V62.9401ZM28.2411 33.4504L16.916 26.9119L40.9953 13.0099L52.3209 19.5484L28.2411 33.4504ZM42.4336 35.2479V55.3222L29.2598 62.9401V35.1317L53.25 21.2286V28.5664H53.2801C52.5412 28.5733 51.8246 28.8207 51.2387 29.271C50.6529 29.7214 50.2296 30.3502 50.0328 31.0625H46.5786C45.474 31.0679 44.4166 31.5118 43.6393 32.2967C42.862 33.0816 42.4283 34.1432 42.4336 35.2479ZM67.8106 63.2735C67.8092 63.5636 67.7503 63.8506 67.6371 64.1178C67.5239 64.385 67.3587 64.627 67.1512 64.8298C66.9437 65.0326 66.6979 65.1921 66.4282 65.2991C66.1585 65.4061 65.8703 65.4585 65.5802 65.4531H46.5786C46.2899 65.458 46.0032 65.4051 45.7352 65.2976C45.4672 65.1901 45.2234 65.0301 45.0181 64.827C44.8128 64.624 44.6502 64.382 44.5398 64.1152C44.4293 63.8484 44.3733 63.5622 44.375 63.2735V35.2479C44.3721 34.9558 44.4268 34.666 44.536 34.395C44.6452 34.1241 44.8068 33.8773 45.0115 33.6689C45.2161 33.4605 45.4599 33.2944 45.7288 33.1803C45.9977 33.0662 46.2865 33.0063 46.5786 33.0039H50.0707C50.2789 33.691 50.7041 34.2921 51.2828 34.7171C51.8614 35.1422 52.5622 35.3682 53.2801 35.3613H58.8787C59.5966 35.3682 60.2974 35.1422 60.876 34.7172C61.4546 34.2921 61.8798 33.691 62.088 33.0039H65.5802C66.1729 33.0076 66.7401 33.2457 67.158 33.6661C67.5758 34.0865 67.8104 34.6551 67.8106 35.2479V63.2735Z" fill="#616CF5"/>
<path d="M47.6961 45.0684H48.7121C48.9696 45.0684 49.2165 44.9661 49.3985 44.784C49.5806 44.602 49.6828 44.3551 49.6828 44.0977C49.6828 43.8402 49.5806 43.5933 49.3985 43.4113C49.2165 43.2292 48.9696 43.127 48.7121 43.127H48.6739V40.4922H51.3512C51.4121 40.6874 51.5354 40.8572 51.7021 40.9756C51.8688 41.094 52.0697 41.1544 52.2741 41.1477C52.5318 41.1484 52.7793 41.0468 52.9623 40.8653C53.1453 40.6837 53.2487 40.437 53.25 40.1792V39.5261C53.2478 39.267 53.1436 39.0193 52.9598 38.8367C52.7761 38.6542 52.5278 38.5514 52.2688 38.5508H47.6961C47.5687 38.5514 47.4428 38.5772 47.3254 38.6266C47.208 38.676 47.1015 38.748 47.012 38.8386C46.9225 38.9292 46.8518 39.0365 46.8038 39.1545C46.7558 39.2725 46.7316 39.3987 46.7324 39.5261V44.0988C46.7317 44.2258 46.756 44.3517 46.8041 44.4693C46.8522 44.5869 46.9231 44.6939 47.0126 44.784C47.1022 44.8741 47.2087 44.9456 47.3259 44.9944C47.4432 45.0432 47.569 45.0683 47.6961 45.0684Z" fill="#616CF5"/>
<path d="M47.7031 53.9434H52.2793C52.5367 53.9434 52.7836 53.8411 52.9657 53.659C53.1477 53.477 53.25 53.2301 53.25 52.9727V48.3965C53.25 48.139 53.1477 47.8921 52.9657 47.7101C52.7836 47.5281 52.5367 47.4258 52.2793 47.4258H47.7031C47.4457 47.4258 47.1988 47.5281 47.0167 47.7101C46.8347 47.8921 46.7324 48.139 46.7324 48.3965V52.9727C46.7324 53.2301 46.8347 53.477 47.0167 53.659C47.1988 53.8411 47.4457 53.9434 47.7031 53.9434ZM48.6738 49.3672H51.3086V52.002H48.6738V49.3672Z" fill="#616CF5"/>
<path d="M48.7123 60.877H48.6739V58.2422H51.2988C51.3038 58.4975 51.4087 58.7406 51.5909 58.9195C51.7731 59.0983 52.0182 59.1986 52.2735 59.1989C52.5288 59.1991 52.7741 59.0993 52.9566 58.9208C53.1392 58.7423 53.2445 58.4994 53.2501 58.2441V57.3088C53.2491 57.0463 53.1462 56.7945 52.9631 56.6065C52.7801 56.4184 52.5311 56.3088 52.2688 56.3008H47.6961C47.4356 56.3095 47.1889 56.4199 47.0088 56.6083C46.8287 56.7967 46.7295 57.0482 46.7325 57.3088V61.8815C46.7324 62.0068 46.7574 62.1309 46.8061 62.2464C46.8548 62.3619 46.9262 62.4664 47.0161 62.5538C47.106 62.6411 47.2125 62.7096 47.3293 62.755C47.4461 62.8005 47.5708 62.822 47.6961 62.8184H48.7123C48.9698 62.8184 49.2167 62.7161 49.3987 62.534C49.5807 62.352 49.683 62.1051 49.683 61.8477C49.683 61.5902 49.5807 61.3433 49.3987 61.1613C49.2167 60.9792 48.9698 60.877 48.7123 60.877Z" fill="#616CF5"/>
<path d="M54.5034 39.7423L51.6606 42.585L50.7958 41.7201C50.7057 41.63 50.5987 41.5585 50.4809 41.5097C50.3631 41.4609 50.2369 41.4358 50.1094 41.4358C49.9819 41.4358 49.8557 41.4609 49.7379 41.5097C49.6202 41.5585 49.5131 41.63 49.423 41.7201C49.3329 41.8103 49.2614 41.9173 49.2126 42.0351C49.1638 42.1529 49.1387 42.2791 49.1387 42.4066C49.1387 42.534 49.1638 42.6603 49.2126 42.7781C49.2614 42.8958 49.3329 43.0029 49.423 43.093L50.9743 44.6442C51.0645 44.7343 51.1715 44.8058 51.2892 44.8546C51.407 44.9034 51.5333 44.9285 51.6607 44.9285C51.7882 44.9285 51.9145 44.9034 52.0322 44.8546C52.15 44.8058 52.257 44.7343 52.3472 44.6442L55.8766 41.1147C56.0587 40.9326 56.161 40.6857 56.161 40.4283C56.161 40.1708 56.0587 39.9239 55.8766 39.7418C55.6946 39.5598 55.4477 39.4575 55.1902 39.4575C54.9328 39.4575 54.6858 39.5598 54.5038 39.7418L54.5034 39.7423Z" fill="#616CF5"/>
<path d="M54.5034 57.6656L51.6606 60.5084L50.7958 59.6435C50.7057 59.5533 50.5987 59.4818 50.4809 59.433C50.3631 59.3843 50.2369 59.3592 50.1094 59.3592C49.9819 59.3592 49.8557 59.3843 49.7379 59.433C49.6202 59.4818 49.5131 59.5533 49.423 59.6435C49.3329 59.7336 49.2614 59.8406 49.2126 59.9584C49.1638 60.0762 49.1387 60.2024 49.1387 60.3299C49.1387 60.4574 49.1638 60.5836 49.2126 60.7014C49.2614 60.8192 49.3329 60.9262 49.423 61.0163L50.9743 62.5675C51.0645 62.6577 51.1715 62.7292 51.2892 62.778C51.407 62.8268 51.5333 62.8519 51.6607 62.8519C51.7882 62.8519 51.9145 62.8268 52.0322 62.778C52.15 62.7292 52.257 62.6577 52.3472 62.5675L55.8766 59.038C56.0587 58.856 56.161 58.6091 56.161 58.3516C56.161 58.0942 56.0587 57.8472 55.8766 57.6652C55.6946 57.4831 55.4477 57.3809 55.1902 57.3809C54.9328 57.3809 54.6858 57.4831 54.5038 57.6652L54.5034 57.6656Z" fill="#616CF5"/>
<path d="M64.4626 40.9082H58.3657C58.1083 40.9082 57.8614 41.0105 57.6793 41.1925C57.4973 41.3746 57.395 41.6215 57.395 41.8789C57.395 42.1364 57.4973 42.3833 57.6793 42.5653C57.8614 42.7473 58.1083 42.8496 58.3657 42.8496H64.4626C64.72 42.8496 64.9669 42.7473 65.149 42.5653C65.331 42.3833 65.4333 42.1364 65.4333 41.8789C65.4333 41.6215 65.331 41.3746 65.149 41.1925C64.9669 41.0105 64.72 40.9082 64.4626 40.9082Z" fill="#616CF5"/>
<path d="M64.4626 49.7832H58.3657C58.1083 49.7832 57.8614 49.8855 57.6793 50.0675C57.4973 50.2496 57.395 50.4965 57.395 50.7539C57.395 51.0114 57.4973 51.2583 57.6793 51.4403C57.8614 51.6223 58.1083 51.7246 58.3657 51.7246H64.4626C64.72 51.7246 64.9669 51.6223 65.149 51.4403C65.331 51.2583 65.4333 51.0114 65.4333 50.7539C65.4333 50.4965 65.331 50.2496 65.149 50.0675C64.9669 49.8855 64.72 49.7832 64.4626 49.7832Z" fill="#616CF5"/>
<path d="M64.4626 58.6582H58.3657C58.1083 58.6582 57.8614 58.7605 57.6793 58.9425C57.4973 59.1246 57.395 59.3715 57.395 59.6289C57.395 59.8864 57.4973 60.1333 57.6793 60.3153C57.8614 60.4973 58.1083 60.5996 58.3657 60.5996H64.4626C64.72 60.5996 64.9669 60.4973 65.149 60.3153C65.331 60.1333 65.4333 59.8864 65.4333 59.6289C65.4333 59.3715 65.331 59.1246 65.149 58.9425C64.9669 58.7605 64.72 58.6582 64.4626 58.6582Z" fill="#616CF5"/>
</svg>
