<svg width="54" height="54" viewBox="0 0 54 54" fill="none" xmlns="http://www.w3.org/2000/svg">
<path fill-rule="evenodd" clip-rule="evenodd" d="M6.47752 5.64914L6.24926 5.62527C5.4186 5.5949 4.67265 6.18233 4.52695 7.02413L4.50308 7.25239C4.47271 8.08305 5.06014 8.829 5.90194 8.9747L9.2972 9.56192L11.3549 34.0773L11.3975 34.4458C11.8115 37.2413 14.2159 39.3429 17.0797 39.3429H41.6317L42.0015 39.3311C44.6932 39.1592 46.9251 37.1236 47.318 34.4195L49.4533 19.6631L49.4902 19.3241C49.6867 16.6262 47.5494 14.2847 44.7975 14.2847H13.0795L12.5513 7.98078L12.5115 7.73135C12.3575 7.08263 11.8302 6.57556 11.1575 6.45914L6.47752 5.64914ZM16.8175 35.9537C15.7031 35.8317 14.8119 34.9368 14.7168 33.7959L13.3616 17.6597H44.7961L44.9944 17.6743C45.7049 17.7799 46.2181 18.4442 46.1117 19.1799L43.9765 33.9352L43.9229 34.1991C43.6521 35.2308 42.7174 35.9679 41.6303 35.9679H17.0783L16.8175 35.9537ZM13.2983 46.3162C13.2983 44.435 14.8231 42.9075 16.7048 42.9075C18.5863 42.9075 20.1135 44.4348 20.1135 46.3162C20.1135 48.198 18.586 49.7227 16.7048 49.7227C14.8233 49.7227 13.2983 48.1977 13.2983 46.3162ZM38.6121 46.3162C38.6121 44.4348 40.1394 42.9075 42.0209 42.9075C43.9023 42.9075 45.4296 44.4348 45.4296 46.3162C45.4296 48.198 43.9021 49.7227 42.0209 49.7227C40.1396 49.7227 38.6121 48.198 38.6121 46.3162ZM39.7137 24.2883C39.7137 23.3563 38.9582 22.6008 38.0262 22.6008H31.787L31.558 22.6162C30.7343 22.7279 30.0995 23.434 30.0995 24.2883C30.0995 25.2203 30.855 25.9758 31.787 25.9758H38.0262L38.2552 25.9604C39.0789 25.8487 39.7137 25.1426 39.7137 24.2883Z" fill="#B0B0B0"/>
</svg>
