<svg width="18" height="18" viewBox="0 0 18 18" fill="none" xmlns="http://www.w3.org/2000/svg">
<path d="M16.4863 5.91004C16.4512 5.11303 16.3223 4.5651 16.1376 4.0903C15.9472 3.58632 15.6542 3.13511 15.2702 2.76001C14.8951 2.37908 14.441 2.08308 13.9428 1.89559C13.4653 1.71096 12.9202 1.58207 12.1232 1.54693C11.3202 1.50881 11.0653 1.5 9.0288 1.5C6.99227 1.5 6.73736 1.50881 5.93738 1.54395C5.14037 1.57909 4.59244 1.70809 4.11776 1.89261C3.61366 2.08308 3.16245 2.3761 2.78735 2.76001C2.40642 3.13511 2.11053 3.5893 1.92293 4.08744C1.7383 4.5651 1.60941 5.11006 1.57427 5.90706C1.53616 6.71002 1.52734 6.96493 1.52734 9.00146C1.52734 11.038 1.53616 11.2929 1.5713 12.0929C1.60644 12.8899 1.73544 13.4378 1.92007 13.9126C2.11053 14.4166 2.40642 14.8678 2.78735 15.2429C3.16245 15.6239 3.61664 15.9199 4.11478 16.1073C4.59244 16.292 5.1374 16.4209 5.93452 16.456C6.73439 16.4913 6.98941 16.5 9.02594 16.5C11.0625 16.5 11.3174 16.4913 12.1174 16.456C12.9144 16.4209 13.4623 16.292 13.937 16.1073C14.9451 15.7176 15.7421 14.9206 16.1318 13.9126C16.3163 13.435 16.4453 12.8899 16.4805 12.0929C16.5156 11.2929 16.5244 11.038 16.5244 9.00146C16.5244 6.96493 16.5214 6.71002 16.4863 5.91004ZM15.1355 12.0343C15.1032 12.7668 14.9802 13.1624 14.8776 13.4262C14.6256 14.0796 14.107 14.5983 13.4535 14.8503C13.1898 14.9529 12.7913 15.0759 12.0616 15.1081C11.2704 15.1433 11.0332 15.152 9.03177 15.152C7.03039 15.152 6.79013 15.1433 6.00182 15.1081C5.26926 15.0759 4.87367 14.9529 4.60995 14.8503C4.28476 14.7301 3.98876 14.5397 3.7485 14.2906C3.49943 14.0473 3.30896 13.7543 3.18878 13.4291C3.08622 13.1654 2.96317 12.7668 2.931 12.0373C2.89575 11.2461 2.88705 11.0087 2.88705 9.0073C2.88705 7.00591 2.89575 6.76565 2.931 5.97746C2.96317 5.24489 3.08622 4.84931 3.18878 4.58559C3.30896 4.26028 3.49943 3.96439 3.75148 3.72402C3.9946 3.47495 4.28762 3.28448 4.61293 3.16441C4.87665 3.06185 5.27521 2.9388 6.0048 2.90652C6.79597 2.87138 7.03336 2.86257 9.03464 2.86257C11.039 2.86257 11.2763 2.87138 12.0646 2.90652C12.7972 2.9388 13.1927 3.06185 13.4565 3.16441C13.7817 3.28448 14.0777 3.47495 14.3179 3.72402C14.567 3.96726 14.7574 4.26028 14.8776 4.58559C14.9802 4.84931 15.1032 5.24776 15.1355 5.97746C15.1707 6.76863 15.1795 7.00591 15.1795 9.0073C15.1795 11.0087 15.1707 11.2431 15.1355 12.0343Z" fill="#616CF5"/>
<path d="M9.0288 5.14817C6.9015 5.14817 5.1755 6.87405 5.1755 9.00147C5.1755 11.1289 6.9015 12.8548 9.0288 12.8548C11.1562 12.8548 12.8821 11.1289 12.8821 9.00147C12.8821 6.87405 11.1562 5.14817 9.0288 5.14817ZM9.0288 11.501C7.64871 11.501 6.52926 10.3817 6.52926 9.00147C6.52926 7.62127 7.64871 6.50193 9.0288 6.50193C10.409 6.50193 11.5283 7.62127 11.5283 9.00147C11.5283 10.3817 10.409 11.501 9.0288 11.501Z" fill="#616CF5"/>
<path d="M13.9341 4.99583C13.9341 5.4926 13.5314 5.89539 13.0345 5.89539C12.5377 5.89539 12.1349 5.4926 12.1349 4.99583C12.1349 4.49894 12.5377 4.09626 13.0345 4.09626C13.5314 4.09626 13.9341 4.49894 13.9341 4.99583Z" fill="#616CF5"/>
</svg>
