<svg width="33" height="33" viewBox="0 0 33 33" fill="none" xmlns="http://www.w3.org/2000/svg">
<rect width="33" height="33" rx="5.13514" fill="#616CF5"/>
<path d="M21.25 23.625V22.4375H22.4375V23.625H21.25Z" fill="white"/>
<path d="M17.6875 21.25V20.0625H18.875V21.25H17.6875Z" fill="white"/>
<path d="M17.6875 24.8125H20.0625V23.625H18.875V22.4375H17.6875V24.8125Z" fill="white"/>
<path d="M22.4375 22.4375V20.0625H23.625V22.4375H22.4375Z" fill="white"/>
<path d="M23.625 22.4375H24.8125V24.8125H22.4375V23.625H23.625V22.4375Z" fill="white"/>
<path d="M22.4375 18.875V17.6875H24.8125V20.0625H23.625V18.875H22.4375Z" fill="white"/>
<path d="M21.25 18.875H20.0625V21.25H18.875V22.4375H21.25V18.875Z" fill="white"/>
<path d="M17.6875 18.875V17.6875H20.0625V18.875H17.6875Z" fill="white"/>
<path d="M10.5625 20.0625H12.9375V22.4375H10.5625V20.0625Z" fill="white"/>
<path d="M15.3125 24.8125H8.1875V17.6875H15.3125V24.8125ZM9.375 23.625H14.125V18.875H9.375V23.625Z" fill="white"/>
<path d="M20.0625 10.5625H22.4375V12.9375H20.0625V10.5625Z" fill="white"/>
<path d="M24.8125 15.3125H17.6875V8.1875H24.8125V15.3125ZM18.875 14.125H23.625V9.375H18.875V14.125Z" fill="white"/>
<path d="M10.5625 10.5625H12.9375V12.9375H10.5625V10.5625Z" fill="white"/>
<path d="M15.3125 15.3125H8.1875V8.1875H15.3125V15.3125ZM9.375 14.125H14.125V9.375H9.375V14.125Z" fill="white"/>
</svg>
