<svg width="212" height="96" viewBox="0 0 212 96" fill="none" xmlns="http://www.w3.org/2000/svg">
<path d="M23.0127 11.9277L16.3232 36H9.36523L0.0390625 0.770508H7.68066L13.2227 26.2832H13.418L20.0098 0.770508H26.2354L32.8271 26.2832H33.0225L38.5889 0.770508H46.2305L36.8799 36H29.9219L23.2324 11.9277H23.0127ZM58.4131 14.54C56.8669 14.54 55.5729 15.069 54.5312 16.127C53.5059 17.1849 52.9281 18.5358 52.7979 20.1797H63.9062C63.8249 18.5033 63.2796 17.1442 62.2705 16.1025C61.2777 15.0609 59.9919 14.54 58.4131 14.54ZM64.0039 27.9922H70.5469C70.1562 30.5638 68.8704 32.639 66.6895 34.2178C64.5247 35.7803 61.8311 36.5615 58.6084 36.5615C54.5882 36.5615 51.4307 35.3571 49.1357 32.9482C46.8571 30.5394 45.7178 27.2354 45.7178 23.0361C45.7178 18.8532 46.8571 15.5166 49.1357 13.0264C51.4144 10.5199 54.4824 9.2666 58.3398 9.2666C62.1322 9.2666 65.1514 10.4548 67.3975 12.8311C69.6436 15.2074 70.7666 18.3893 70.7666 22.377V24.5498H52.7246V24.9893C52.7246 26.861 53.2699 28.3828 54.3604 29.5547C55.4671 30.7103 56.9238 31.2881 58.7305 31.2881C60.0326 31.2881 61.1556 30.9951 62.0996 30.4092C63.0436 29.807 63.6784 29.0013 64.0039 27.9922ZM74.624 36V0.770508H81.7529V36H74.624ZM110.342 19.5693H103.726C103.514 18.1533 102.952 17.014 102.041 16.1514C101.146 15.2887 99.9821 14.8574 98.5498 14.8574C96.7757 14.8574 95.376 15.5736 94.3506 17.0059C93.3415 18.4219 92.8369 20.3831 92.8369 22.8896C92.8369 25.445 93.3415 27.4307 94.3506 28.8467C95.376 30.2627 96.7839 30.9707 98.5742 30.9707C99.9902 30.9707 101.146 30.5719 102.041 29.7744C102.936 28.9606 103.498 27.8376 103.726 26.4053H110.366C110.187 29.4977 109.023 31.9635 106.875 33.8027C104.727 35.6419 101.935 36.5615 98.501 36.5615C94.5296 36.5615 91.3883 35.349 89.0771 32.9238C86.766 30.4824 85.6104 27.1377 85.6104 22.8896C85.6104 18.7067 86.766 15.3945 89.0771 12.9531C91.4046 10.4954 94.5296 9.2666 98.4521 9.2666C101.935 9.2666 104.743 10.2269 106.875 12.1475C109.023 14.068 110.179 16.542 110.342 19.5693ZM135.293 32.9482C132.965 35.3571 129.808 36.5615 125.82 36.5615C121.833 36.5615 118.675 35.349 116.348 32.9238C114.02 30.4987 112.856 27.154 112.856 22.8896C112.856 18.6742 114.028 15.3538 116.372 12.9287C118.732 10.4873 121.882 9.2666 125.82 9.2666C129.775 9.2666 132.925 10.4873 135.269 12.9287C137.612 15.3538 138.784 18.6742 138.784 22.8896C138.784 27.1702 137.62 30.5231 135.293 32.9482ZM125.82 31.1172C127.578 31.1172 128.97 30.401 129.995 28.9688C131.021 27.5365 131.533 25.5182 131.533 22.9141C131.533 20.3424 131.021 18.3324 129.995 16.8838C128.97 15.4352 127.578 14.7109 125.82 14.7109C124.062 14.7109 122.663 15.4352 121.621 16.8838C120.596 18.3324 120.083 20.3424 120.083 22.9141C120.083 25.5182 120.596 27.5365 121.621 28.9688C122.646 30.401 124.046 31.1172 125.82 31.1172ZM142.471 36V9.82812H149.355V14.5645H149.502C150.055 12.9694 150.999 11.6999 152.334 10.7559C153.669 9.81185 155.215 9.33984 156.973 9.33984C158.861 9.33984 160.439 9.81185 161.709 10.7559C162.979 11.6836 163.833 13.002 164.272 14.7109H164.419C165.005 13.0671 166.022 11.765 167.471 10.8047C168.936 9.82812 170.628 9.33984 172.549 9.33984C175.12 9.33984 177.188 10.1455 178.75 11.7568C180.329 13.3682 181.118 15.4922 181.118 18.1289V36H173.989V19.9111C173.989 18.3975 173.623 17.2419 172.891 16.4443C172.158 15.6305 171.1 15.2236 169.717 15.2236C168.366 15.2236 167.275 15.6712 166.445 16.5664C165.632 17.4616 165.225 18.6416 165.225 20.1064V36H158.364V19.6914C158.364 18.2917 157.99 17.2012 157.241 16.4199C156.493 15.6224 155.459 15.2236 154.141 15.2236C152.79 15.2236 151.691 15.6875 150.845 16.6152C150.015 17.543 149.6 18.7393 149.6 20.2041V36H142.471ZM197.378 14.54C195.832 14.54 194.538 15.069 193.496 16.127C192.471 17.1849 191.893 18.5358 191.763 20.1797H202.871C202.79 18.5033 202.244 17.1442 201.235 16.1025C200.243 15.0609 198.957 14.54 197.378 14.54ZM202.969 27.9922H209.512C209.121 30.5638 207.835 32.639 205.654 34.2178C203.49 35.7803 200.796 36.5615 197.573 36.5615C193.553 36.5615 190.396 35.3571 188.101 32.9482C185.822 30.5394 184.683 27.2354 184.683 23.0361C184.683 18.8532 185.822 15.5166 188.101 13.0264C190.379 10.5199 193.447 9.2666 197.305 9.2666C201.097 9.2666 204.116 10.4548 206.362 12.8311C208.608 15.2074 209.731 18.3893 209.731 22.377V24.5498H191.689V24.9893C191.689 26.861 192.235 28.3828 193.325 29.5547C194.432 30.7103 195.889 31.2881 197.695 31.2881C198.997 31.2881 200.12 30.9951 201.064 30.4092C202.008 29.807 202.643 29.0013 202.969 27.9922ZM11.4648 53.7979H18.5938V59.8281H23.4277V65.1992H18.5938V77.7236C18.5938 79.693 19.6191 80.6777 21.6699 80.6777C22.3372 80.6777 22.915 80.637 23.4033 80.5557V85.8047C22.5732 86 21.4421 86.0977 20.0098 86.0977C16.9336 86.0977 14.7363 85.5443 13.418 84.4375C12.1159 83.3307 11.4648 81.4997 11.4648 78.9443V65.1992H7.77832V59.8281H11.4648V53.7979ZM48.4277 82.9482C46.1003 85.3571 42.9427 86.5615 38.9551 86.5615C34.9674 86.5615 31.8099 85.349 29.4824 82.9238C27.1549 80.4987 25.9912 77.154 25.9912 72.8896C25.9912 68.6742 27.1631 65.3538 29.5068 62.9287C31.8669 60.4873 35.0163 59.2666 38.9551 59.2666C42.9102 59.2666 46.0596 60.4873 48.4033 62.9287C50.7471 65.3538 51.9189 68.6742 51.9189 72.8896C51.9189 77.1702 50.7552 80.5231 48.4277 82.9482ZM38.9551 81.1172C40.7129 81.1172 42.1045 80.401 43.1299 78.9688C44.1553 77.5365 44.668 75.5182 44.668 72.9141C44.668 70.3424 44.1553 68.3324 43.1299 66.8838C42.1045 65.4352 40.7129 64.7109 38.9551 64.7109C37.1973 64.7109 35.7975 65.4352 34.7559 66.8838C33.7305 68.3324 33.2178 70.3424 33.2178 72.9141C33.2178 75.5182 33.7305 77.5365 34.7559 78.9688C35.7812 80.401 37.181 81.1172 38.9551 81.1172ZM65.6885 86V50.7705H72.8174V86H65.6885ZM99.1113 82.9482C96.7839 85.3571 93.6263 86.5615 89.6387 86.5615C85.651 86.5615 82.4935 85.349 80.166 82.9238C77.8385 80.4987 76.6748 77.154 76.6748 72.8896C76.6748 68.6742 77.8467 65.3538 80.1904 62.9287C82.5505 60.4873 85.6999 59.2666 89.6387 59.2666C93.5938 59.2666 96.7432 60.4873 99.0869 62.9287C101.431 65.3538 102.603 68.6742 102.603 72.8896C102.603 77.1702 101.439 80.5231 99.1113 82.9482ZM89.6387 81.1172C91.3965 81.1172 92.7881 80.401 93.8135 78.9688C94.8389 77.5365 95.3516 75.5182 95.3516 72.9141C95.3516 70.3424 94.8389 68.3324 93.8135 66.8838C92.7881 65.4352 91.3965 64.7109 89.6387 64.7109C87.8809 64.7109 86.4811 65.4352 85.4395 66.8838C84.4141 68.3324 83.9014 70.3424 83.9014 72.9141C83.9014 75.5182 84.4141 77.5365 85.4395 78.9688C86.4648 80.401 87.8646 81.1172 89.6387 81.1172ZM108.999 95.6924C107.437 95.6924 106.541 95.668 106.313 95.6191V90.126C106.46 90.1585 107.054 90.1748 108.096 90.1748C109.414 90.1748 110.415 89.9469 111.099 89.4912C111.782 89.0518 112.246 88.3112 112.49 87.2695C112.49 87.2533 112.531 87.0498 112.612 86.6592C112.694 86.2686 112.726 86.057 112.71 86.0244L103.604 59.8281H111.44L117.007 80.2871H117.129L122.695 59.8281H130.215L121.206 86.5859C120.083 89.9388 118.602 92.2907 116.763 93.6416C114.94 95.0088 112.352 95.6924 108.999 95.6924ZM172.72 71.6934C172.72 76.3483 171.426 79.9941 168.838 82.6309C166.25 85.2513 162.669 86.5615 158.096 86.5615C153.327 86.5615 149.494 84.8851 146.597 81.5322C143.716 78.1794 142.275 73.7279 142.275 68.1777C142.275 62.7253 143.708 58.3714 146.572 55.1162C149.453 51.8447 153.294 50.209 158.096 50.209C161.79 50.209 164.948 51.2262 167.568 53.2607C170.189 55.2952 171.833 57.9971 172.5 61.3662H169.033C168.317 58.8597 166.982 56.8903 165.029 55.458C163.092 54.0257 160.781 53.3096 158.096 53.3096C154.271 53.3096 151.243 54.6442 149.014 57.3135C146.8 59.9665 145.693 63.5879 145.693 68.1777C145.693 72.8327 146.816 76.5436 149.062 79.3105C151.309 82.0775 154.32 83.4609 158.096 83.4609C161.497 83.4609 164.232 82.46 166.299 80.458C168.366 78.4561 169.399 75.7949 169.399 72.4746V71.2295H158.462V68.2998H172.72V71.6934ZM177.969 86V60.6094H181.191V86H177.969ZM179.58 55.4824C178.994 55.4824 178.49 55.279 178.066 54.8721C177.643 54.4489 177.432 53.9362 177.432 53.334C177.432 52.748 177.643 52.2516 178.066 51.8447C178.49 51.4215 178.994 51.21 179.58 51.21C180.182 51.21 180.695 51.4215 181.118 51.8447C181.541 52.2516 181.753 52.748 181.753 53.334C181.753 53.9362 181.541 54.4489 181.118 54.8721C180.695 55.279 180.182 55.4824 179.58 55.4824ZM188.271 86V63.2949H184.731V60.6094H188.271V57.3867C188.271 52.9271 190.436 50.6973 194.766 50.6973C195.612 50.6973 196.393 50.7624 197.109 50.8926V53.5537C196.507 53.4398 195.881 53.3828 195.229 53.3828C192.739 53.3828 191.494 54.7419 191.494 57.46V60.6094H196.963V63.2949H191.519V86H188.271ZM202.725 54.2617H205.947V60.6094H210.952V63.2949H205.947V79.6035C205.947 80.9056 206.216 81.8577 206.753 82.46C207.29 83.0459 208.145 83.3389 209.316 83.3389C210.228 83.3389 210.814 83.3063 211.074 83.2412V86C210.618 86.0977 209.821 86.1465 208.682 86.1465C206.549 86.1465 205.02 85.6582 204.092 84.6816C203.18 83.6888 202.725 82.0449 202.725 79.75V63.2949H198.94V60.6094H202.725V54.2617Z" fill="#616CF5"/>
</svg>
