<svg width="71" height="71" viewBox="0 0 71 71" fill="none" xmlns="http://www.w3.org/2000/svg">
<path d="M42.4336 57.6792V63.2735C42.4322 63.8171 42.5386 64.3556 42.7467 64.8578C42.9548 65.36 43.2605 65.8159 43.646 66.1992C44.0315 66.5824 44.4892 66.8854 44.9926 67.0906C45.496 67.2958 46.035 67.3991 46.5786 67.3945L42.4336 57.6792ZM42.4336 57.6792L42.4836 57.6504L42.4336 57.5638H42.3336V57.6215L28.7403 65.4621M42.4336 57.6792L69.652 63.2735V63.2732M28.7403 65.4621L28.6915 65.3749L42.3836 57.4772L42.5336 57.3907V57.5638V63.2735V63.2737C42.5322 63.8041 42.6361 64.3295 42.8391 64.8195C43.0421 65.3095 43.3404 65.7543 43.7165 66.1282C44.0926 66.5022 44.5392 66.7978 45.0303 66.998C45.5215 67.1982 46.0474 67.299 46.5778 67.2945L46.5786 67.2945L65.5802 67.2945H65.5811C66.1129 67.2995 66.6404 67.1992 67.1333 66.9995C67.6262 66.7997 68.0748 66.5045 68.4531 66.1308C68.8315 65.757 69.1322 65.3121 69.3379 64.8217C69.5437 64.3313 69.6504 63.805 69.652 63.2732M28.7403 65.4621L28.6903 65.3755L28.6909 65.3752M28.7403 65.4621C28.5878 65.5475 28.4159 65.5923 28.2411 65.5922C28.0707 65.5922 27.9033 65.5473 27.7557 65.4621L1.7334 50.4381C1.58584 50.353 1.4633 50.2304 1.37811 50.0829C1.29291 49.9353 1.24806 49.7679 1.24805 49.5975V19.5494L28.6909 65.3752M69.652 63.2732V35.2479C69.6513 34.1669 69.2225 33.1301 68.4593 32.3645C67.6963 31.5989 66.661 31.1668 65.5802 31.1625M69.652 63.2732L65.5802 31.1625M65.5802 31.1625C65.58 31.1625 65.5799 31.1625 65.5798 31.1625M65.5802 31.1625L65.5798 31.1625M65.5798 31.1625L62.126 31.1625H62.0499L62.0296 31.0891C61.8386 30.3978 61.4277 29.7874 60.8591 29.3503C60.2906 28.9134 59.5953 28.6733 58.8784 28.6664M65.5798 31.1625L28.6909 65.3752M28.6909 65.3752C28.5534 65.452 28.3986 65.4923 28.2411 65.4922C28.0882 65.4922 27.9381 65.452 27.8057 65.3755L1.7834 50.3515C1.65104 50.2751 1.54113 50.1652 1.46471 50.0329C1.38829 49.9005 1.34806 49.7504 1.34805 49.5975L1.34805 19.5494L1.34805 19.5491C1.34756 19.3965 1.38731 19.2465 1.46328 19.1141C1.53925 18.9818 1.64876 18.8718 1.78078 18.7953M1.78078 18.7953L27.8003 3.77139L27.8006 3.77124C27.9319 3.6949 28.0811 3.65469 28.233 3.65469C28.385 3.65469 28.5342 3.6949 28.6655 3.77124L28.6657 3.77138L54.6762 18.7947L54.7274 18.7088M1.78078 18.7953L1.78063 18.7954L1.73063 18.7088L1.78078 18.7953ZM54.7274 18.7088L54.6774 18.7954L54.6768 18.795C54.8062 18.8723 54.9128 18.9826 54.9857 19.1146L55.0733 19.0663M54.7274 18.7088L28.7158 3.68479M54.7274 18.7088C54.8724 18.7952 54.9917 18.9185 55.0733 19.0663M55.0733 19.0663L54.9857 19.1146C55.0587 19.2468 55.0952 19.396 55.0914 19.5469L55.0914 19.5469V19.5494V28.5664V28.6664H55.1914H58.8784M55.0733 19.0663C55.1548 19.214 55.1956 19.3807 55.1914 19.5494L28.7158 3.68479M58.8784 28.6664H58.8787V28.5664L58.8778 28.6664C58.878 28.6664 58.8782 28.6664 58.8784 28.6664ZM28.7158 3.68479C28.5692 3.59957 28.4026 3.55469 28.233 3.55469C28.0635 3.55469 27.8969 3.59957 27.7503 3.68479H28.7158ZM28.2911 5.5597L28.2411 5.53083L28.1911 5.5597L4.11196 19.4618L3.96196 19.5484L4.11196 19.635L14.9246 25.8778L14.9746 25.9066L15.0246 25.8778L39.1039 11.9756L39.2539 11.889L39.1039 11.8024L28.2911 5.5597ZM27.2684 63.0268L27.4184 63.1131V62.9401V35.1317V35.0739L27.3683 35.045L3.23938 21.1419L3.08946 21.0555V21.2286V49.037V49.0948L3.13953 49.1237L27.2684 63.0268ZM28.1911 33.537L28.2411 33.5659L28.2911 33.537L52.3709 19.635L52.5209 19.5484L52.3709 19.4618L41.0453 12.9233L40.9953 12.8944L40.9453 12.9233L16.866 26.8253L16.716 26.9119L16.866 26.9985L28.1911 33.537ZM42.5336 35.2479L42.5336 35.2474C42.5284 34.1692 42.9517 33.1332 43.7104 32.3671C44.4689 31.6011 45.5007 31.1678 46.5787 31.1625C46.5789 31.1625 46.579 31.1625 46.5791 31.1625L50.0328 31.1625H50.1089L50.1292 31.0891C50.3202 30.3978 50.731 29.7874 51.2997 29.3503C51.8683 28.9132 52.5638 28.6731 53.281 28.6664L53.2806 28.5664H53.35V21.2286V21.055L53.1999 21.1421L29.2096 35.0452L29.1598 35.0741V35.1317V62.9401V63.1135L29.3098 63.0267L42.4837 55.4087L42.5336 55.3799V55.3222L42.5336 35.2479ZM67.9106 63.2739V63.2735V35.2479C67.9104 34.6287 67.6654 34.0347 67.2289 33.5956C66.7924 33.1565 66.1999 32.9078 65.5808 32.9039H65.5802H62.088H62.0138L61.9923 32.9749C61.7904 33.6413 61.378 34.2243 60.8168 34.6366C60.2556 35.0488 59.5759 35.268 58.8797 35.2613H58.8787L53.2801 35.2613L53.2791 35.2613C52.5829 35.268 51.9032 35.0488 51.342 34.6365C50.7808 34.2243 50.3683 33.6413 50.1664 32.9749L50.1449 32.9039H50.0707L46.5786 32.9039L46.5778 32.9039C46.2726 32.9064 45.9708 32.969 45.6898 33.0883C45.4087 33.2075 45.154 33.381 44.9401 33.5988C44.7262 33.8166 44.5574 34.0745 44.4432 34.3576C44.3292 34.6407 44.272 34.9434 44.275 35.2485C44.275 35.2486 44.275 35.2488 44.275 35.2489L44.275 63.2729C44.2732 63.575 44.3318 63.8743 44.4474 64.1534C44.5629 64.4325 44.733 64.6857 44.9478 64.8981C45.1626 65.1106 45.4176 65.2779 45.698 65.3904C45.9781 65.5028 46.2778 65.5581 46.5796 65.5531H65.5791C65.8822 65.5586 66.1834 65.5039 66.4651 65.3921C66.7471 65.2802 67.0041 65.1133 67.2211 64.9013C67.4381 64.6892 67.6108 64.4362 67.7291 64.1568C67.8475 63.8774 67.9092 63.5773 67.9106 63.2739ZM59.9803 30.8498C59.6973 30.5668 59.3134 30.4078 58.9132 30.4078H53.2723C52.8721 30.4078 52.4883 30.5668 52.2053 30.8498C51.9223 31.1328 51.7633 31.5166 51.7633 31.9169V32.0109C51.7633 32.4111 51.9223 32.7949 52.2053 33.0779C52.4883 33.3609 52.8721 33.5199 53.2723 33.5199H58.9132C59.3134 33.5199 59.6973 33.3609 59.9803 33.0779C60.2633 32.7949 60.4223 32.4111 60.4223 32.0109V31.9169C60.4223 31.5166 60.2633 31.1328 59.9803 30.8498Z" fill="#616CF5" stroke="white" stroke-width="0.2"/>
<path d="M46.7324 39.5261V44.0988V39.5261ZM48.5739 43.127V43.227H48.6739H48.7121C48.943 43.227 49.1645 43.3187 49.3278 43.482C49.4911 43.6453 49.5828 43.8667 49.5828 44.0977C49.5828 44.3286 49.4911 44.55 49.3278 44.7133C49.1645 44.8766 48.943 44.9684 48.7121 44.9684H47.6961C47.6961 44.9684 47.6961 44.9684 47.6961 44.9684C47.5822 44.9683 47.4695 44.9458 47.3644 44.9021C47.2592 44.8583 47.1638 44.7942 47.0835 44.7135C47.0033 44.6327 46.9398 44.5369 46.8967 44.4315C46.8536 44.3261 46.8318 44.2132 46.8324 44.0994V44.0988V39.5261H46.8324L46.8324 39.5254C46.8317 39.4112 46.8534 39.2979 46.8964 39.1922C46.9394 39.0864 47.0029 38.9901 47.0832 38.9089C47.1634 38.8277 47.2589 38.763 47.3642 38.7188C47.4694 38.6745 47.5822 38.6514 47.6963 38.6508H52.2687C52.5013 38.6514 52.7243 38.7437 52.8893 38.9077C53.0543 39.0716 53.148 39.294 53.15 39.5265V40.1789C53.1488 40.4101 53.056 40.6314 52.8919 40.7943C52.7277 40.9572 52.5056 41.0483 52.2743 41.0477L52.2743 41.0476L52.2708 41.0477C52.0883 41.0538 51.9088 40.9998 51.76 40.894C51.6111 40.7883 51.5011 40.6367 51.4466 40.4624L51.4247 40.3922H51.3512H48.6739H48.5739V40.4922V43.127Z" fill="#616CF5" stroke="white" stroke-width="0.2"/>
<path d="M48.6738 49.2672H48.5738V49.3672V52.002V52.102H48.6738H51.3086H51.4086V52.002V49.3672V49.2672H51.3086H48.6738ZM52.2793 53.8434H47.7031C47.4722 53.8434 47.2507 53.7516 47.0874 53.5883C46.9242 53.425 46.8324 53.2036 46.8324 52.9727V48.3965C46.8324 48.1656 46.9242 47.9441 47.0874 47.7808C47.2507 47.6175 47.4722 47.5258 47.7031 47.5258H52.2793C52.5102 47.5258 52.7317 47.6175 52.895 47.7808C53.0583 47.9441 53.15 48.1656 53.15 48.3965V52.9727C53.15 53.2036 53.0583 53.425 52.895 53.5883C52.7317 53.7516 52.5102 53.8434 52.2793 53.8434Z" fill="#616CF5" stroke="white" stroke-width="0.2"/>
<path d="M48.5739 60.877V60.977H48.6739H48.7123C48.9432 60.977 49.1647 61.0687 49.328 61.232C49.4913 61.3953 49.583 61.6167 49.583 61.8477C49.583 62.0786 49.4913 62.3 49.328 62.4633C49.1647 62.6266 48.9432 62.7184 48.7123 62.7184H47.6961V62.7183L47.6932 62.7184C47.5813 62.7217 47.4699 62.7024 47.3655 62.6618C47.2612 62.6212 47.1661 62.5601 47.0858 62.4821C47.0056 62.404 46.9418 62.3107 46.8983 62.2075C46.8547 62.1044 46.8324 61.9935 46.8325 61.8816V61.8815V57.3088H46.8325L46.8325 57.3076C46.8298 57.0732 46.919 56.8469 47.0811 56.6774C47.2428 56.5083 47.4641 56.4091 47.6978 56.4008H52.2673C52.5031 56.4084 52.7269 56.5071 52.8915 56.6762C53.0564 56.8457 53.1491 57.0726 53.1501 57.309C53.1501 57.3091 53.1501 57.3091 53.1501 57.3092L53.1501 58.243C53.1448 58.4717 53.0503 58.6894 52.8867 58.8493C52.7229 59.0095 52.5027 59.0991 52.2736 59.0989C52.0444 59.0986 51.8245 59.0086 51.6609 58.8481C51.4974 58.6876 51.4033 58.4693 51.3988 58.2402L51.3969 58.1422H51.2988H48.6739H48.5739V58.2422V60.877Z" fill="#616CF5" stroke="white" stroke-width="0.2"/>
<path d="M54.574 39.813L54.574 39.813L54.5744 39.8126C54.5744 39.8125 54.5744 39.8125 54.5744 39.8125C54.7377 39.6492 54.9592 39.5575 55.1901 39.5575C55.421 39.5575 55.6425 39.6493 55.8058 39.8126C55.9691 39.9759 56.0609 40.1973 56.0609 40.4283C56.0609 40.6592 55.9691 40.8807 55.8058 41.044L52.2763 44.5735L52.2763 44.5735C52.1955 44.6543 52.0995 44.7185 51.9938 44.7622C51.8882 44.806 51.775 44.8285 51.6606 44.8285C51.5463 44.8285 51.433 44.806 51.3274 44.7622C51.2218 44.7185 51.1258 44.6543 51.0449 44.5735L51.0449 44.5735L49.4936 43.0223C49.4127 42.9414 49.3486 42.8454 49.3048 42.7398C49.2611 42.6341 49.2385 42.5209 49.2385 42.4066C49.2385 42.2922 49.2611 42.179 49.3048 42.0733C49.3486 41.9677 49.4127 41.8717 49.4936 41.7909C49.5744 41.71 49.6704 41.6459 49.7761 41.6021C49.8817 41.5583 49.995 41.5358 50.1093 41.5358C50.2237 41.5358 50.3369 41.5583 50.4425 41.6021C50.5482 41.6459 50.6442 41.71 50.725 41.7908C50.725 41.7908 50.725 41.7909 50.725 41.7909L51.5898 42.6557L51.6605 42.7265L51.7312 42.6557L54.574 39.813Z" fill="#616CF5" stroke="white" stroke-width="0.2"/>
<path d="M51.5898 60.579L51.6605 60.6497L51.7312 60.579L54.5736 57.7365L54.574 57.7362L54.5741 57.7361L54.5744 57.7358C54.7377 57.5725 54.9592 57.4807 55.1901 57.4807C55.421 57.4807 55.6425 57.5725 55.8058 57.7358C55.9691 57.8991 56.0609 58.1206 56.0609 58.3515C56.0609 58.5824 55.9691 58.8039 55.8058 58.9672L52.2763 62.4967L52.2763 62.4967C52.1955 62.5775 52.0995 62.6417 51.9938 62.6855C51.8882 62.7292 51.775 62.7517 51.6606 62.7517C51.5463 62.7517 51.433 62.7292 51.3274 62.6855C51.2218 62.6417 51.1258 62.5775 51.0449 62.4967L51.0449 62.4967L49.4936 60.9455C49.4127 60.8646 49.3486 60.7687 49.3048 60.663C49.2611 60.5574 49.2385 60.4441 49.2385 60.3298C49.2385 60.2154 49.2611 60.1022 49.3048 59.9966C49.3486 59.8909 49.4127 59.7949 49.4936 59.7141C49.5744 59.6332 49.6704 59.5691 49.7761 59.5253C49.8817 59.4816 49.995 59.459 50.1093 59.459C50.2237 59.459 50.3369 59.4816 50.4425 59.5253C50.5482 59.5691 50.6442 59.6332 50.725 59.7141C50.725 59.7141 50.725 59.7141 50.725 59.7141L51.5898 60.579Z" fill="#616CF5" stroke="white" stroke-width="0.2"/>
<path d="M58.3657 41.0082H64.4626C64.6935 41.0082 64.915 41.0999 65.0783 41.2632C65.2415 41.4265 65.3333 41.648 65.3333 41.8789C65.3333 42.1098 65.2415 42.3313 65.0783 42.4946C64.915 42.6579 64.6935 42.7496 64.4626 42.7496H58.3657C58.1348 42.7496 57.9133 42.6579 57.75 42.4946C57.5868 42.3313 57.495 42.1098 57.495 41.8789C57.495 41.648 57.5868 41.4265 57.75 41.2632C57.9133 41.0999 58.1348 41.0082 58.3657 41.0082Z" fill="#616CF5" stroke="white" stroke-width="0.2"/>
<path d="M58.3657 49.8832H64.4626C64.6935 49.8832 64.915 49.9749 65.0783 50.1382C65.2415 50.3015 65.3333 50.523 65.3333 50.7539C65.3333 50.9848 65.2415 51.2063 65.0783 51.3696C64.915 51.5329 64.6935 51.6246 64.4626 51.6246H58.3657C58.1348 51.6246 57.9133 51.5329 57.75 51.3696C57.5868 51.2063 57.495 50.9848 57.495 50.7539C57.495 50.523 57.5868 50.3015 57.75 50.1382C57.9133 49.9749 58.1348 49.8832 58.3657 49.8832Z" fill="#616CF5" stroke="white" stroke-width="0.2"/>
<path d="M58.3657 58.7582H64.4626C64.6935 58.7582 64.915 58.8499 65.0783 59.0132C65.2415 59.1765 65.3333 59.398 65.3333 59.6289C65.3333 59.8598 65.2415 60.0813 65.0783 60.2446C64.915 60.4079 64.6935 60.4996 64.4626 60.4996H58.3657C58.1348 60.4996 57.9133 60.4079 57.75 60.2446C57.5868 60.0813 57.495 59.8598 57.495 59.6289C57.495 59.398 57.5868 59.1765 57.75 59.0132C57.9133 58.8499 58.1348 58.7582 58.3657 58.7582Z" fill="#616CF5" stroke="white" stroke-width="0.2"/>
</svg>
