<svg xmlns="http://www.w3.org/2000/svg" version="1.0"  width="24px" height="28px"  viewBox="0 0 512.000000 512.000000" preserveAspectRatio="xMidYMid meet"><script xmlns=""/>
<g transform="translate(0.000000,512.000000) scale(0.100000,-0.100000)" fill="#fff" stroke="none">
<path d="M985 4775 l-25 -24 0 -304 0 -304 -44 -17 c-64 -24 -130 -87 -163 -154 -24 -49 -28 -69 -28 -142 0 -73 4 -92 28 -137 36 -69 88 -120 154 -150 l53 -24 0 -128 0 -128 -44 -17 c-64 -24 -130 -87 -163 -154 -24 -49 -28 -69 -28 -142 0 -73 4 -92 28 -137 36 -69 88 -120 154 -150 l53 -24 0 -128 0 -128 -44 -17 c-64 -24 -130 -87 -163 -154 -24 -49 -28 -69 -28 -142 0 -73 4 -92 28 -137 36 -69 88 -120 154 -150 l53 -24 0 -128 0 -128 -44 -17 c-64 -24 -130 -87 -163 -154 -24 -49 -28 -69 -28 -142 0 -73 4 -92 28 -137 36 -69 88 -120 154 -150 l53 -24 0 -175 c0 -172 0 -175 25 -199 l24 -25 924 0 c872 0 925 -1 931 -17 3 -10 11 -25 18 -35 10 -13 6 -22 -20 -52 -57 -66 -31 -146 48 -146 26 0 41 9 72 44 36 40 42 43 67 33 43 -16 69 -3 175 88 l98 85 395 0 394 0 24 25 25 24 0 504 0 503 165 213 c198 257 213 288 180 399 -38 127 -180 202 -302 159 l-43 -15 0 1230 0 1229 -25 24 -24 25 -1551 0 -1551 0 -24 -25z m3015 -1398 l0 -1263 -491 -635 c-425 -549 -498 -648 -541 -737 l-51 -102 -898 0 -899 0 0 119 0 120 53 24 c101 47 172 149 184 261 5 49 3 57 -20 80 -51 51 -137 17 -137 -54 0 -45 -47 -130 -72 -130 -4 0 -8 157 -8 349 l0 350 53 24 c101 47 172 149 184 261 5 49 3 57 -20 80 -51 51 -137 17 -137 -54 0 -45 -47 -130 -72 -130 -4 0 -8 157 -8 349 l0 350 53 24 c101 47 172 149 184 261 5 49 3 57 -20 80 -51 51 -137 17 -137 -54 0 -45 -47 -130 -72 -130 -4 0 -8 157 -8 349 l0 350 53 24 c101 47 172 149 184 261 5 49 3 57 -20 80 -51 51 -137 17 -137 -54 0 -45 -47 -130 -72 -130 -4 0 -8 212 -8 470 l0 470 1440 0 1440 0 0 -1263z m-3046 324 c-3 -3 -19 10 -35 29 -52 62 -51 144 4 207 l32 36 3 -133 c1 -73 0 -135 -4 -139z m0 -880 c-3 -3 -19 10 -35 29 -52 62 -51 144 4 207 l32 36 3 -133 c1 -73 0 -135 -4 -139z m0 -880 c-3 -3 -19 10 -35 29 -52 62 -51 144 4 207 l32 36 3 -133 c1 -73 0 -135 -4 -139z m3374 199 c42 -40 37 -85 -18 -148 l-19 -24 -61 47 c-33 25 -60 50 -60 54 0 4 17 26 38 49 45 48 84 55 120 22z m-190 -255 c29 -21 52 -42 52 -45 0 -3 -10 -18 -23 -33 l-22 -29 -58 45 c-32 25 -58 49 -59 54 0 18 37 61 47 55 6 -4 34 -25 63 -47z m-98 -235 c0 -4 -161 -216 -359 -471 -220 -285 -364 -464 -374 -463 -19 2 -117 76 -114 87 1 4 165 219 365 477 l363 469 59 -46 c33 -25 60 -49 60 -53z m-3086 -589 c-3 -3 -19 10 -35 29 -52 62 -51 144 4 207 l32 36 3 -133 c1 -73 0 -135 -4 -139z m3043 -418 c-2 -2 -121 -2 -265 -1 l-261 3 262 339 262 338 3 -337 c1 -186 1 -340 -1 -342z m-829 -30 l33 -28 -62 -52 c-53 -44 -64 -50 -80 -40 -25 15 -24 19 12 98 35 75 34 75 97 22z"/>
<path d="M2110 4368 c-75 -29 -151 -106 -175 -177 -21 -65 -16 -140 13 -197 12 -22 129 -147 261 -278 211 -211 243 -239 271 -239 28 0 60 28 271 239 132 131 249 256 261 278 49 95 30 210 -50 295 -113 121 -300 134 -431 31 l-51 -40 -52 40 c-93 71 -211 89 -318 48z m177 -149 c15 -6 58 -39 94 -75 54 -51 73 -64 99 -64 26 0 45 13 99 64 71 69 102 86 157 86 44 0 84 -21 118 -60 29 -35 33 -68 12 -108 -8 -15 -98 -110 -200 -212 l-186 -185 -186 185 c-102 102 -192 197 -200 212 -20 38 -18 71 8 103 46 59 118 80 185 54z"/>
<path d="M1545 3405 c-25 -24 -25 -26 -25 -212 1 -197 3 -208 47 -231 30 -16 356 -16 386 0 44 23 46 34 47 231 0 254 17 237 -240 237 -189 0 -191 0 -215 -25z m295 -215 l0 -80 -80 0 -80 0 0 80 0 80 80 0 80 0 0 -80z"/>
<path d="M2185 3325 c-27 -26 -32 -70 -12 -96 23 -30 56 -39 147 -39 91 0 124 9 147 39 20 26 15 70 -12 96 -23 24 -31 25 -135 25 -104 0 -112 -1 -135 -25z"/>
<path d="M2185 3005 c-27 -26 -32 -70 -12 -96 28 -36 51 -39 347 -39 296 0 319 3 347 39 20 26 15 70 -12 96 l-24 25 -311 0 -311 0 -24 -25z"/>
<path d="M1545 2765 c-25 -24 -25 -26 -25 -212 1 -132 4 -193 13 -204 26 -34 54 -39 227 -39 173 0 201 5 227 39 9 11 12 72 13 204 0 254 17 237 -240 237 -189 0 -191 0 -215 -25z m295 -215 l0 -80 -80 0 -80 0 0 80 0 80 80 0 80 0 0 -80z"/>
<path d="M2185 2685 c-27 -26 -32 -70 -12 -96 26 -34 54 -39 227 -39 173 0 201 5 227 39 20 26 15 70 -12 96 -24 25 -26 25 -215 25 -189 0 -191 0 -215 -25z"/>
<path d="M2185 2365 c-27 -26 -32 -70 -12 -96 28 -36 51 -39 347 -39 296 0 319 3 347 39 20 26 15 70 -12 96 l-24 25 -311 0 -311 0 -24 -25z"/>
<path d="M1545 2125 c-25 -24 -25 -26 -25 -212 1 -132 4 -193 13 -204 26 -34 54 -39 227 -39 173 0 201 5 227 39 9 11 12 72 13 204 0 254 17 237 -240 237 -189 0 -191 0 -215 -25z m295 -215 l0 -80 -80 0 -80 0 0 80 0 80 80 0 80 0 0 -80z"/>
<path d="M2185 2045 c-27 -26 -32 -70 -12 -96 23 -30 56 -39 147 -39 91 0 124 9 147 39 20 26 15 70 -12 96 -23 24 -31 25 -135 25 -104 0 -112 -1 -135 -25z"/>
<path d="M2185 1725 c-27 -26 -32 -70 -12 -96 28 -36 51 -39 347 -39 296 0 319 3 347 39 20 26 15 70 -12 96 l-24 25 -311 0 -311 0 -24 -25z"/>
<path d="M1545 1485 c-25 -24 -25 -26 -25 -212 1 -197 3 -208 47 -231 30 -16 356 -16 386 0 44 23 46 34 47 231 0 254 17 237 -240 237 -189 0 -191 0 -215 -25z m295 -215 l0 -80 -80 0 -80 0 0 80 0 80 80 0 80 0 0 -80z"/>
<path d="M2185 1405 c-27 -26 -32 -70 -12 -96 26 -34 54 -39 227 -39 173 0 201 5 227 39 20 26 15 70 -12 96 -24 25 -26 25 -215 25 -189 0 -191 0 -215 -25z"/>
<path d="M2185 1085 c-27 -26 -32 -70 -12 -96 28 -36 51 -39 347 -39 296 0 319 3 347 39 20 26 15 70 -12 96 l-24 25 -311 0 -311 0 -24 -25z"/>
</g>
<script xmlns=""/></svg>