<svg width="56" height="56" viewBox="0 0 56 56" fill="none" xmlns="http://www.w3.org/2000/svg">
<path d="M20.3637 0H5.09095C2.28316 0 0 2.28316 0 5.09095V20.3637C0 23.1714 2.28316 25.4546 5.09095 25.4546H20.3637C23.1714 25.4546 25.4546 23.1715 25.4546 20.3637V5.09095C25.4545 2.28316 23.1714 0 20.3637 0Z" fill="#616CF5"/>
<path d="M50.9096 0H35.6368C32.8291 0 30.5459 2.28316 30.5459 5.09095V20.3637C30.5459 23.1714 32.8291 25.4546 35.6368 25.4546H50.9096C53.7173 25.4546 56.0005 23.1715 56.0005 20.3637V5.09095C56.0004 2.28316 53.7173 0 50.9096 0Z" fill="#616CF5"/>
<path d="M20.3637 30.5454H5.09095C2.28316 30.5454 0 32.8286 0 35.6364V50.9091C0 53.7168 2.28316 56.0001 5.09095 56.0001H20.3637C23.1714 56.0001 25.4546 53.7169 25.4546 50.9091V35.6364C25.4545 32.8286 23.1714 30.5454 20.3637 30.5454Z" fill="#616CF5"/>
<path d="M49.6368 40.7273H45.8186V36.9091C45.8186 36.2056 45.2494 35.6363 44.5459 35.6363H42.0004C41.2969 35.6363 40.7277 36.2056 40.7277 36.9091V40.7273H36.9095C36.206 40.7273 35.6367 41.2965 35.6367 42V44.5455C35.6367 45.249 36.206 45.8182 36.9095 45.8182H40.7277V49.6364C40.7277 50.3399 41.2969 50.9092 42.0004 50.9092H44.5459C45.2494 50.9092 45.8186 50.3399 45.8186 49.6364V45.8182H49.6368C50.3403 45.8182 50.9096 45.249 50.9096 44.5455V42C50.9096 41.2965 50.3403 40.7273 49.6368 40.7273Z" fill="#616CF5"/>
</svg>
