<svg width="40" height="40" viewBox="0 0 40 40" fill="none" xmlns="http://www.w3.org/2000/svg">
<circle cx="20" cy="20" r="20" fill="#616CF5"/>
<path fill-rule="evenodd" clip-rule="evenodd" d="M13.5761 20.4106C13.2507 20.736 13.2507 21.2637 13.5761 21.5891C13.9015 21.9145 14.4292 21.9145 14.7546 21.5891L19.1654 17.1783L19.1654 26.8332C19.1654 27.2934 19.5385 27.6665 19.9987 27.6665C20.4589 27.6665 20.832 27.2934 20.832 26.8332L20.832 17.1783L25.2428 21.5891C25.5682 21.9145 26.0958 21.9145 26.4213 21.5891C26.7467 21.2637 26.7467 20.736 26.4213 20.4106L20.588 14.5772C20.2625 14.2518 19.7349 14.2518 19.4094 14.5772L13.5761 20.4106Z" fill="white"/>
</svg>
