<svg width="16" height="16" viewBox="0 0 16 16" fill="none" xmlns="http://www.w3.org/2000/svg">
<path fill-rule="evenodd" clip-rule="evenodd" d="M8.46207 0.5H7.53579C7.01412 0.5 6.51396 0.703663 6.14597 1.06593C5.8198 1.38703 5.62028 1.81037 5.58181 2.26085L5.57543 2.40636C5.56831 2.88014 5.18556 3.24976 4.71576 3.24971C4.60921 3.2486 4.49856 3.22428 4.39669 3.17847L4.29676 3.12628C3.37366 2.60763 2.17346 2.92532 1.63188 3.84624L1.14492 4.63022C0.627119 5.51036 0.882506 6.61607 1.71836 7.18556L1.83461 7.25863C2.12112 7.42129 2.2849 7.69922 2.2849 8C2.2849 8.27661 2.14618 8.53526 1.91484 8.69213L1.83586 8.74059C0.969885 9.23092 0.62868 10.3131 1.06397 11.2133L1.12759 11.3331L1.60559 12.1418C1.85404 12.5812 2.2798 12.9123 2.78334 13.0525C3.22965 13.1767 3.70595 13.1424 4.12821 12.9563L4.26174 12.891C4.48647 12.7637 4.71863 12.7332 4.93653 12.7903C5.15443 12.8474 5.34002 12.9875 5.45202 13.1793C5.51378 13.2814 5.55003 13.3867 5.56297 13.4957L5.56934 13.6065C5.56824 14.6369 6.44914 15.5 7.53579 15.5H8.4623C9.48836 15.5 10.34 14.7277 10.4233 13.7311L10.4293 13.6023C10.4288 13.3534 10.5187 13.1393 10.6795 12.9817C10.8404 12.824 11.059 12.736 11.2865 12.737C11.3911 12.7399 11.506 12.7655 11.6125 12.8122L11.7145 12.8637C12.5758 13.3508 13.7044 13.1006 14.2856 12.2817L14.3602 12.1678L14.8549 11.3603C15.1213 10.9125 15.1934 10.3863 15.0589 9.89224C14.9397 9.45434 14.6665 9.07229 14.2883 8.81307L14.163 8.73447C13.9454 8.6112 13.802 8.42809 13.7435 8.21328C13.685 7.99847 13.7164 7.76968 13.8306 7.57759C13.8939 7.46943 13.978 7.37942 14.0788 7.31051L14.2718 7.19171C15.0532 6.67195 15.3459 5.64889 14.9346 4.78881L14.8919 4.70506C14.8827 4.68321 14.872 4.66191 14.8599 4.6413L14.4 3.85946C13.8883 2.98939 12.7819 2.65173 11.8595 3.07662L11.7366 3.13879C11.5162 3.26516 11.2834 3.2971 11.0643 3.24135C10.8451 3.18561 10.6576 3.04675 10.5431 2.85541C10.4843 2.75837 10.4481 2.6531 10.4351 2.54401L10.4288 2.43324C10.4449 1.96226 10.2444 1.45761 9.8737 1.08403C9.50305 0.710461 8.99384 0.499786 8.46207 0.5ZM7.5357 1.58581H8.46221C8.69468 1.58571 8.91707 1.67772 9.07895 1.84087C9.24082 2.00403 9.3284 2.22443 9.32174 2.45187L9.33158 2.64091C9.36509 2.92988 9.45166 3.18128 9.58848 3.40712C9.85039 3.84474 10.2816 4.1641 10.7856 4.29231C11.2896 4.42052 11.825 4.34706 12.2737 4.08812L12.351 4.04949L12.4343 4.01683C12.8005 3.8964 13.2322 4.04882 13.4397 4.40157L13.8783 5.14795L13.8878 5.16897L13.9408 5.26913C14.1183 5.64128 13.97 6.11203 13.5859 6.3321L13.4654 6.40649C13.2097 6.5805 13.0136 6.79037 12.8709 7.03447C12.6102 7.4728 12.5381 7.999 12.6726 8.49305C12.7948 8.94219 13.0786 9.33108 13.4691 9.58964L13.6733 9.71612C13.8174 9.8155 13.9362 9.98163 13.988 10.172C14.0465 10.3868 14.0151 10.6156 13.9009 10.8077L13.4176 11.5968L13.3632 11.68C13.1396 11.9944 12.6984 12.1111 12.3265 11.9511L12.0895 11.8325C11.8252 11.716 11.5666 11.6583 11.3039 11.6514C10.7684 11.6488 10.2658 11.8514 9.8958 12.2139C9.52576 12.5764 9.31899 13.0688 9.32152 13.5816L9.31727 13.6634C9.28232 14.0767 8.91019 14.4142 8.46221 14.4142H7.5357C7.09276 14.4142 6.7281 14.0859 6.68144 13.664L6.66633 13.3989C6.63282 13.1099 6.54625 12.8585 6.40944 12.6326C6.15512 12.197 5.72636 11.8734 5.22294 11.7414C4.71951 11.6094 4.18312 11.6799 3.73301 11.9373L3.65147 11.9764C3.48917 12.0473 3.28114 12.0623 3.08622 12.008C2.86631 11.9468 2.68037 11.8022 2.56955 11.6063L2.09761 10.8087L2.0554 10.7288C1.87662 10.358 2.02506 9.88722 2.4097 9.6692L2.52655 9.59722C3.0755 9.22553 3.39306 8.63342 3.39306 8C3.39306 7.35721 3.06638 6.76 2.52787 6.40326L2.33233 6.28194C1.98683 6.046 1.87523 5.56283 2.09837 5.18342L2.58534 4.39944C2.82859 3.98612 3.35276 3.84737 3.76383 4.07814L3.90811 4.1527C4.17757 4.2747 4.44181 4.33276 4.70985 4.33549C5.74968 4.33562 6.59995 3.55316 6.67754 2.55613L6.68762 2.32746C6.70284 2.15556 6.7896 1.97148 6.93141 1.83187C7.09141 1.67436 7.30888 1.58581 7.5357 1.58581ZM8.00249 5.54887C6.62077 5.54887 5.50067 6.64629 5.50067 8.00001C5.50067 9.35373 6.62077 10.4511 8.00249 10.4511C9.38421 10.4511 10.5043 9.35373 10.5043 8.00001C10.5043 6.64629 9.38421 5.54887 8.00249 5.54887ZM8.00251 6.63468C8.77216 6.63468 9.39608 7.24596 9.39608 8.00001C9.39608 8.75406 8.77216 9.36534 8.00251 9.36534C7.23287 9.36534 6.60895 8.75406 6.60895 8.00001C6.60895 7.24596 7.23287 6.63468 8.00251 6.63468Z" fill="#616CF5"/>
</svg>
