<svg width="18" height="18" viewBox="0 0 18 18" fill="none" xmlns="http://www.w3.org/2000/svg">
<path fill-rule="evenodd" clip-rule="evenodd" d="M1.49211 3.06049C1.75571 2.62403 3.20808 1.03651 4.24451 1.08444C4.55433 1.11011 4.8282 1.29753 5.05072 1.51491C5.56166 2.01384 7.0243 3.90089 7.10732 4.29798C7.3093 5.27188 6.14877 5.83329 6.50395 6.8149C7.40943 9.03057 8.96964 10.5907 11.1863 11.4953C12.1671 11.8504 12.7285 10.69 13.7025 10.8928C14.0987 10.9758 15.9867 12.4384 16.4857 12.9493C16.7022 13.171 16.8905 13.4457 16.9162 13.7555C16.9547 14.8466 15.2687 16.3195 14.94 16.5077C14.1646 17.0623 13.153 17.0529 11.9197 16.4795C8.47838 15.0477 2.97871 9.65189 1.52035 6.08062C0.962336 4.85425 0.923823 3.83584 1.49211 3.06049Z" stroke="#8C94A5" stroke-width="1.5" stroke-linecap="round" stroke-linejoin="round"/>
</svg>
