<svg width="71" height="71" viewBox="0 0 71 71" fill="none" xmlns="http://www.w3.org/2000/svg">
<path fill-rule="evenodd" clip-rule="evenodd" d="M35.5622 3.5498C16.9992 3.5498 3.54828 18.7137 3.54828 35.5478C3.54828 40.9235 5.11383 46.4559 7.86153 51.5116C8.37273 52.3467 8.43663 53.3995 8.08518 54.3946L5.94453 61.5622C5.46528 63.2901 6.93498 64.5668 8.56443 64.0548L15.0183 62.1381C16.7756 61.5622 18.1494 62.2949 19.7789 63.2901C24.4436 66.0387 30.2585 67.4498 35.4983 67.4498C51.3455 67.4498 67.4483 55.1946 67.4483 35.4518C67.4483 18.4257 53.7098 3.5498 35.5622 3.5498Z" stroke="#616CF5" stroke-width="2.16" stroke-linecap="round" stroke-linejoin="round"/>
<path d="M24.9114 34.6123C23.4076 34.6123 22.1875 35.8304 22.1875 37.3344C22.1875 38.8385 23.4076 40.0566 24.9114 40.0566C26.4151 40.0566 27.6353 38.8385 27.6353 37.3344C27.6353 35.8304 26.4151 34.6123 24.9114 34.6123Z" fill="#616CF5"/>
<path d="M35.5042 34.6123C34.0004 34.6123 32.7803 35.8304 32.7803 37.3344C32.7803 38.8385 34.0004 40.0566 35.5042 40.0566C37.0079 40.0566 38.2281 38.8385 38.2281 37.3344C38.2281 35.8304 37.0079 34.6123 35.5042 34.6123Z" fill="#616CF5"/>
<path d="M46.0883 34.6123C44.5846 34.6123 43.3644 35.8304 43.3644 37.3344C43.3644 38.8385 44.5846 40.0566 46.0883 40.0566C47.5921 40.0566 48.8122 38.8385 48.8122 37.3344C48.8122 35.8304 47.5921 34.6123 46.0883 34.6123Z" fill="#616CF5"/>
</svg>
