<svg width="13" height="13" viewBox="0 0 13 13" fill="none" xmlns="http://www.w3.org/2000/svg">
<path d="M6.50065 9.75008C6.79981 9.75008 7.04232 9.50757 7.04232 9.20841C7.04232 8.90926 6.79981 8.66675 6.50065 8.66675C6.2015 8.66675 5.95898 8.90926 5.95898 9.20841C5.95898 9.50757 6.2015 9.75008 6.50065 9.75008Z" fill="#111111"/>
<path fill-rule="evenodd" clip-rule="evenodd" d="M6.6937 4.63691C6.43068 4.64846 6.29042 4.75428 6.24187 4.85744C6.11448 5.12811 5.79178 5.24427 5.52111 5.11688C5.25043 4.98948 5.13428 4.66679 5.26167 4.39611C5.54452 3.79513 6.15386 3.57623 6.6462 3.55462C7.11979 3.53383 7.70916 3.68468 8.03522 4.10987C8.28613 4.43707 8.4271 4.85182 8.37017 5.28792C8.31245 5.73011 8.06023 6.12676 7.65097 6.42784C7.10446 6.82989 7.10543 7.03502 7.10557 7.06489C7.10557 7.06532 7.10558 7.06572 7.10558 7.06608C7.10558 7.36524 6.86306 7.60775 6.56391 7.60775C6.26476 7.60775 6.02224 7.36524 6.02224 7.06608C6.02224 6.54787 6.32367 6.05939 7.009 5.55521C7.21965 5.40024 7.28234 5.25196 7.29595 5.1477C7.31036 5.03733 7.27907 4.90409 7.17556 4.76911C7.16828 4.75962 7.12871 4.7201 7.02965 4.6845C6.93507 4.65051 6.81613 4.63154 6.6937 4.63691Z" fill="#111111"/>
<path d="M6.50033 12.4584C3.19616 12.4584 0.541992 9.80425 0.541992 6.50008C0.541992 3.19591 3.19616 0.541748 6.50033 0.541748C9.80449 0.541748 12.4587 3.19591 12.4587 6.50008C12.4587 9.80425 9.80449 12.4584 6.50033 12.4584ZM6.50033 1.62508C3.79199 1.62508 1.62533 3.79175 1.62533 6.50008C1.62533 9.20842 3.79199 11.3751 6.50033 11.3751C9.20866 11.3751 11.3753 9.20842 11.3753 6.50008C11.3753 3.79175 9.20866 1.62508 6.50033 1.62508Z" fill="#222222"/>
</svg>
