<svg width="71" height="71" viewBox="0 0 71 71" fill="none" xmlns="http://www.w3.org/2000/svg">
<ellipse cx="34.2581" cy="21.531" rx="14.135" ry="14.135" stroke="#616CF5" stroke-width="3" stroke-linecap="round" stroke-linejoin="round"/>
<path fill-rule="evenodd" clip-rule="evenodd" d="M11.3965 51.6885C11.3927 50.6948 11.615 49.7133 12.0464 48.8181C13.4003 46.1103 17.2184 44.6751 20.3866 44.0252C22.6715 43.5376 24.988 43.2119 27.3187 43.0504C31.634 42.6713 35.9741 42.6713 40.2894 43.0504C42.6199 43.2137 44.9362 43.5395 47.2215 44.0252C50.3897 44.6751 54.2077 45.9749 55.5617 48.8181C56.4293 50.6428 56.4293 52.7612 55.5617 54.5859C54.2077 57.4291 50.3897 58.7289 47.2215 59.3517C44.9392 59.8595 42.622 60.1944 40.2894 60.3536C36.7771 60.6513 33.2485 60.7056 29.7287 60.5161C28.9164 60.5161 28.1311 60.5161 27.3187 60.3536C24.9948 60.1964 22.6864 59.8614 20.4137 59.3517C17.2184 58.7289 13.4274 57.4291 12.0464 54.5859C11.6172 53.6804 11.3952 52.6906 11.3965 51.6885Z" stroke="#616CF5" stroke-width="3" stroke-linecap="round" stroke-linejoin="round"/>
</svg>
