<svg width="18" height="18" viewBox="0 0 18 18" fill="none" xmlns="http://www.w3.org/2000/svg">
<path d="M9 3C13.5562 3 17.25 5.0145 17.25 7.5V10.5C17.25 12.9855 13.5562 15 9 15C4.52475 15 0.882 13.0567 0.75375 10.6327L0.75 10.5V7.5C0.75 5.0145 4.44375 3 9 3ZM9 12C6.21 12 3.7425 11.2447 2.25 10.0875V10.5C2.25 11.9115 5.16225 13.5 9 13.5C12.7575 13.5 15.6285 11.9775 15.7462 10.5885L15.75 10.5L15.7507 10.0875C14.2582 11.244 11.7907 12 9 12ZM9 4.5C5.16225 4.5 2.25 6.0885 2.25 7.5C2.25 8.9115 5.16225 10.5 9 10.5C12.8377 10.5 15.75 8.9115 15.75 7.5C15.75 6.0885 12.8377 4.5 9 4.5Z" fill="#222222"/>
</svg>
