<svg width="85" height="85" viewBox="0 0 85 85" fill="none" xmlns="http://www.w3.org/2000/svg">
<g clip-path="url(#clip0)">
<path d="M59.1836 35.025C59.7368 35.5783 59.7368 36.4751 59.1836 37.0285L45.3121 50.8999C45.0353 51.1765 44.673 51.3149 44.3103 51.3149C43.0594 51.3149 42.4134 49.7918 43.3086 48.8964L57.18 35.025C57.7332 34.4719 58.6302 34.4719 59.1836 35.025ZM58.6442 46.6321C60.1901 46.6321 61.4479 47.8901 61.4479 49.436C61.4479 50.9819 60.1901 52.2398 58.6442 52.2398C57.0982 52.2398 55.8402 50.9819 55.8402 49.436C55.8402 47.8901 57.0982 46.6321 58.6442 46.6321ZM58.6146 49.436C58.6146 49.4688 58.6736 49.4688 58.6736 49.436C58.6736 49.4034 58.6146 49.4034 58.6146 49.436ZM47.5764 35.5643C47.5764 37.1103 46.3184 38.3683 44.7725 38.3683C43.2266 38.3683 41.9688 37.1103 41.9688 35.5643C41.9688 34.0184 43.2266 32.7606 44.7725 32.7606C46.3184 32.7606 47.5764 34.0184 47.5764 35.5643ZM44.7725 35.535C44.7332 35.535 44.7341 35.5939 44.7725 35.5939C44.8115 35.5939 44.8116 35.535 44.7725 35.535ZM79.3333 14.521H34.2656C33.4833 14.521 32.849 15.1553 32.849 15.9377C32.849 16.72 33.4833 17.3543 34.2656 17.3543H79.3333C80.8956 17.3543 82.1667 18.6254 82.1667 20.1877V64.8127C82.1667 66.3749 80.8956 67.646 79.3333 67.646H25.8542V64.6467C25.8542 63.8644 25.2199 63.2301 24.4375 63.2301C23.6551 63.2301 23.0208 63.8644 23.0208 64.6467V67.646H5.66667C4.10444 67.646 2.83333 66.3749 2.83333 64.8127V57.0099C2.83333 55.9624 3.39115 55.0139 4.28949 54.5344C13.9072 49.4002 13.9046 35.5982 4.28931 30.4656C3.39115 29.9864 2.83333 29.0379 2.83333 27.9905V20.1877C2.83333 18.6254 4.10444 17.3543 5.66667 17.3543H23.0208V20.3536C23.0208 21.1359 23.6551 21.7703 24.4375 21.7703C25.2199 21.7703 25.8542 21.1359 25.8542 20.3536V15.9377C25.8542 15.1553 25.2199 14.521 24.4375 14.521H5.66667C2.54203 14.521 0 17.063 0 20.1877V27.9905C0 30.0863 1.13245 31.9926 2.95517 32.9655C10.5759 37.0331 10.5744 47.9682 2.95534 52.0352C1.13245 53.0079 0 54.9142 0 57.01V64.8127C0 67.9373 2.54203 70.4793 5.66667 70.4793H79.3333C82.458 70.4793 85 67.9373 85 64.8127V20.1877C85 17.063 82.458 14.521 79.3333 14.521ZM25.8542 31.0579C25.8542 30.2756 25.2199 29.6413 24.4375 29.6413C23.6551 29.6413 23.0208 30.2756 23.0208 31.0579V36.6036C23.0208 37.386 23.6551 38.0203 24.4375 38.0203C25.2199 38.0203 25.8542 37.386 25.8542 36.6036V31.0579ZM24.4375 46.98C23.6551 46.98 23.0208 47.6143 23.0208 48.3967V53.9424C23.0208 54.7248 23.6551 55.3591 24.4375 55.3591C25.2199 55.3591 25.8542 54.7248 25.8542 53.9424V48.3967C25.8542 47.6143 25.2199 46.98 24.4375 46.98Z" fill="#616CF5"/>
</g>
<defs>
<clipPath id="clip0">
<rect width="85" height="85" fill="white"/>
</clipPath>
</defs>
</svg>
