<svg width="18" height="18" viewBox="0 0 18 18" fill="none" xmlns="http://www.w3.org/2000/svg">
<rect width="18" height="18" rx="9" fill="#8C94A5"/>
<path fill-rule="evenodd" clip-rule="evenodd" d="M12.2002 5.79897C12.3866 5.98536 12.3866 6.28755 12.2002 6.47394L6.47296 12.2012C6.28657 12.3876 5.98438 12.3876 5.79799 12.2012C5.61161 12.0148 5.61161 11.7126 5.79799 11.5262L11.5253 5.79897C11.7117 5.61258 12.0138 5.61258 12.2002 5.79897Z" fill="white"/>
<path fill-rule="evenodd" clip-rule="evenodd" d="M5.79799 5.79897C5.98438 5.61258 6.28657 5.61258 6.47296 5.79897L12.2002 11.5262C12.3866 11.7126 12.3866 12.0148 12.2002 12.2012C12.0138 12.3876 11.7117 12.3876 11.5253 12.2012L5.79799 6.47394C5.61161 6.28755 5.61161 5.98536 5.79799 5.79897Z" fill="white"/>
</svg>
