<svg width="14" height="14" viewBox="0 0 14 14" fill="none" xmlns="http://www.w3.org/2000/svg">
<path d="M2.19674 3.70388C2.19674 2.87122 2.87207 2.19588 3.70407 2.19588H4.39007C4.78741 2.19588 5.16941 2.03855 5.45207 1.75788L5.93141 1.27788C6.51874 0.687881 7.47341 0.685215 8.06341 1.27255L8.06941 1.27788L8.54941 1.75788C8.83141 2.03855 9.21341 2.19588 9.61141 2.19588H10.2967C11.1294 2.19588 11.8047 2.87122 11.8047 3.70388V4.38855C11.8047 4.78722 11.9621 5.16855 12.2427 5.45122L12.7227 5.93122C13.3127 6.51855 13.3161 7.47255 12.7287 8.06322L12.7227 8.06922L12.2427 8.54922C11.9621 8.83055 11.8047 9.21322 11.8047 9.61055V10.2965C11.8047 11.1292 11.1294 11.8039 10.2967 11.8039H9.61141C9.21341 11.8039 8.83141 11.9619 8.54941 12.2425L8.06941 12.7219C7.48274 13.3126 6.52807 13.3152 5.93741 12.7279C5.93541 12.7259 5.93341 12.7239 5.93141 12.7219L5.45207 12.2425C5.16941 11.9619 4.78741 11.8039 4.39007 11.8039H3.70407C2.87207 11.8039 2.19674 11.1292 2.19674 10.2965V9.61055C2.19674 9.21322 2.03874 8.83055 1.75807 8.54922L1.27874 8.06922C0.688074 7.48188 0.685407 6.52722 1.27274 5.93722L1.27874 5.93122L1.75807 5.45122C2.03874 5.16855 2.19674 4.78722 2.19674 4.38855V3.70388" stroke="#222222" stroke-linecap="round" stroke-linejoin="round"/>
<path d="M5.28711 8.71301L8.71378 5.28635" stroke="#222222" stroke-linecap="round" stroke-linejoin="round"/>
<path d="M8.71094 9.21494C8.5776 9.21494 8.45094 9.1616 8.3576 9.06827C8.31094 9.0216 8.2776 8.9616 8.25094 8.9016C8.22427 8.8416 8.21094 8.78227 8.21094 8.71494C8.21094 8.64827 8.22427 8.5816 8.25094 8.5216C8.2776 8.4616 8.31094 8.40827 8.3576 8.3616C8.54427 8.17494 8.8776 8.17494 9.06427 8.3616C9.11094 8.40827 9.15094 8.4616 9.1776 8.5216C9.1976 8.5816 9.21094 8.64827 9.21094 8.71494C9.21094 8.78227 9.1976 8.8416 9.1776 8.9016C9.15094 8.9616 9.11094 9.0216 9.06427 9.06827C8.97094 9.1616 8.84427 9.21494 8.71094 9.21494Z" fill="#200E32"/>
<path d="M8.71094 9.21494C8.5776 9.21494 8.45094 9.1616 8.3576 9.06827C8.31094 9.0216 8.2776 8.9616 8.25094 8.9016C8.22427 8.8416 8.21094 8.78227 8.21094 8.71494C8.21094 8.64827 8.22427 8.5816 8.25094 8.5216C8.2776 8.4616 8.31094 8.40827 8.3576 8.3616C8.54427 8.17494 8.8776 8.17494 9.06427 8.3616C9.11094 8.40827 9.15094 8.4616 9.1776 8.5216C9.1976 8.5816 9.21094 8.64827 9.21094 8.71494C9.21094 8.78227 9.1976 8.8416 9.1776 8.9016C9.15094 8.9616 9.11094 9.0216 9.06427 9.06827C8.97094 9.1616 8.84427 9.21494 8.71094 9.21494" stroke="#222222"/>
<path d="M5.28516 5.78854C5.21849 5.78854 5.15849 5.77454 5.09849 5.74788C5.03849 5.72121 4.97849 5.68854 4.93182 5.64188C4.88516 5.58854 4.85182 5.53521 4.82516 5.47521C4.79849 5.41454 4.78516 5.35521 4.78516 5.28854C4.78516 5.22121 4.79849 5.15521 4.82516 5.09521C4.85182 5.03521 4.88516 4.97521 4.93182 4.93521C5.12516 4.74787 5.45182 4.74787 5.63849 4.93521C5.73182 5.02787 5.78516 5.15521 5.78516 5.28854C5.78516 5.35521 5.77849 5.41454 5.75182 5.47521C5.72516 5.53521 5.68516 5.58854 5.63849 5.64188C5.59182 5.68854 5.53849 5.72121 5.47849 5.74788C5.41849 5.77454 5.35182 5.78854 5.28516 5.78854Z" fill="#200E32"/>
<path d="M5.28516 5.78854C5.21849 5.78854 5.15849 5.77454 5.09849 5.74788C5.03849 5.72121 4.97849 5.68854 4.93182 5.64188C4.88516 5.58854 4.85182 5.53521 4.82516 5.47521C4.79849 5.41454 4.78516 5.35521 4.78516 5.28854C4.78516 5.22121 4.79849 5.15521 4.82516 5.09521C4.85182 5.03521 4.88516 4.97521 4.93182 4.93521C5.12516 4.74787 5.45182 4.74787 5.63849 4.93521C5.73182 5.02787 5.78516 5.15521 5.78516 5.28854C5.78516 5.35521 5.77849 5.41454 5.75182 5.47521C5.72516 5.53521 5.68516 5.58854 5.63849 5.64188C5.59182 5.68854 5.53849 5.72121 5.47849 5.74788C5.41849 5.77454 5.35182 5.78854 5.28516 5.78854" stroke="#222222"/>
</svg>
