<svg width="20" height="20" viewBox="0 0 20 20" fill="none" xmlns="http://www.w3.org/2000/svg">
<path fill-rule="evenodd" clip-rule="evenodd" d="M-9.15527e-05 10C-9.15527e-05 4.48 4.46991 0 9.99991 0C15.5199 0 19.9999 4.48 19.9999 10C19.9999 15.53 15.5199 20 9.99991 20C4.46991 20 -9.15527e-05 15.53 -9.15527e-05 10ZM12.2299 11.83L13.8499 6.71C13.9599 6.36 13.6399 6.03 13.2899 6.14L8.16991 7.74C7.95991 7.81 7.78991 7.97 7.72991 8.18L6.12991 13.31C6.01991 13.65 6.34991 13.98 6.68991 13.87L11.7899 12.27C11.9999 12.21 12.1699 12.04 12.2299 11.83Z" fill="white"/>
</svg>
