<svg width="24" height="24" viewBox="0 0 24 24" fill="none" xmlns="http://www.w3.org/2000/svg">
<path d="M12 0C5.36775 0 0 5.36705 0 12C0 18.6322 5.36705 24 12 24C18.6322 24 24 18.633 24 12C24 5.36775 18.633 0 12 0ZM12 22.4C6.26545 22.4 1.59998 17.7346 1.59998 12C1.59998 6.26541 6.26545 1.59998 12 1.59998C17.7345 1.59998 22.4 6.26545 22.4 12C22.4 17.7345 17.7345 22.4 12 22.4Z" fill="#577BEC"/>
<path d="M11.6956 14.6226C11.1274 14.6226 10.6674 15.096 10.6674 15.6643C10.6674 16.219 11.1139 16.7061 11.6956 16.7061C12.2774 16.7061 12.7374 16.219 12.7374 15.6643C12.7374 15.096 12.2638 14.6226 11.6956 14.6226Z" fill="#577BEC"/>
<path d="M11.8715 6.73486C10.0451 6.73486 9.20618 7.81725 9.20618 8.5478C9.20618 9.07547 9.65271 9.31899 10.018 9.31899C10.7486 9.31899 10.4509 8.27724 11.8309 8.27724C12.5074 8.27724 13.0486 8.57485 13.0486 9.19725C13.0486 9.9278 12.291 10.3473 11.8445 10.726C11.4521 11.0643 10.938 11.619 10.938 12.7826C10.938 13.486 11.1274 13.6891 11.6821 13.6891C12.3451 13.6891 12.4803 13.3914 12.4803 13.1343C12.4803 12.4309 12.4938 12.0249 13.2379 11.4432C13.6033 11.1591 14.7533 10.2391 14.7533 8.96729C14.7533 7.69552 13.6033 6.73486 11.8715 6.73486Z" fill="#577BEC"/>
</svg>
