<svg width="92" height="92" viewBox="0 0 92 92" fill="none" xmlns="http://www.w3.org/2000/svg">
<path d="M90.2151 37.8763L81.5901 27.8138C81.4661 27.6685 81.3139 27.55 81.1427 27.4652V27.4634L46.6427 10.2134C46.4428 10.1142 46.2226 10.0625 45.9994 10.0625C45.7762 10.0625 45.5561 10.1142 45.3562 10.2134L10.8562 27.4634V27.4652C10.685 27.55 10.5328 27.6685 10.4087 27.8138L1.78374 37.8763C1.64158 38.0423 1.53907 38.2384 1.48399 38.4498C1.4289 38.6613 1.42268 38.8825 1.4658 39.0967C1.50892 39.3109 1.60025 39.5125 1.73285 39.6862C1.86546 39.8598 2.03587 40.001 2.23116 40.0991L10.0619 44.0127V63.25C10.062 63.517 10.1363 63.7787 10.2765 64.006C10.4168 64.2332 10.6175 64.4169 10.8562 64.5366L45.3562 81.7866C45.5561 81.8858 45.7762 81.9375 45.9994 81.9375C46.2226 81.9375 46.4428 81.8858 46.6427 81.7866L81.1427 64.5366C81.3814 64.4169 81.5821 64.2332 81.7224 64.006C81.8626 63.7787 81.9369 63.517 81.937 63.25V44.0127L89.7677 40.0991C89.963 40.001 90.1334 39.8598 90.266 39.6862C90.3986 39.5125 90.49 39.3109 90.5331 39.0967C90.5762 38.8825 90.57 38.6613 90.5149 38.4498C90.4598 38.2384 90.3573 38.0423 90.2151 37.8763ZM5.16366 38.3507L11.8606 30.5379L43.7102 46.4618L37.0133 54.2746L5.16366 38.3507ZM44.5619 78.1748L12.9369 62.3623V45.4502L36.7312 57.3491C37.018 57.4919 37.3442 57.5349 37.6583 57.4715C37.9724 57.408 38.2563 57.2416 38.4651 56.9987L44.5619 49.8866V78.1748ZM45.9994 44.3936L14.714 28.75L45.9994 13.1064L77.2848 28.75L45.9994 44.3936ZM79.062 62.3623L47.4369 78.1748V49.8866L53.5337 56.9987C53.7426 57.2416 54.0265 57.408 54.3406 57.4715C54.6547 57.5349 54.9809 57.4919 55.2677 57.3491L79.062 45.4502V62.3623ZM54.9856 54.2746L48.2887 46.4618L80.1383 30.5379L86.8352 38.3507L54.9856 54.2746Z" fill="#616CF5"/>
</svg>
