<svg width="45" height="45" viewBox="0 0 45 45" fill="none" xmlns="http://www.w3.org/2000/svg">
<path d="M22.0391 2C18.0757 2 14.2014 3.17527 10.906 5.37719C7.61056 7.57911 5.0421 10.7088 3.52539 14.3704C2.00868 18.0321 1.61184 22.0613 2.38505 25.9485C3.15827 29.8357 5.0668 33.4063 7.86931 36.2088C10.6718 39.0113 14.2424 40.9199 18.1296 41.6931C22.0168 42.4663 26.046 42.0694 29.7077 40.5527C33.3693 39.036 36.499 36.4676 38.7009 33.1722C40.9029 29.8768 42.0781 26.0024 42.0781 22.0391C42.0721 16.7262 39.959 11.6327 36.2022 7.87592C32.4454 4.11917 27.3519 2.00599 22.0391 2ZM22.0391 40.475C18.3928 40.475 14.8284 39.3937 11.7966 37.368C8.76484 35.3422 6.40186 32.4629 5.00649 29.0942C3.61111 25.7255 3.24602 22.0186 3.95737 18.4424C4.66873 14.8662 6.42458 11.5812 9.00289 9.00288C11.5812 6.42457 14.8662 4.66872 18.4424 3.95737C22.0186 3.24601 25.7255 3.6111 29.0942 5.00648C32.4629 6.40185 35.3422 8.76483 37.368 11.7966C39.3938 14.8284 40.475 18.3928 40.475 22.0391C40.4695 26.9269 38.5254 31.6129 35.0691 35.0691C31.6129 38.5254 26.9269 40.4695 22.0391 40.475ZM29.0183 16.1937L23.1727 22.0391L29.0183 27.8849C29.0941 27.959 29.1544 28.0474 29.1958 28.145C29.2372 28.2426 29.2589 28.3474 29.2595 28.4534C29.2601 28.5595 29.2396 28.6645 29.1993 28.7626C29.1591 28.8607 29.0997 28.9498 29.0247 29.0247C28.9498 29.0997 28.8607 29.1591 28.7626 29.1994C28.6646 29.2397 28.5595 29.2601 28.4535 29.2595C28.3475 29.259 28.2426 29.2374 28.145 29.196C28.0474 29.1546 27.959 29.0943 27.8849 29.0185L22.0391 23.1727L16.1933 29.0185C16.0424 29.166 15.8394 29.2481 15.6284 29.2469C15.4173 29.2457 15.2153 29.1613 15.0661 29.0121C14.9169 28.8628 14.8325 28.6608 14.8314 28.4497C14.8302 28.2387 14.9123 28.0357 15.0599 27.8849L20.9055 22.0391L15.0599 16.1937C14.9123 16.0428 14.8302 15.8398 14.8314 15.6288C14.8325 15.4178 14.9169 15.2157 15.0661 15.0665C15.2153 14.9172 15.4173 14.8329 15.6284 14.8317C15.8394 14.8305 16.0424 14.9125 16.1933 15.0601L22.0391 20.9054L27.8849 15.0599C27.959 14.9841 28.0474 14.9237 28.145 14.8823C28.2426 14.841 28.3475 14.8194 28.4535 14.8188C28.5595 14.8182 28.6646 14.8386 28.7626 14.8789C28.8607 14.9192 28.9498 14.9786 29.0247 15.0536C29.0997 15.1285 29.1591 15.2176 29.1993 15.3157C29.2396 15.4138 29.2601 15.5189 29.2595 15.6249C29.2589 15.7309 29.2372 15.8357 29.1958 15.9333C29.1544 16.0309 29.0941 16.1193 29.0183 16.1935V16.1937Z" fill="#D81919"/>
</svg>
