<svg width="18" height="14" viewBox="0 0 18 14" fill="none" xmlns="http://www.w3.org/2000/svg">
<path fill-rule="evenodd" clip-rule="evenodd" d="M9.00161 0.333496C12.4482 0.335153 15.544 2.73876 17.2832 6.76162C17.3498 6.91402 17.3498 7.0863 17.2832 7.23953C17.0765 7.71743 16.8465 8.18209 16.5982 8.61775C16.4323 8.91096 16.0624 9.01283 15.7674 8.84884C15.474 8.68319 15.3707 8.31461 15.5357 8.02306C15.7207 7.69756 15.8957 7.35383 16.0565 7.00016C14.5007 3.58028 11.8774 1.5469 8.99994 1.54607C6.12164 1.5469 3.49834 3.58028 1.94253 7.00016C3.49834 10.42 6.12164 12.4543 8.99994 12.4543C10.6733 12.4543 12.2874 11.7618 13.6682 10.4507C13.9124 10.2213 14.2974 10.2295 14.5299 10.4714C14.7632 10.7124 14.7532 11.0959 14.5099 11.327C12.8991 12.8568 10.9949 13.666 9.00161 13.6668H8.99827H8.99744C5.55165 13.6652 2.45586 11.2624 0.715878 7.23953C0.650046 7.08713 0.650046 6.91402 0.715878 6.76162C2.45586 2.73876 5.55165 0.335153 8.99744 0.333496H8.99994H9.00161ZM7.957 8.73255C8.27033 8.91974 8.63116 9.0183 8.99949 9.0183C10.1186 9.0183 11.0295 8.11302 11.0295 6.99983C11.0295 5.88831 10.1186 4.98302 8.99949 4.98302C7.88033 4.98302 6.96951 5.88831 6.96951 6.99983C6.96951 7.33528 6.69618 7.60612 6.35952 7.60612C6.02286 7.60612 5.75036 7.33528 5.75036 6.99983C5.75036 5.21907 7.20784 3.77045 8.99949 3.77045C10.7911 3.77045 12.2486 5.21907 12.2486 6.99983C12.2486 8.78142 10.7911 10.23 8.99949 10.23C8.40949 10.23 7.832 10.071 7.32951 9.77036C7.04035 9.59891 6.94701 9.2262 7.12118 8.93879C7.29451 8.65304 7.6695 8.55779 7.957 8.73255Z" fill="#200E32"/>
</svg>
