<svg width="20" height="20" viewBox="0 0 20 20" fill="none" xmlns="http://www.w3.org/2000/svg">
<path d="M9.99967 7.5C10.6627 7.5 11.2986 7.76339 11.7674 8.23223C12.2363 8.70107 12.4997 9.33696 12.4997 10C12.4997 10.663 12.2363 11.2989 11.7674 11.7678C11.2986 12.2366 10.6627 12.5 9.99967 12.5C9.33663 12.5 8.70075 12.2366 8.23191 11.7678C7.76307 11.2989 7.49967 10.663 7.49967 10C7.49967 9.33696 7.76307 8.70107 8.23191 8.23223C8.70075 7.76339 9.33663 7.5 9.99967 7.5ZM9.99967 3.75C14.1663 3.75 17.7247 6.34167 19.1663 10C17.7247 13.6583 14.1663 16.25 9.99967 16.25C5.83301 16.25 2.27467 13.6583 0.833008 10C2.27467 6.34167 5.83301 3.75 9.99967 3.75ZM2.64967 10C3.32322 11.3753 4.3691 12.534 5.66841 13.3444C6.96772 14.1548 8.46834 14.5844 9.99967 14.5844C11.531 14.5844 13.0316 14.1548 14.3309 13.3444C15.6303 12.534 16.6761 11.3753 17.3497 10C16.6761 8.62474 15.6303 7.46604 14.3309 6.65562C13.0316 5.8452 11.531 5.41557 9.99967 5.41557C8.46834 5.41557 6.96772 5.8452 5.66841 6.65562C4.3691 7.46604 3.32322 8.62474 2.64967 10Z" fill="#BDBDBD"/>
</svg>
