<svg width="16" height="16" viewBox="0 0 16 16" fill="none" xmlns="http://www.w3.org/2000/svg">
<path fill-rule="evenodd" clip-rule="evenodd" d="M2.25 4.75C2.25 3.64543 3.14543 2.75 4.25 2.75C5.35457 2.75 6.25 3.64543 6.25 4.75C6.25 5.85457 5.35457 6.75 4.25 6.75C3.14543 6.75 2.25 5.85457 2.25 4.75ZM7.66946 4C7.32612 2.42741 5.92556 1.25 4.25 1.25C2.317 1.25 0.75 2.817 0.75 4.75C0.75 6.683 2.317 8.25 4.25 8.25C5.92556 8.25 7.32612 7.07259 7.66946 5.5H13C13.4142 5.5 13.75 5.16421 13.75 4.75C13.75 4.33579 13.4142 4 13 4H7.66946ZM2.25 11.25C2.25 10.8358 2.58579 10.5 3 10.5H8.33054C8.67388 8.92741 10.0744 7.75 11.75 7.75C13.683 7.75 15.25 9.317 15.25 11.25C15.25 13.183 13.683 14.75 11.75 14.75C10.0744 14.75 8.67388 13.5726 8.33054 12H3C2.58579 12 2.25 11.6642 2.25 11.25ZM9.75 11.25C9.75 12.3546 10.6454 13.25 11.75 13.25C12.8546 13.25 13.75 12.3546 13.75 11.25C13.75 10.1454 12.8546 9.25 11.75 9.25C10.6454 9.25 9.75 10.1454 9.75 11.25Z" fill="#616CF5"/>
</svg>
