<svg width="24" height="24" viewBox="0 0 24 24" fill="none" xmlns="http://www.w3.org/2000/svg">
<g clip-path="url(#clip0)">
<path d="M5.26428 9.765C5.73216 8.34945 6.63514 7.11781 7.8444 6.2458C9.05365 5.37378 10.5074 4.90594 11.9983 4.909C13.6883 4.909 15.2163 5.509 16.4163 6.491L19.9083 3C17.7803 1.145 15.0533 0 11.9983 0C7.26828 0 3.19628 2.698 1.23828 6.65L5.26428 9.765Z" fill="#EA4335"/>
<path d="M16.0413 18.0131C14.9513 18.7161 13.5673 19.0911 12.0013 19.0911C10.5164 19.0941 9.06808 18.63 7.86152 17.7644C6.65495 16.8988 5.75122 15.6757 5.27828 14.2681L1.23828 17.3351C2.22953 19.3414 3.76355 21.0295 5.6661 22.2076C7.56866 23.3858 9.76349 24.0068 12.0013 24.0001C14.9343 24.0001 17.7363 22.9571 19.8353 21.0001L16.0423 18.0131H16.0413Z" fill="#34A853"/>
<path d="M19.834 21.0001C22.029 18.9521 23.454 15.9041 23.454 12.0001C23.454 11.2901 23.345 10.5271 23.182 9.81812H12V14.4551H18.436C18.119 16.0141 17.266 17.2211 16.041 18.0131L19.834 21.0001Z" fill="#4A90E2"/>
<path d="M5.27712 14.2679C5.03247 13.5368 4.90819 12.7708 4.90912 11.9999C4.90912 11.2179 5.03412 10.4669 5.26612 9.7649L1.24012 6.6499C0.416494 8.31259 -0.00807994 10.1444 0.000116455 11.9999C0.000116455 13.9199 0.445116 15.7299 1.23712 17.3349L5.27712 14.2679Z" fill="#FBBC05"/>
</g>
<defs>
<clipPath id="clip0">
<rect width="24" height="24" fill="white"/>
</clipPath>
</defs>
</svg>
