<svg width="22" height="22" viewBox="0 0 22 22" fill="none" xmlns="http://www.w3.org/2000/svg">
<rect width="22" height="22" rx="11" fill="#8C94A5"/>
<path fill-rule="evenodd" clip-rule="evenodd" d="M14.9128 7.08754C15.1406 7.31535 15.1406 7.68469 14.9128 7.9125L7.9128 14.9125C7.685 15.1403 7.31565 15.1403 7.08785 14.9125C6.86004 14.6847 6.86004 14.3153 7.08785 14.0875L14.0878 7.08754C14.3157 6.85974 14.685 6.85974 14.9128 7.08754Z" fill="white"/>
<path fill-rule="evenodd" clip-rule="evenodd" d="M7.08785 7.08754C7.31565 6.85974 7.685 6.85974 7.9128 7.08754L14.9128 14.0875C15.1406 14.3153 15.1406 14.6847 14.9128 14.9125C14.685 15.1403 14.3157 15.1403 14.0878 14.9125L7.08785 7.9125C6.86004 7.68469 6.86004 7.31535 7.08785 7.08754Z" fill="white"/>
</svg>
