<svg width="18" height="16" viewBox="0 0 18 16" fill="none" xmlns="http://www.w3.org/2000/svg">
<path fill-rule="evenodd" clip-rule="evenodd" d="M8.99986 5.99967C7.87903 5.99967 6.96737 6.89629 6.96737 8.00045C6.96737 8.32612 7.0557 8.63621 7.2057 8.91758L9.93236 6.23347C9.64736 6.08663 9.32903 5.99967 8.99986 5.99967ZM15.1541 1.09246C15.3924 0.85785 15.7783 0.85785 16.0166 1.09246C16.2549 1.32708 16.2549 1.70689 16.0166 1.9415L2.84577 14.9068C2.72661 15.0241 2.57077 15.0832 2.41494 15.0832C2.25827 15.0832 2.10244 15.0241 1.98327 14.9068C1.74494 14.6722 1.74494 14.2924 1.98327 14.0586L6.31327 9.79533C5.94743 9.27032 5.74827 8.65097 5.74827 8.00045C5.74827 6.23511 7.2066 4.79953 8.99993 4.79953C9.65576 4.79953 10.2941 4.99805 10.8249 5.35407L12.5199 3.68634C10.1299 2.15561 7.21577 2.28686 4.9391 4.06123C3.7366 4.99231 2.70411 6.35077 1.94327 8.00127C2.28161 8.73875 2.67494 9.4188 3.11327 10.0258C3.30827 10.2957 3.24411 10.6706 2.96994 10.8626C2.86244 10.9381 2.73911 10.9741 2.61661 10.9741C2.42577 10.9741 2.23827 10.8872 2.11911 10.7215C1.58411 9.98073 1.11161 9.14481 0.715775 8.23671C0.649942 8.08577 0.649942 7.9135 0.716608 7.76256C1.56744 5.8233 2.76577 4.2171 4.1841 3.11868C6.93243 0.978439 10.5424 0.872616 13.3974 2.82254L15.1541 1.09246ZM17.2831 7.76165C16.839 6.75347 16.309 5.84126 15.7056 5.05293C15.5023 4.78796 15.1206 4.73464 14.8523 4.93398C14.5823 5.13414 14.529 5.50985 14.7315 5.77482C15.229 6.42534 15.674 7.17266 16.0565 8.00037C14.4931 11.3883 11.8706 13.4022 8.9998 13.4022C8.3498 13.4022 7.70313 13.298 7.07813 13.093C6.7573 12.9904 6.41313 13.1578 6.3073 13.4728C6.20063 13.787 6.37313 14.1266 6.6923 14.2324C7.44147 14.4785 8.21813 14.6032 8.9998 14.6032C12.439 14.6032 15.5356 12.2234 17.2831 8.23744C17.3498 8.0865 17.3498 7.91341 17.2831 7.76165ZM10.9921 8.35615C10.8438 9.16828 10.1904 9.81305 9.36543 9.95989C9.03376 10.0198 8.81376 10.3323 8.87376 10.6588C8.92709 10.9484 9.18459 11.151 9.47293 11.151C9.50959 11.151 9.54626 11.1477 9.58292 11.142C10.9063 10.9049 11.9554 9.8713 12.1921 8.56861C12.2521 8.2413 12.0313 7.92958 11.6996 7.87134C11.3704 7.81227 11.0513 8.0313 10.9921 8.35615Z" fill="#535353"/>
</svg>
