<svg width="20" height="20" viewBox="0 0 20 20" fill="none" xmlns="http://www.w3.org/2000/svg">
<path d="M2.31699 9.99999C2.31699 9.64101 2.02598 9.34999 1.66699 9.34999C1.30801 9.34999 1.01699 9.64101 1.01699 9.99999H2.31699ZM4.10779 4.10741L3.64818 3.64779L3.64818 3.64779L4.10779 4.10741ZM3.21521 4.99999H2.56521C2.56521 5.35898 2.85623 5.64999 3.21521 5.64999V4.99999ZM3.86521 1.25C3.86521 0.891015 3.5742 0.6 3.21521 0.6C2.85623 0.6 2.56521 0.891015 2.56521 1.25H3.86521ZM6.96704 5.64999C7.32603 5.64999 7.61704 5.35898 7.61704 4.99999C7.61704 4.64101 7.32603 4.34999 6.96704 4.34999V5.64999ZM17.6837 9.99999C17.6837 14.2434 14.2437 17.6833 10.0003 17.6833V18.9833C14.9617 18.9833 18.9837 14.9614 18.9837 9.99999H17.6837ZM10.0003 17.6833C5.75694 17.6833 2.31699 14.2434 2.31699 9.99999H1.01699C1.01699 14.9614 5.03897 18.9833 10.0003 18.9833V17.6833ZM10.0003 2.31666C14.2437 2.31666 17.6837 5.75661 17.6837 9.99999H18.9837C18.9837 5.03864 14.9617 1.01666 10.0003 1.01666V2.31666ZM4.56741 4.56703C5.95853 3.17593 7.87846 2.31666 10.0003 2.31666V1.01666C7.51984 1.01666 5.27313 2.02285 3.64818 3.64779L4.56741 4.56703ZM3.64818 3.64779L2.75559 4.54037L3.67483 5.45961L4.56741 4.56703L3.64818 3.64779ZM3.86521 4.99999V1.25H2.56521V4.99999H3.86521ZM3.21521 5.64999H6.96704V4.34999H3.21521V5.64999Z" fill="#616CF5"/>
<path d="M10 5.4165V9.99984L12.5 12.4998" stroke="#616CF5" stroke-width="1.3" stroke-linecap="round" stroke-linejoin="round"/>
</svg>
