<svg width="12" height="12" viewBox="0 0 12 12" fill="none" xmlns="http://www.w3.org/2000/svg">
<path fill-rule="evenodd" clip-rule="evenodd" d="M5.99987 4.79971C5.32737 4.79971 4.78037 5.33768 4.78037 6.00018C4.78037 6.19558 4.83337 6.38163 4.92337 6.55045L6.55937 4.93998C6.38837 4.85188 6.19737 4.79971 5.99987 4.79971ZM9.69255 1.85558C9.83555 1.71481 10.0671 1.71481 10.2101 1.85558C10.3531 1.99634 10.3531 2.22423 10.2101 2.365L2.30756 10.1442C2.23606 10.2146 2.14256 10.25 2.04906 10.25C1.95506 10.25 1.86156 10.2146 1.79006 10.1442C1.64706 10.0034 1.64706 9.77552 1.79006 9.63525L4.38806 7.0773C4.16856 6.76229 4.04906 6.39068 4.04906 6.00037C4.04906 4.94116 4.92406 4.07982 6.00006 4.07982C6.39356 4.07982 6.77656 4.19893 7.09506 4.41254L8.11205 3.4119C6.67806 2.49346 4.92956 2.57222 3.56356 3.63684C2.84206 4.19548 2.22256 5.01056 1.76606 6.00086C1.96906 6.44335 2.20506 6.85138 2.46806 7.2156C2.58506 7.37754 2.54656 7.60247 2.38206 7.71765C2.31756 7.76293 2.24356 7.78458 2.17006 7.78458C2.05556 7.78458 1.94306 7.73241 1.87156 7.63299C1.55056 7.18853 1.26706 6.68698 1.02956 6.14212C0.990063 6.05156 0.990063 5.9482 1.03006 5.85763C1.54056 4.69408 2.25956 3.73036 3.11056 3.0713C4.75956 1.78716 6.92556 1.72367 8.63855 2.89362L9.69255 1.85558ZM10.97 5.85705C10.7035 5.25214 10.3855 4.70482 10.0235 4.23182C9.90146 4.07284 9.67246 4.04084 9.51146 4.16045C9.34946 4.28054 9.31746 4.50597 9.43896 4.66495C9.73746 5.05526 10.0045 5.50365 10.234 6.00028C9.29596 8.03305 7.72246 9.2414 5.99996 9.2414C5.60996 9.2414 5.22196 9.17889 4.84696 9.05584C4.65446 8.99432 4.44796 9.09472 4.38446 9.28373C4.32046 9.47224 4.42396 9.67601 4.61546 9.7395C5.06496 9.88716 5.53096 9.96198 5.99996 9.96198C8.06346 9.96198 9.92146 8.53411 10.97 6.14252C11.01 6.05196 11.01 5.94811 10.97 5.85705ZM7.19518 6.21375C7.10618 6.70103 6.71418 7.0879 6.21918 7.176C6.02018 7.21193 5.88818 7.39946 5.92418 7.59535C5.95618 7.7691 6.11068 7.89067 6.28368 7.89067C6.30568 7.89067 6.32768 7.8887 6.34968 7.88526C7.14368 7.74301 7.77318 7.12284 7.91518 6.34123C7.95118 6.14485 7.81868 5.95781 7.61968 5.92287C7.42218 5.88743 7.23068 6.01884 7.19518 6.21375Z" fill="#8C94A5"/>
</svg>
