<svg width="34" height="34" viewBox="0 0 34 34" fill="none" xmlns="http://www.w3.org/2000/svg">
<rect width="34" height="34" rx="17" fill="#EEEEEE"/>
<path fill-rule="evenodd" clip-rule="evenodd" d="M10.1585 10.8833L10.0824 10.8754C9.80555 10.8653 9.5569 11.0611 9.50833 11.3417L9.50037 11.4177C9.49025 11.6946 9.68606 11.9433 9.96666 11.9919L11.0984 12.1876L11.7843 20.3594L11.7985 20.4822C11.9365 21.414 12.738 22.1146 13.6926 22.1146H21.8766L21.9998 22.1107C22.8971 22.0534 23.6411 21.3748 23.772 20.4735L24.4838 15.5547L24.4961 15.4417C24.5616 14.5424 23.8491 13.7618 22.9318 13.7618H12.3592L12.1831 11.6605L12.1699 11.5774C12.1185 11.3612 11.9427 11.1921 11.7185 11.1533L10.1585 10.8833ZM13.6057 20.985C13.2343 20.9443 12.9372 20.646 12.9055 20.2657L12.4538 14.8869H22.9319L22.9981 14.8918C23.2349 14.927 23.406 15.1485 23.3705 15.3937L22.6587 20.3121L22.6409 20.4001C22.5506 20.744 22.239 20.9897 21.8767 20.9897H13.6927L13.6057 20.985ZM12.4317 24.4391C12.4317 23.812 12.94 23.3029 13.5672 23.3029C14.1944 23.3029 14.7035 23.8119 14.7035 24.4391C14.7035 25.0664 14.1943 25.5746 13.5672 25.5746C12.94 25.5746 12.4317 25.0663 12.4317 24.4391ZM20.8706 24.4391C20.8706 23.8119 21.3797 23.3029 22.0069 23.3029C22.634 23.3029 23.1431 23.8119 23.1431 24.4391C23.1431 25.0664 22.634 25.5746 22.0069 25.5746C21.3798 25.5746 20.8706 25.0664 20.8706 24.4391ZM21.2365 17.0965C21.2365 16.7858 20.9847 16.534 20.674 16.534H18.5943L18.5179 16.5391C18.2434 16.5764 18.0318 16.8117 18.0318 17.0965C18.0318 17.4071 18.2836 17.659 18.5943 17.659H20.674L20.7503 17.6538C21.0249 17.6166 21.2365 17.3812 21.2365 17.0965Z" fill="#222222"/>
</svg>
