<svg width="15" height="15" viewBox="0 0 15 15" fill="none" xmlns="http://www.w3.org/2000/svg">
<path fill-rule="evenodd" clip-rule="evenodd" d="M3.125 2.5C2.95924 2.5 2.80027 2.56585 2.68306 2.68306C2.56585 2.80027 2.5 2.95924 2.5 3.125V11.875C2.5 12.0408 2.56585 12.1997 2.68306 12.3169C2.80027 12.4342 2.95924 12.5 3.125 12.5H5.625C5.97018 12.5 6.25 12.7798 6.25 13.125C6.25 13.4702 5.97018 13.75 5.625 13.75H3.125C2.62772 13.75 2.15081 13.5525 1.79917 13.2008C1.44754 12.8492 1.25 12.3723 1.25 11.875V3.125C1.25 2.62772 1.44754 2.15081 1.79917 1.79917C2.15081 1.44754 2.62772 1.25 3.125 1.25H5.625C5.97018 1.25 6.25 1.52982 6.25 1.875C6.25 2.22018 5.97018 2.5 5.625 2.5H3.125Z" fill="#B0B0B0"/>
<path fill-rule="evenodd" clip-rule="evenodd" d="M9.55806 3.93306C9.80214 3.68898 10.1979 3.68898 10.4419 3.93306L13.5669 7.05806C13.811 7.30214 13.811 7.69786 13.5669 7.94194L10.4419 11.0669C10.1979 11.311 9.80214 11.311 9.55806 11.0669C9.31398 10.8229 9.31398 10.4271 9.55806 10.1831L12.2411 7.5L9.55806 4.81694C9.31398 4.57286 9.31398 4.17714 9.55806 3.93306Z" fill="#B0B0B0"/>
<path fill-rule="evenodd" clip-rule="evenodd" d="M5 7.5C5 7.15482 5.27982 6.875 5.625 6.875H13.125C13.4702 6.875 13.75 7.15482 13.75 7.5C13.75 7.84518 13.4702 8.125 13.125 8.125H5.625C5.27982 8.125 5 7.84518 5 7.5Z" fill="#B0B0B0"/>
</svg>
