<svg width="34" height="34" viewBox="0 0 34 34" fill="none" xmlns="http://www.w3.org/2000/svg">
<rect width="34" height="34" rx="17" fill="#EEEEEE"/>
<path d="M10.3113 18.0085L10.15 17.8834V18.0875V18.5C10.15 18.8881 10.3498 19.2755 10.6928 19.6334C11.0366 19.9921 11.5317 20.3294 12.1429 20.6196C13.3658 21.2004 15.0683 21.6 17 21.6C18.8914 21.6 20.563 21.217 21.7799 20.6559C22.3882 20.3755 22.8861 20.0491 23.2409 19.7008C23.5949 19.3533 23.8137 18.9768 23.8459 18.5969L23.846 18.597L23.8462 18.5927L23.8499 18.5042L23.85 18.5042L23.85 18.5002L23.8507 18.0877L23.8511 17.8832L23.6895 18.0085C22.2195 19.1475 19.7758 19.9 17 19.9C14.2249 19.9 11.7813 19.1483 10.3113 18.0085ZM17 11.1C19.2647 11.1 21.3101 11.6009 22.7857 12.4057C24.2651 13.2126 25.15 14.311 25.15 15.5V18.5C25.15 19.689 24.2651 20.7874 22.7857 21.5943C21.3101 22.3991 19.2647 22.9 17 22.9C14.7756 22.9 12.7628 22.4169 11.2936 21.637C9.82118 20.8555 8.91565 19.7888 8.85368 18.6287L8.85 18.4986V15.5C8.85 14.311 9.73488 13.2126 11.2143 12.4057C12.6899 11.6009 14.7353 11.1 17 11.1ZM17 12.4C15.0683 12.4 13.3658 12.7996 12.1429 13.3804C11.5317 13.6706 11.0366 14.0079 10.6928 14.3666C10.3498 14.7245 10.15 15.1119 10.15 15.5C10.15 15.8881 10.3498 16.2755 10.6928 16.6334C11.0366 16.9921 11.5317 17.3294 12.1429 17.6196C13.3658 18.2004 15.0683 18.6 17 18.6C18.9317 18.6 20.6342 18.2004 21.8571 17.6196C22.4683 17.3294 22.9634 16.9921 23.3072 16.6334C23.6502 16.2755 23.85 15.8881 23.85 15.5C23.85 15.1119 23.6502 14.7245 23.3072 14.3666C22.9634 14.0079 22.4683 13.6706 21.8571 13.3804C20.6342 12.7996 18.9317 12.4 17 12.4Z" fill="#5CBD85" stroke="#E9ECFF" stroke-width="0.2"/>
</svg>
