<svg width="26" height="26" viewBox="0 0 26 26" fill="none" xmlns="http://www.w3.org/2000/svg">
<path fill-rule="evenodd" clip-rule="evenodd" d="M2.16797 12.9998C2.16797 12.4015 2.65299 11.9165 3.2513 11.9165H22.7513C23.3496 11.9165 23.8346 12.4015 23.8346 12.9998C23.8346 13.5981 23.3496 14.0832 22.7513 14.0832H3.2513C2.65299 14.0832 2.16797 13.5981 2.16797 12.9998Z" fill="black"/>
<path fill-rule="evenodd" clip-rule="evenodd" d="M2.16797 6.49984C2.16797 5.90153 2.65299 5.4165 3.2513 5.4165H22.7513C23.3496 5.4165 23.8346 5.90153 23.8346 6.49984C23.8346 7.09815 23.3496 7.58317 22.7513 7.58317H3.2513C2.65299 7.58317 2.16797 7.09815 2.16797 6.49984Z" fill="black"/>
<path fill-rule="evenodd" clip-rule="evenodd" d="M2.16797 19.4998C2.16797 18.9015 2.65299 18.4165 3.2513 18.4165H22.7513C23.3496 18.4165 23.8346 18.9015 23.8346 19.4998C23.8346 20.0981 23.3496 20.5832 22.7513 20.5832H3.2513C2.65299 20.5832 2.16797 20.0981 2.16797 19.4998Z" fill="black"/>
</svg>
