<svg width="20" height="20" viewBox="0 0 20 20" fill="none" xmlns="http://www.w3.org/2000/svg">
<path fill-rule="evenodd" clip-rule="evenodd" d="M5.67021 0H14.3402C17.7302 0 20.0002 2.38 20.0002 5.92V14.09C20.0002 17.62 17.7302 20 14.3402 20H5.67021C2.28021 20 0.000213623 17.62 0.000213623 14.09V5.92C0.000213623 2.38 2.28021 0 5.67021 0ZM5.52021 11.2C4.86021 11.2 4.32021 10.66 4.32021 10C4.32021 9.34 4.86021 8.801 5.52021 8.801C6.18021 8.801 6.72021 9.34 6.72021 10C6.72021 10.66 6.18021 11.2 5.52021 11.2ZM8.80021 10C8.80021 10.66 9.34021 11.2 10.0002 11.2C10.6602 11.2 11.2002 10.66 11.2002 10C11.2002 9.34 10.6602 8.801 10.0002 8.801C9.34021 8.801 8.80021 9.34 8.80021 10ZM13.2802 10C13.2802 10.66 13.8202 11.2 14.4802 11.2C15.1402 11.2 15.6702 10.66 15.6702 10C15.6702 9.34 15.1402 8.801 14.4802 8.801C13.8202 8.801 13.2802 9.34 13.2802 10Z" fill="white"/>
</svg>
