<svg width="20" height="20" viewBox="0 0 20 20" fill="none" xmlns="http://www.w3.org/2000/svg">
<path fill-rule="evenodd" clip-rule="evenodd" d="M14.3345 0.750244H5.66549C2.64449 0.750244 0.750488 2.88924 0.750488 5.91624V14.0842C0.750488 17.1112 2.63449 19.2502 5.66549 19.2502H14.3335C17.3645 19.2502 19.2505 17.1112 19.2505 14.0842V5.91624C19.2505 2.88924 17.3645 0.750244 14.3345 0.750244Z" stroke="white" stroke-width="1.5" stroke-linecap="round" stroke-linejoin="round"/>
<path d="M5.52075 11.1975C4.85975 11.1975 4.32275 10.6605 4.32275 10.0005C4.32275 9.34049 4.85975 8.80249 5.52075 8.80249C6.18175 8.80249 6.71875 9.34049 6.71875 10.0005C6.71875 10.6605 6.18175 11.1975 5.52075 11.1975Z" fill="white"/>
<path d="M9.99976 11.1975C9.33876 11.1975 8.80176 10.6605 8.80176 10.0005C8.80176 9.34049 9.33876 8.80249 9.99976 8.80249C10.6608 8.80249 11.1978 9.34049 11.1978 10.0005C11.1978 10.6605 10.6608 11.1975 9.99976 11.1975Z" fill="white"/>
<path d="M14.4788 11.1975C13.8178 11.1975 13.2808 10.6605 13.2808 10.0005C13.2808 9.34049 13.8178 8.80249 14.4788 8.80249C15.1398 8.80249 15.6768 9.34049 15.6768 10.0005C15.6768 10.6605 15.1398 11.1975 14.4788 11.1975Z" fill="white"/>
</svg>
