<svg width="18" height="18" viewBox="0 0 18 18" fill="none" xmlns="http://www.w3.org/2000/svg">
<path d="M10.5 10.689V12.2565C9.82119 12.0165 9.09471 11.9429 8.38155 12.0418C7.6684 12.1408 6.9894 12.4094 6.40157 12.8252C5.81375 13.2409 5.33426 13.7916 5.00337 14.4311C4.67249 15.0705 4.49986 15.78 4.5 16.5L3 16.4993C2.99977 15.5834 3.20919 14.6797 3.61222 13.8573C4.01526 13.0349 4.6012 12.3157 5.32516 11.7548C6.04912 11.1939 6.89188 10.8061 7.78886 10.6212C8.68585 10.4364 9.61325 10.4593 10.5 10.6883V10.689ZM9 9.75C6.51375 9.75 4.5 7.73625 4.5 5.25C4.5 2.76375 6.51375 0.75 9 0.75C11.4862 0.75 13.5 2.76375 13.5 5.25C13.5 7.73625 11.4862 9.75 9 9.75ZM9 8.25C10.6575 8.25 12 6.9075 12 5.25C12 3.5925 10.6575 2.25 9 2.25C7.3425 2.25 6 3.5925 6 5.25C6 6.9075 7.3425 8.25 9 8.25ZM13.5 12.75V10.5H15V12.75H17.25V14.25H15V16.5H13.5V14.25H11.25V12.75H13.5Z" fill="#222222"/>
</svg>
