<svg width="37" height="33" viewBox="0 0 37 33" fill="none" xmlns="http://www.w3.org/2000/svg">
<path fill-rule="evenodd" clip-rule="evenodd" d="M18 14.9999C16.8792 14.9999 15.9675 15.8965 15.9675 17.0006C15.9675 17.3263 16.0559 17.6364 16.2059 17.9178L18.9325 15.2336C18.6475 15.0868 18.3292 14.9999 18 14.9999ZM24.1543 10.0926C24.3926 9.85803 24.7784 9.85803 25.0168 10.0926C25.2551 10.3273 25.2551 10.7071 25.0168 10.9417L11.846 23.907C11.7268 24.0243 11.571 24.0834 11.4151 24.0834C11.2585 24.0834 11.1026 24.0243 10.9835 23.907C10.7451 23.6724 10.7451 23.2926 10.9835 23.0588L15.3135 18.7955C14.9476 18.2705 14.7485 17.6512 14.7485 17.0006C14.7485 15.2353 16.2068 13.7997 18.0001 13.7997C18.6559 13.7997 19.2943 13.9982 19.8251 14.3543L21.5201 12.6865C19.1301 11.1558 16.216 11.287 13.9393 13.0614C12.7368 13.9925 11.7043 15.351 10.9435 17.0015C11.2818 17.7389 11.6751 18.419 12.1135 19.026C12.3085 19.2959 12.2443 19.6708 11.9701 19.8628C11.8626 19.9382 11.7393 19.9743 11.6168 19.9743C11.426 19.9743 11.2385 19.8874 11.1193 19.7217C10.5843 18.9809 10.1118 18.145 9.71596 17.2369C9.65013 17.086 9.65013 16.9137 9.71679 16.7627C10.5676 14.8235 11.766 13.2173 13.1843 12.1189C15.9326 9.97862 19.5426 9.8728 22.3976 11.8227L24.1543 10.0926ZM26.2833 16.7618C25.8391 15.7537 25.3091 14.8414 24.7058 14.0531C24.5025 13.7881 24.1208 13.7348 23.8525 13.9342C23.5825 14.1343 23.5291 14.51 23.7316 14.775C24.2291 15.4255 24.6741 16.1728 25.0566 17.0006C23.4933 20.3885 20.8708 22.4024 18 22.4024C17.35 22.4024 16.7033 22.2982 16.0783 22.0932C15.7575 21.9906 15.4133 22.158 15.3075 22.473C15.2008 22.7871 15.3733 23.1268 15.6925 23.2326C16.4416 23.4787 17.2183 23.6034 18 23.6034C21.4391 23.6034 24.5358 21.2236 26.2833 17.2376C26.35 17.0867 26.35 16.9136 26.2833 16.7618ZM19.9923 17.3563C19.8439 18.1685 19.1906 18.8132 18.3656 18.9601C18.0339 19.02 17.8139 19.3325 17.8739 19.659C17.9273 19.9486 18.1848 20.1512 18.4731 20.1512C18.5098 20.1512 18.5464 20.1479 18.5831 20.1422C19.9064 19.9051 20.9556 18.8715 21.1923 17.5688C21.2523 17.2415 21.0314 16.9298 20.6998 16.8715C20.3706 16.8125 20.0514 17.0315 19.9923 17.3563Z" fill="#858585"/>
<rect x="0.5" y="0.5" width="36" height="32" rx="4.5" stroke="#C4C4C4"/>
</svg>
