<svg width="18" height="18" viewBox="0 0 18 18" fill="none" xmlns="http://www.w3.org/2000/svg">
<path d="M1.5 16.5C1.5 14.9087 2.13214 13.3826 3.25736 12.2574C4.38258 11.1321 5.9087 10.5 7.5 10.5C9.0913 10.5 10.6174 11.1321 11.7426 12.2574C12.8679 13.3826 13.5 14.9087 13.5 16.5H12C12 15.3065 11.5259 14.1619 10.682 13.318C9.83807 12.4741 8.69347 12 7.5 12C6.30653 12 5.16193 12.4741 4.31802 13.318C3.47411 14.1619 3 15.3065 3 16.5H1.5ZM7.5 9.75C5.01375 9.75 3 7.73625 3 5.25C3 2.76375 5.01375 0.75 7.5 0.75C9.98625 0.75 12 2.76375 12 5.25C12 7.73625 9.98625 9.75 7.5 9.75ZM7.5 8.25C9.1575 8.25 10.5 6.9075 10.5 5.25C10.5 3.5925 9.1575 2.25 7.5 2.25C5.8425 2.25 4.5 3.5925 4.5 5.25C4.5 6.9075 5.8425 8.25 7.5 8.25ZM13.713 11.0273C14.767 11.5019 15.6615 12.2709 16.2889 13.2418C16.9164 14.2126 17.2501 15.344 17.25 16.5H15.75C15.7502 15.633 15.4999 14.7844 15.0293 14.0562C14.5587 13.328 13.8878 12.7512 13.0972 12.3953L13.7123 11.0273H13.713ZM13.197 2.55975C13.9526 2.87122 14.5987 3.40015 15.0533 4.07942C15.5078 4.75869 15.7503 5.55768 15.75 6.375C15.7503 7.40425 15.3658 8.39642 14.6719 9.15662C13.978 9.91682 13.025 10.3901 12 10.4835V8.97375C12.5557 8.89416 13.0713 8.63851 13.471 8.24434C13.8707 7.85017 14.1335 7.33824 14.2209 6.7837C14.3082 6.22916 14.2155 5.66122 13.9563 5.16327C13.6971 4.66531 13.2851 4.26356 12.7808 4.017L13.197 2.55975Z" fill="#222222"/>
</svg>
