<svg width="22" height="22" viewBox="0 0 22 22" fill="none" xmlns="http://www.w3.org/2000/svg">
<path d="M11.0004 6.86684C8.72129 6.86684 6.86719 8.72094 6.86719 11C6.86719 13.2791 8.72129 15.1332 11.0004 15.1332C13.2794 15.1332 15.1335 13.2791 15.1335 11C15.1335 8.72094 13.2794 6.86684 11.0004 6.86684ZM12.6903 10.322L11.4073 11.4787C11.1605 11.7021 10.7815 11.6999 10.5359 11.4714L9.79465 10.7796C9.53426 10.5368 9.52008 10.129 9.76285 9.86863C10.0056 9.60824 10.4134 9.59406 10.6738 9.83684L10.9832 10.1256L11.8271 9.36461C12.0918 9.12613 12.4991 9.14719 12.7376 9.41145C12.9756 9.6757 12.9545 10.0835 12.6903 10.322Z" fill="#606877"/>
<path d="M20.8349 13.3869L20.355 13.1102C18.7661 12.1925 18.7674 9.8068 20.355 8.8898L20.8349 8.61309C21.4502 8.2573 21.6621 7.46754 21.3067 6.85223L19.7457 4.14777C19.3903 3.53246 18.6001 3.32105 17.9844 3.67598L17.507 3.95184C15.931 4.86144 13.8499 3.69226 13.8499 1.84508V1.28906C13.8499 0.578359 13.272 0 12.5609 0H9.43875C8.72762 0 8.14969 0.578359 8.14969 1.28906V1.84508C8.14969 3.69278 6.06832 4.86127 4.49262 3.95184L4.01523 3.67598C3.39683 3.31955 2.60977 3.53195 2.25395 4.14777L0.692891 6.85223C0.337539 7.46754 0.549375 8.2573 1.16469 8.61309L1.64465 8.8898C3.23552 9.80869 3.22904 12.195 1.64465 13.1102L1.16469 13.3869C0.549375 13.7427 0.337539 14.5325 0.692891 15.1478L2.25395 17.8522C2.60973 18.4675 3.39949 18.6794 4.0148 18.324L4.49262 18.0482C6.06863 17.1386 8.14969 18.3077 8.14969 20.1549V20.7109C8.14969 21.4216 8.72762 22 9.43875 22H12.5609C13.272 22 13.8499 21.4216 13.8499 20.7109V20.1549C13.8499 18.3072 15.9313 17.1387 17.507 18.0482L17.9848 18.324C18.6001 18.6794 19.3903 18.4675 19.7457 17.8522L21.3067 15.1478C21.663 14.5311 21.452 13.7435 20.8349 13.3869ZM10.9998 16.4222C8.01004 16.4222 5.57758 13.9898 5.57758 11C5.57758 8.01023 8.01004 5.57777 10.9998 5.57777C13.9896 5.57777 16.422 8.01023 16.422 11C16.422 13.9898 13.9896 16.4222 10.9998 16.4222Z" fill="#606877"/>
</svg>
