<svg width="23" height="23" viewBox="0 0 23 23" fill="none" xmlns="http://www.w3.org/2000/svg">
<rect width="23" height="23" rx="5" fill="#616CF5"/>
<path d="M12.0013 4.29175L14.4665 7.8985L18.6589 9.12875L15.9902 12.5879L16.1156 16.9547L12.0013 15.4859L7.88708 16.9547L8.0125 12.5879L5.34375 9.12875L9.53617 7.8985L12.0013 4.29175ZM10.8347 11.0001H9.668C9.66799 11.6088 9.90588 12.1935 10.3309 12.6293C10.7559 13.0651 11.3344 13.3175 11.943 13.3327C12.5515 13.3479 13.1419 13.1247 13.5882 12.7107C14.0345 12.2967 14.3013 11.7247 14.3317 11.1167L14.3347 11.0001H13.168C13.1694 11.3028 13.053 11.5942 12.8434 11.8128C12.6339 12.0313 12.3476 12.1598 12.0451 12.1711C11.7426 12.1825 11.4475 12.0758 11.2222 11.8736C10.9968 11.6714 10.8589 11.3896 10.8376 11.0876L10.8347 11.0001Z" fill="#F8F9FF"/>
</svg>
