<svg width="18" height="18" viewBox="0 0 18 18" fill="none" xmlns="http://www.w3.org/2000/svg">
<g clip-path="url(#clip0)">
<path d="M15.5816 3.16351C14.0224 1.60433 11.9485 0.745117 9.74487 0.745117C7.50054 0.745117 5.40065 1.63026 3.83406 3.23758C3.6637 3.41165 3.6674 3.69311 3.84147 3.86718C4.01553 4.03754 4.297 4.03384 4.47107 3.85977C5.87099 2.42651 7.74127 1.63766 9.74487 1.63766C13.8076 1.63396 17.1112 4.93749 17.1112 9.00025C17.1112 13.063 13.8076 16.3665 9.74487 16.3665C5.68212 16.3665 2.37858 13.063 2.37858 9.00025V8.90766L3.11188 9.64096C3.19706 9.72614 3.31187 9.77058 3.42668 9.77058C3.54148 9.77058 3.65259 9.72614 3.74147 9.64096C3.91554 9.46689 3.91554 9.18542 3.74147 9.01136L2.25266 7.51884C2.0786 7.34478 1.79713 7.34478 1.62306 7.51884L0.130549 9.01136C-0.0435163 9.18542 -0.0435163 9.46689 0.130549 9.64096C0.304614 9.81502 0.586081 9.81502 0.760146 9.64096L1.49344 8.90766V9.00025C1.49344 11.2038 2.35266 13.2778 3.91184 14.837C5.47101 16.3962 7.54498 17.2554 9.74857 17.2554C11.9522 17.2554 14.0261 16.3962 15.5853 14.837C17.1445 13.2778 18 11.2038 18 9.00025C18 6.79666 17.1408 4.72269 15.5816 3.16351Z" fill="#616CF5"/>
<path d="M12.1071 5.99625L6.64813 11.4515C6.47406 11.6256 6.47406 11.9071 6.64813 12.0811C6.73331 12.1663 6.84812 12.2107 6.96293 12.2107C7.07773 12.2107 7.18884 12.1663 7.27772 12.0811L12.7367 6.62214C12.9108 6.44808 12.9108 6.16661 12.7367 5.99255C12.5626 5.82218 12.2812 5.82218 12.1071 5.99625Z" fill="#616CF5"/>
<path d="M10.6787 9.67026C10.0602 10.2887 10.0602 11.2998 10.6787 11.9183C10.9787 12.2183 11.3787 12.3849 11.8046 12.3849C12.2305 12.3849 12.6305 12.2183 12.9304 11.9183C13.5489 11.2998 13.5489 10.2887 12.9304 9.67026C12.6305 9.37027 12.2305 9.20361 11.8046 9.20361C11.3787 9.20361 10.9824 9.37027 10.6787 9.67026ZM12.3008 11.2924C12.1675 11.4257 11.9935 11.4961 11.8046 11.4961C11.6157 11.4961 11.4416 11.422 11.3083 11.2924C11.0342 11.0183 11.0342 10.5739 11.3083 10.2999C11.4416 10.1665 11.6157 10.0962 11.8046 10.0962C11.9935 10.0962 12.1675 10.1702 12.3008 10.2999C12.5749 10.5739 12.5749 11.0183 12.3008 11.2924Z" fill="#616CF5"/>
<path d="M7.70189 5.6001C7.27598 5.6001 6.876 5.76676 6.57602 6.06674C6.27603 6.36673 6.10938 6.7667 6.10938 7.19261C6.10938 7.61851 6.27603 8.01849 6.57602 8.31848C6.876 8.61846 7.27598 8.78512 7.70189 8.78512C8.12779 8.78512 8.52777 8.61846 8.82775 8.31848C9.12774 8.01849 9.2944 7.61851 9.2944 7.19261C9.2944 6.7667 9.12774 6.36673 8.82775 6.06674C8.52407 5.76676 8.12779 5.6001 7.70189 5.6001ZM8.19816 7.68888C8.06483 7.82221 7.89076 7.89257 7.70189 7.89257C7.51301 7.89257 7.33894 7.8185 7.20561 7.68888C7.07229 7.55555 7.00192 7.38149 7.00192 7.19261C7.00192 7.00373 7.07599 6.82966 7.20561 6.69634C7.33894 6.56301 7.51301 6.49264 7.70189 6.49264C7.89076 6.49264 8.06483 6.56671 8.19816 6.69634C8.33148 6.82966 8.40185 7.00373 8.40185 7.19261C8.40185 7.37778 8.33148 7.55555 8.19816 7.68888Z" fill="#616CF5"/>
</g>
<defs>
<clipPath id="clip0">
<rect width="18" height="18" fill="white"/>
</clipPath>
</defs>
</svg>
