<svg width="69" height="69" viewBox="0 0 69 69" fill="none" xmlns="http://www.w3.org/2000/svg">
<path d="M46 69H38.3333V61.3333H46V69ZM38.3333 42.1667H30.6667V61.3333H38.3333V42.1667ZM69 34.5H61.3333V49.8333H69V34.5ZM61.3333 26.8333H53.6667V34.5H61.3333V26.8333ZM15.3333 34.5H7.66667V42.1667H15.3333V34.5ZM7.66667 26.8333H0V34.5H7.66667V26.8333ZM34.5 7.66667H42.1667V0H34.5V7.66667ZM5.75 5.75V17.25H17.25V5.75H5.75ZM23 23H0V0H23V23ZM5.75 51.75V63.25H17.25V51.75H5.75ZM23 69H0V46H23V69ZM51.75 5.75V17.25H63.25V5.75H51.75ZM69 23H46V0H69V23ZM61.3333 61.3333V49.8333H46V57.5H53.6667V69H69V61.3333H61.3333ZM53.6667 34.5H38.3333V42.1667H53.6667V34.5ZM38.3333 26.8333H15.3333V34.5H23V42.1667H30.6667V34.5H38.3333V26.8333ZM42.1667 23V15.3333H34.5V7.66667H26.8333V23H42.1667ZM14.375 8.625H8.625V14.375H14.375V8.625ZM14.375 54.625H8.625V60.375H14.375V54.625ZM60.375 8.625H54.625V14.375H60.375V8.625Z" fill="#D3D3D3"/>
</svg>
