<svg width="34" height="34" viewBox="0 0 34 34" fill="none" xmlns="http://www.w3.org/2000/svg">
<rect width="34" height="34" rx="5" fill="#EEEEEE"/>
<path d="M10.3333 10.3333H15.3333V15.3333H10.3333V10.3333ZM23.6667 10.3333V15.3333H18.6667V10.3333H23.6667ZM18.6667 19.5H20.3333V17.8333H18.6667V16.1667H20.3333V17.8333H22V16.1667H23.6667V17.8333H22V19.5H23.6667V22H22V23.6667H20.3333V22H17.8333V23.6667H16.1667V20.3333H18.6667V19.5ZM20.3333 19.5V22H22V19.5H20.3333ZM10.3333 23.6667V18.6667H15.3333V23.6667H10.3333ZM12 12V13.6667H13.6667V12H12ZM20.3333 12V13.6667H22V12H20.3333ZM12 20.3333V22H13.6667V20.3333H12ZM10.3333 16.1667H12V17.8333H10.3333V16.1667ZM14.5 16.1667H17.8333V19.5H16.1667V17.8333H14.5V16.1667ZM16.1667 12H17.8333V15.3333H16.1667V12ZM8.66667 8.66667V12H7V8.66667C7 8.22464 7.17559 7.80072 7.48816 7.48816C7.80072 7.17559 8.22464 7 8.66667 7H12V8.66667H8.66667ZM25.3333 7C25.7754 7 26.1993 7.17559 26.5118 7.48816C26.8244 7.80072 27 8.22464 27 8.66667V12H25.3333V8.66667H22V7H25.3333ZM8.66667 22V25.3333H12V27H8.66667C8.22464 27 7.80072 26.8244 7.48816 26.5118C7.17559 26.1993 7 25.7754 7 25.3333V22H8.66667ZM25.3333 25.3333V22H27V25.3333C27 25.7754 26.8244 26.1993 26.5118 26.5118C26.1993 26.8244 25.7754 27 25.3333 27H22V25.3333H25.3333Z" fill="#222222"/>
</svg>
