<svg width="20" height="20" viewBox="0 0 20 20" fill="none" xmlns="http://www.w3.org/2000/svg">
<path fill-rule="evenodd" clip-rule="evenodd" d="M10 2.5C5.85787 2.5 2.5 5.85787 2.5 10C2.5 14.1421 5.85787 17.5 10 17.5C14.1421 17.5 17.5 14.1421 17.5 10C17.5 5.85787 14.1421 2.5 10 2.5ZM0.833336 10C0.833336 4.93739 4.93739 0.833336 10 0.833336C15.0626 0.833336 19.1667 4.93739 19.1667 10C19.1667 15.0626 15.0626 19.1667 10 19.1667C4.93739 19.1667 0.833336 15.0626 0.833336 10Z" fill="#E94A4A"/>
<path fill-rule="evenodd" clip-rule="evenodd" d="M13.0893 6.91075C13.4147 7.23618 13.4147 7.76382 13.0893 8.08926L8.08926 13.0893C7.76382 13.4147 7.23618 13.4147 6.91075 13.0893C6.58531 12.7638 6.58531 12.2362 6.91075 11.9107L11.9107 6.91075C12.2362 6.58531 12.7638 6.58531 13.0893 6.91075Z" fill="#E94A4A"/>
<path fill-rule="evenodd" clip-rule="evenodd" d="M6.91075 6.91075C7.23618 6.58531 7.76382 6.58531 8.08926 6.91075L13.0893 11.9107C13.4147 12.2362 13.4147 12.7638 13.0893 13.0893C12.7638 13.4147 12.2362 13.4147 11.9107 13.0893L6.91075 8.08926C6.58531 7.76382 6.58531 7.23618 6.91075 6.91075Z" fill="#E94A4A"/>
</svg>
