<svg width="37" height="33" viewBox="0 0 37 33" fill="none" xmlns="http://www.w3.org/2000/svg">
<path fill-rule="evenodd" clip-rule="evenodd" d="M19.0018 10.3333C22.4484 10.335 25.5442 12.7386 27.2834 16.7615C27.35 16.9139 27.35 17.0861 27.2834 17.2394C27.0767 17.7173 26.8467 18.1819 26.5984 18.6176C26.4325 18.9108 26.0625 19.0127 25.7675 18.8487C25.4742 18.683 25.3709 18.3145 25.5359 18.0229C25.7209 17.6974 25.8959 17.3537 26.0567 17C24.5009 13.5801 21.8776 11.5467 19.0001 11.5459C16.1218 11.5467 13.4985 13.5801 11.9427 17C13.4985 20.4199 16.1218 22.4541 19.0001 22.4541C20.6734 22.4541 22.2876 21.7617 23.6684 20.4505C23.9126 20.2211 24.2976 20.2294 24.5301 20.4712C24.7634 20.7123 24.7534 21.0958 24.5101 21.3268C22.8992 22.8566 20.9951 23.6658 19.0018 23.6667H18.9985H18.9976C15.5518 23.665 12.456 21.2622 10.7161 17.2394C10.6502 17.087 10.6502 16.9139 10.7161 16.7615C12.456 12.7386 15.5518 10.335 18.9976 10.3333H19.0001H19.0018ZM17.9572 18.7324C18.2705 18.9196 18.6313 19.0182 18.9997 19.0182C20.1188 19.0182 21.0296 18.1129 21.0296 16.9997C21.0296 15.8882 20.1188 14.9829 18.9997 14.9829C17.8805 14.9829 16.9697 15.8882 16.9697 16.9997C16.9697 17.3351 16.6964 17.606 16.3597 17.606C16.023 17.606 15.7505 17.3351 15.7505 16.9997C15.7505 15.2189 17.208 13.7703 18.9997 13.7703C20.7913 13.7703 22.2488 15.2189 22.2488 16.9997C22.2488 18.7813 20.7913 20.2299 18.9997 20.2299C18.4097 20.2299 17.8322 20.0709 17.3297 19.7702C17.0405 19.5988 16.9472 19.226 17.1214 18.9386C17.2947 18.6529 17.6697 18.5576 17.9572 18.7324Z" fill="#200E32"/>
<rect x="0.5" y="0.5" width="36" height="32" rx="4.5" stroke="#717171"/>
</svg>
