<svg width="34" height="34" viewBox="0 0 34 34" fill="none" xmlns="http://www.w3.org/2000/svg">
<path fill-rule="evenodd" clip-rule="evenodd" d="M33.1329 17.0381C33.1329 17.6251 32.657 18.101 32.07 18.101L15.5349 18.101C14.9478 18.101 14.472 17.6251 14.472 17.0381C14.472 16.451 14.9478 15.9751 15.5349 15.9751L32.07 15.9751C32.657 15.9751 33.1329 16.451 33.1329 17.0381Z" fill="#616CF5"/>
<path fill-rule="evenodd" clip-rule="evenodd" d="M33.1329 17.0381C33.1329 17.4464 32.899 17.8186 32.5311 17.9957L12.238 27.7665C11.8453 27.9556 11.377 27.8858 11.0566 27.5904C10.7361 27.2951 10.6284 26.834 10.7848 26.4272L14.3961 17.0381L10.7848 7.64888C10.6284 7.24211 10.7361 6.78106 11.0566 6.48571C11.377 6.19036 11.8453 6.12056 12.238 6.30963L32.5311 16.0804C32.899 16.2575 33.1329 16.6297 33.1329 17.0381ZM13.7314 9.38808L16.5269 16.6565C16.6214 16.9021 16.6214 17.174 16.5269 17.4196L13.7314 24.688L29.6198 17.0381L13.7314 9.38808Z" fill="#616CF5"/>
</svg>
