<svg width="17" height="15" viewBox="0 0 17 15" fill="none" xmlns="http://www.w3.org/2000/svg">
<path d="M15.5 7.8445C14.6643 7.24379 13.648 6.94769 12.6204 7.00557C11.5929 7.06344 10.6162 7.4718 9.85324 8.16254C9.0903 8.85329 8.58718 9.78469 8.42777 10.8015C8.26836 11.8182 8.4623 12.8589 8.97725 13.75H1.25C1.05109 13.75 0.860322 13.671 0.71967 13.5303C0.579018 13.3897 0.5 13.1989 0.5 13V1C0.5 0.801088 0.579018 0.610322 0.71967 0.46967C0.860322 0.329018 1.05109 0.25 1.25 0.25H6.8105L8.3105 1.75H14.75C14.9489 1.75 15.1397 1.82902 15.2803 1.96967C15.421 2.11032 15.5 2.30109 15.5 2.5V7.8445ZM12.5 10.75V8.125L16.25 11.5L12.5 14.875V12.25H10.25V10.75H12.5Z" fill="#606877"/>
</svg>
