<svg width="20" height="20" viewBox="0 0 20 20" fill="none" xmlns="http://www.w3.org/2000/svg">
<path fill-rule="evenodd" clip-rule="evenodd" d="M18.4023 11.58C18.7599 11.77 19.0359 12.07 19.23 12.37C19.6082 12.99 19.5775 13.75 19.2096 14.42L18.4942 15.62C18.1161 16.26 17.411 16.66 16.6854 16.66C16.3277 16.66 15.9291 16.56 15.6021 16.36C15.3364 16.19 15.0298 16.13 14.7028 16.13C13.691 16.13 12.8428 16.96 12.8121 17.95C12.8121 19.1 11.8719 20 10.6967 20H9.30683C8.12136 20 7.18116 19.1 7.18116 17.95C7.16072 16.96 6.3125 16.13 5.30076 16.13C4.96351 16.13 4.65693 16.19 4.40144 16.36C4.07441 16.56 3.66563 16.66 3.31816 16.66C2.58235 16.66 1.8772 16.26 1.49908 15.62L0.793928 14.42C0.415804 13.77 0.395365 12.99 0.773489 12.37C0.937002 12.07 1.24359 11.77 1.59106 11.58C1.8772 11.44 2.06116 11.21 2.23489 10.94C2.74587 10.08 2.43928 8.95 1.57062 8.44C0.558878 7.87 0.231852 6.6 0.814367 5.61L1.49908 4.43C2.09181 3.44 3.35904 3.09 4.381 3.67C5.2701 4.15 6.42491 3.83 6.94611 2.98C7.10962 2.7 7.2016 2.4 7.18116 2.1C7.16072 1.71 7.27314 1.34 7.46731 1.04C7.84543 0.42 8.53015 0.02 9.27617 0H10.7171C11.4734 0 12.1581 0.42 12.5362 1.04C12.7202 1.34 12.8428 1.71 12.8121 2.1C12.7917 2.4 12.8837 2.7 13.0472 2.98C13.5684 3.83 14.7232 4.15 15.6225 3.67C16.6343 3.09 17.9117 3.44 18.4942 4.43L19.1789 5.61C19.7717 6.6 19.4447 7.87 18.4227 8.44C17.554 8.95 17.2474 10.08 17.7686 10.94C17.9322 11.21 18.1161 11.44 18.4023 11.58ZM7.10962 10.01C7.10962 11.58 8.40751 12.83 10.012 12.83C11.6165 12.83 12.8837 11.58 12.8837 10.01C12.8837 8.44 11.6165 7.18 10.012 7.18C8.40751 7.18 7.10962 8.44 7.10962 10.01Z" fill="white"/>
</svg>
