<svg width="54" height="54" viewBox="0 0 54 54" fill="none" xmlns="http://www.w3.org/2000/svg">
<path d="M27.5552 25.6641L27.5625 25.6671L27.5699 25.6699C27.7462 25.7383 27.9075 25.8403 28.0448 25.9704L32.5379 30.4635L32.5402 30.4658C32.6767 30.6012 32.785 30.7622 32.8589 30.9396C32.9328 31.117 32.9709 31.3073 32.9709 31.4995C32.9709 31.6917 32.9328 31.882 32.8589 32.0594C32.785 32.2368 32.6767 32.3978 32.5402 32.5332L32.5402 32.5332L32.5356 32.5378C32.4003 32.6742 32.2393 32.7826 32.0619 32.8565C31.8844 32.9304 31.6941 32.9684 31.502 32.9684C31.3098 32.9684 31.1195 32.9304 30.9421 32.8565C30.766 32.7831 30.6061 32.6759 30.4715 32.541L29.8229 31.8701L28.4578 30.4579V32.422V38.2495C28.4578 38.6356 28.3044 39.0059 28.0314 39.279C27.7584 39.552 27.3881 39.7054 27.002 39.7054C26.6158 39.7054 26.2455 39.552 25.9725 39.279C25.6995 39.0059 25.5461 38.6356 25.5461 38.2495V32.422V30.4579L24.181 31.8701L23.5336 32.5397C23.2593 32.8118 22.8885 32.9646 22.502 32.9646C22.1134 32.9646 21.7407 32.8102 21.466 32.5355C21.1912 32.2607 21.0369 31.8881 21.0369 31.4995C21.0369 31.1109 21.1912 30.7383 21.466 30.4635L25.9591 25.9704C26.0964 25.8403 26.2577 25.7383 26.434 25.6699L26.4414 25.6671L26.4487 25.6641C26.8032 25.5184 27.2007 25.5184 27.5552 25.6641ZM44.0728 19.507V19.637L44.1143 19.7602C44.1583 19.8911 44.1896 20.026 44.2078 20.1629V20.2495V42.7495C44.2078 44.3291 43.5803 45.844 42.4634 46.961C41.3465 48.0779 39.8316 48.7054 38.252 48.7054H15.752C14.1724 48.7054 12.6575 48.0779 11.5405 46.961C10.4236 45.844 9.79607 44.3291 9.79607 42.7495V11.2495C9.79607 9.66991 10.4236 8.15501 11.5405 7.03807C12.6575 5.92112 14.1724 5.29363 15.752 5.29363H29.3035C29.445 5.32702 29.5816 5.37865 29.71 5.44729L29.8855 5.54113H30.0845H30.1143C30.2121 5.59932 30.3037 5.66778 30.3873 5.74544L43.8686 19.2267C43.9462 19.3103 44.0146 19.4018 44.0728 19.4997V19.507ZM32.0635 11.6105L30.7078 10.2548V12.172V15.7495C30.7078 16.5569 31.0286 17.3311 31.5994 17.902C32.1703 18.4729 32.9446 18.7936 33.752 18.7936H37.3295H39.2466L37.891 17.438L32.0635 11.6105ZM13.5994 44.902L14.161 44.3405L13.5994 44.902C14.1703 45.4729 14.9446 45.7936 15.752 45.7936H38.252C39.0593 45.7936 39.8336 45.4729 40.4045 44.902C40.9754 44.3311 41.2961 43.5569 41.2961 42.7495V22.4995V21.7054H40.502H33.752C32.1724 21.7054 30.6575 21.0779 29.5405 19.961C28.4236 18.844 27.7961 17.3291 27.7961 15.7495V8.99951V8.20539H27.002H15.752C14.9446 8.20539 14.1703 8.52611 13.5994 9.09699C13.0286 9.66788 12.7078 10.4422 12.7078 11.2495V42.7495C12.7078 43.5569 13.0286 44.3311 13.5994 44.902Z" fill="#8C94A5" stroke="white" stroke-width="1.58824"/>
</svg>
