<svg width="20" height="20" viewBox="0 0 20 20" fill="none" xmlns="http://www.w3.org/2000/svg">
<g clip-path="url(#clip0)">
<path d="M17.0833 16.6667H7.08333C5.93417 16.6667 5 15.7317 5 14.5833V2.08333C5 0.935 5.93417 0 7.08333 0H14.59C15.3583 0 16.1092 0.311667 16.6525 0.854167L18.3125 2.51417C18.8633 3.06583 19.1667 3.79833 19.1667 4.5775V14.5833C19.1667 15.7317 18.2325 16.6667 17.0833 16.6667ZM7.08333 0.833333C6.39417 0.833333 5.83333 1.39417 5.83333 2.08333V14.5833C5.83333 15.2725 6.39417 15.8333 7.08333 15.8333H17.0833C17.7725 15.8333 18.3333 15.2725 18.3333 14.5833V4.5775C18.3333 4.02167 18.1167 3.49833 17.7233 3.10417L16.0633 1.44417C15.6758 1.05583 15.1383 0.833333 14.59 0.833333H7.08333Z" fill="white"/>
<path d="M12.9163 20H2.91634C1.76717 20 0.833008 19.065 0.833008 17.9167V4.58333C0.833008 3.435 1.76717 2.5 2.91634 2.5H3.74968C3.97968 2.5 4.16634 2.68667 4.16634 2.91667C4.16634 3.14667 3.97968 3.33333 3.74968 3.33333H2.91634C2.22717 3.33333 1.66634 3.89417 1.66634 4.58333V17.9167C1.66634 18.6058 2.22717 19.1667 2.91634 19.1667H12.9163C13.6055 19.1667 14.1663 18.6058 14.1663 17.9167C14.1663 17.6867 14.353 17.5 14.583 17.5C14.813 17.5 14.9997 17.6867 14.9997 17.9167C14.9997 19.065 14.0655 20 12.9163 20Z" fill="white"/>
<path d="M15.4163 6.66683H8.74967C8.51967 6.66683 8.33301 6.48016 8.33301 6.25016C8.33301 6.02016 8.51967 5.8335 8.74967 5.8335H15.4163C15.6463 5.8335 15.833 6.02016 15.833 6.25016C15.833 6.48016 15.6463 6.66683 15.4163 6.66683Z" fill="white"/>
<path d="M15.4163 9.99984H8.74967C8.51967 9.99984 8.33301 9.81317 8.33301 9.58317C8.33301 9.35317 8.51967 9.1665 8.74967 9.1665H15.4163C15.6463 9.1665 15.833 9.35317 15.833 9.58317C15.833 9.81317 15.6463 9.99984 15.4163 9.99984Z" fill="white"/>
<path d="M15.4163 13.3333H8.74967C8.51967 13.3333 8.33301 13.1467 8.33301 12.9167C8.33301 12.6867 8.51967 12.5 8.74967 12.5H15.4163C15.6463 12.5 15.833 12.6867 15.833 12.9167C15.833 13.1467 15.6463 13.3333 15.4163 13.3333Z" fill="white"/>
</g>
<defs>
<clipPath id="clip0">
<rect width="20" height="20" fill="white"/>
</clipPath>
</defs>
</svg>
