<svg width="19" height="19" viewBox="0 0 19 19" fill="none" xmlns="http://www.w3.org/2000/svg">
<path fill-rule="evenodd" clip-rule="evenodd" d="M14.8095 4.19022C15.1186 4.49938 15.1186 5.00064 14.8095 5.3098L5.30947 14.8098C5.0003 15.119 4.49905 15.119 4.18988 14.8098C3.88072 14.5006 3.88072 13.9994 4.18988 13.6902L13.6899 4.19022C13.999 3.88105 14.5003 3.88105 14.8095 4.19022Z" fill="#8C94A5"/>
<path fill-rule="evenodd" clip-rule="evenodd" d="M4.18988 4.19022C4.49905 3.88105 5.0003 3.88105 5.30947 4.19022L14.8095 13.6902C15.1186 13.9994 15.1186 14.5006 14.8095 14.8098C14.5003 15.119 13.999 15.119 13.6899 14.8098L4.18988 5.3098C3.88072 5.00064 3.88072 4.49938 4.18988 4.19022Z" fill="#8C94A5"/>
</svg>
