<svg width="19" height="19" viewBox="0 0 19 19" fill="none" xmlns="http://www.w3.org/2000/svg">
<path fill-rule="evenodd" clip-rule="evenodd" d="M14.8104 4.19037C15.1196 4.49953 15.1196 5.00079 14.8104 5.30996L5.31044 14.81C5.00128 15.1191 4.50002 15.1191 4.19086 14.81C3.88169 14.5008 3.88169 13.9995 4.19086 13.6904L13.6909 4.19037C14 3.8812 14.5013 3.8812 14.8104 4.19037Z" fill="#222222"/>
<path fill-rule="evenodd" clip-rule="evenodd" d="M4.19086 4.19037C4.50002 3.8812 5.00128 3.8812 5.31044 4.19037L14.8104 13.6904C15.1196 13.9995 15.1196 14.5008 14.8104 14.81C14.5013 15.1191 14 15.1191 13.6909 14.81L4.19086 5.30996C3.88169 5.00079 3.88169 4.49953 4.19086 4.19037Z" fill="#222222"/>
</svg>
