<svg width="15" height="15" viewBox="0 0 15 15" fill="none" xmlns="http://www.w3.org/2000/svg">
<path fill-rule="evenodd" clip-rule="evenodd" d="M11.6919 3.30806C11.936 3.55214 11.936 3.94786 11.6919 4.19194L4.19194 11.6919C3.94786 11.936 3.55214 11.936 3.30806 11.6919C3.06398 11.4479 3.06398 11.0521 3.30806 10.8081L10.8081 3.30806C11.0521 3.06398 11.4479 3.06398 11.6919 3.30806Z" fill="#E3E3E3"/>
<path fill-rule="evenodd" clip-rule="evenodd" d="M3.30806 3.30806C3.55214 3.06398 3.94786 3.06398 4.19194 3.30806L11.6919 10.8081C11.936 11.0521 11.936 11.4479 11.6919 11.6919C11.4479 11.936 11.0521 11.936 10.8081 11.6919L3.30806 4.19194C3.06398 3.94786 3.06398 3.55214 3.30806 3.30806Z" fill="#E3E3E3"/>
</svg>
