<svg width="16" height="16" viewBox="0 0 16 16" fill="none" xmlns="http://www.w3.org/2000/svg">
<path fill-rule="evenodd" clip-rule="evenodd" d="M12.4721 3.52864C12.7324 3.78899 12.7324 4.2111 12.4721 4.47145L4.47206 12.4714C4.21171 12.7318 3.7896 12.7318 3.52925 12.4714C3.2689 12.2111 3.2689 11.789 3.52925 11.5286L11.5292 3.52864C11.7896 3.26829 12.2117 3.26829 12.4721 3.52864Z" fill="#8C94A5"/>
<path fill-rule="evenodd" clip-rule="evenodd" d="M3.52925 3.52864C3.7896 3.26829 4.21171 3.26829 4.47206 3.52864L12.4721 11.5286C12.7324 11.789 12.7324 12.2111 12.4721 12.4714C12.2117 12.7318 11.7896 12.7318 11.5292 12.4714L3.52925 4.47145C3.2689 4.2111 3.2689 3.78899 3.52925 3.52864Z" fill="#8C94A5"/>
</svg>
