<svg width="14" height="14" viewBox="0 0 14 14" fill="none" xmlns="http://www.w3.org/2000/svg">
<path d="M10.3333 1.99996H12.9999C13.1767 1.99996 13.3463 2.0702 13.4713 2.19522C13.5963 2.32025 13.6666 2.48981 13.6666 2.66663V13.3333C13.6666 13.5101 13.5963 13.6797 13.4713 13.8047C13.3463 13.9297 13.1767 14 12.9999 14H0.999919C0.823108 14 0.653538 13.9297 0.528514 13.8047C0.40349 13.6797 0.333252 13.5101 0.333252 13.3333V2.66663C0.333252 2.48981 0.40349 2.32025 0.528514 2.19522C0.653538 2.0702 0.823108 1.99996 0.999919 1.99996H3.66659V0.666626H4.99992V1.99996H8.99992V0.666626H10.3333V1.99996ZM1.66659 5.99996V12.6666H12.3333V5.99996H1.66659ZM2.99992 8.66663H6.33325V11.3333H2.99992V8.66663Z" fill="#606877"/>
</svg>
